<svg width="125" height="125" viewBox="0 0 125 125" fill="none" xmlns="http://www.w3.org/2000/svg">
<g filter="url(#filter0_d_928_577)">
<rect x="25.4004" y="21.5" width="74" height="74" rx="37" fill="white" shape-rendering="crispEdges"/>
<g clip-path="url(#clip0_928_577)">
<path d="M69.4004 58.5C65.5399 58.5 62.4004 61.6395 62.4004 65.5C62.4004 69.3605 65.5399 72.5 69.4004 72.5C73.2609 72.5 76.4004 69.3605 76.4004 65.5C76.4004 61.6395 73.2609 58.5 69.4004 58.5ZM69.4004 60.8333C70.6896 60.8333 71.7337 61.8775 71.7337 63.1667C71.7337 64.4558 70.6896 65.5 69.4004 65.5C68.1112 65.5 67.0671 64.4558 67.0671 63.1667C67.0671 61.8775 68.1112 60.8333 69.4004 60.8333ZM72.9004 68.5835C72.0441 69.5542 70.7934 70.1667 69.4004 70.1667C68.0074 70.1667 66.7567 69.553 65.9004 68.5835V68.4167C65.9004 67.4507 66.6844 66.6667 67.6504 66.6667H71.1504C72.1164 66.6667 72.9004 67.4507 72.9004 68.4167V68.5835ZM48.4004 53.8333V52.6667C48.4004 49.4502 51.0172 46.8333 54.2337 46.8333H55.4004V45.6667C55.4004 45.0227 55.9231 44.5 56.5671 44.5C57.2111 44.5 57.7337 45.0227 57.7337 45.6667V46.8333H67.0671V45.6667C67.0671 45.0227 67.5897 44.5 68.2337 44.5C68.8777 44.5 69.4004 45.0227 69.4004 45.6667V46.8333H70.5671C73.7836 46.8333 76.4004 49.4502 76.4004 52.6667V53.8333H48.4004ZM63.2276 72.5H54.2337C51.0172 72.5 48.4004 69.8832 48.4004 66.6667V56.1667H69.4004C64.2461 56.1667 60.0671 60.3457 60.0671 65.5C60.0671 68.2883 61.2897 70.7897 63.2276 72.5Z" fill="#1A1A1A"/>
<path d="M69.4004 58.5C65.5399 58.5 62.4004 61.6395 62.4004 65.5C62.4004 69.3605 65.5399 72.5 69.4004 72.5C73.2609 72.5 76.4004 69.3605 76.4004 65.5C76.4004 61.6395 73.2609 58.5 69.4004 58.5ZM69.4004 60.8333C70.6896 60.8333 71.7337 61.8775 71.7337 63.1667C71.7337 64.4558 70.6896 65.5 69.4004 65.5C68.1112 65.5 67.0671 64.4558 67.0671 63.1667C67.0671 61.8775 68.1112 60.8333 69.4004 60.8333ZM72.9004 68.5835C72.0441 69.5542 70.7934 70.1667 69.4004 70.1667C68.0074 70.1667 66.7567 69.553 65.9004 68.5835V68.4167C65.9004 67.4507 66.6844 66.6667 67.6504 66.6667H71.1504C72.1164 66.6667 72.9004 67.4507 72.9004 68.4167V68.5835Z" fill="#FFAD00"/>
</g>
</g>
<defs>
<filter id="filter0_d_928_577" x="0.400391" y="0.5" width="124" height="124" filterUnits="userSpaceOnUse" color-interpolation-filters="sRGB">
<feFlood flood-opacity="0" result="BackgroundImageFix"/>
<feColorMatrix in="SourceAlpha" type="matrix" values="0 0 0 0 0 0 0 0 0 0 0 0 0 0 0 0 0 0 127 0" result="hardAlpha"/>
<feOffset dy="4"/>
<feGaussianBlur stdDeviation="12.5"/>
<feComposite in2="hardAlpha" operator="out"/>
<feColorMatrix type="matrix" values="0 0 0 0 0 0 0 0 0 0 0 0 0 0 0 0 0 0 0.05 0"/>
<feBlend mode="normal" in2="BackgroundImageFix" result="effect1_dropShadow_928_577"/>
<feBlend mode="normal" in="SourceGraphic" in2="effect1_dropShadow_928_577" result="shape"/>
</filter>
<clipPath id="clip0_928_577">
<rect width="28" height="28" fill="white" transform="translate(48.4004 44.5)"/>
</clipPath>
</defs>
</svg>
