<svg width="125" height="125" viewBox="0 0 125 125" fill="none" xmlns="http://www.w3.org/2000/svg">
<g filter="url(#filter0_d_928_1214)">
<rect x="25.4004" y="21.5" width="74" height="74" rx="37" fill="white" shape-rendering="crispEdges"/>
<g clip-path="url(#clip0_928_1214)">
<path d="M76.3107 62.9456L75.7855 64.9764C75.6454 65.4665 75.4003 65.8867 75.0152 66.2368C74.9102 66.3419 74.7701 66.4469 74.63 66.552L73.9998 68.8279C73.9648 69.0029 73.8597 69.178 73.7547 69.3181C73.4046 69.7732 72.8443 69.9483 72.2841 69.8083L70.9186 69.4581C70.1833 69.248 69.7281 68.4777 69.9382 67.7424L70.2883 66.3769L59.4691 63.4708L59.1189 64.8363C58.9088 65.5716 58.1385 66.0268 57.4033 65.8167L56.0377 65.4665C55.4775 65.3265 55.0923 64.8363 55.0223 64.3111C54.9873 64.136 55.0223 63.9259 55.0573 63.7509L55.6526 61.475C55.5825 61.3349 55.5125 61.1598 55.4775 61.0198C55.3374 60.5296 55.3374 60.0044 55.4425 59.5142L55.9677 57.4834C56.1778 56.6431 56.773 55.9778 57.5783 55.6277C57.8234 55.5226 58.1035 55.4526 58.3836 55.4176L59.189 54.3672L60.5895 52.4764C60.7296 52.2663 60.9046 52.0913 61.0797 51.9162C61.4298 51.5661 61.815 51.286 62.2352 51.0759C62.4452 50.9708 62.6553 50.8658 62.9004 50.7958C63.3556 50.6557 63.8108 50.5507 64.301 50.5507C64.7912 50.5157 65.2814 50.5857 65.7715 50.7257L71.1287 52.1613C71.6189 52.3014 72.074 52.4764 72.4942 52.7215C73.7547 53.4918 74.56 54.8224 74.7351 56.2929L75.0152 58.6389L75.1552 59.9694C75.6104 60.2845 75.9606 60.7397 76.1356 61.2649C76.4508 61.7901 76.4508 62.3853 76.3107 62.9456ZM59.6091 57.7285C58.9088 57.4834 58.1736 57.8686 57.9285 58.5688C57.9285 58.6038 57.8934 58.6739 57.8934 58.7089C57.6483 59.4092 58.0335 60.1444 58.7338 60.3895C58.7688 60.3895 58.8388 60.4246 58.8738 60.4246C59.6792 60.6346 60.8696 61.0898 61.0797 60.2845C61.2898 59.4792 60.4144 57.9386 59.6091 57.7285ZM72.3191 58.954L72.039 56.6081C72.004 56.398 71.934 56.1879 71.864 56.0128C71.6189 55.4176 71.0936 54.9974 70.4984 54.8574L65.1063 53.4218C64.266 53.2117 63.3906 53.4918 62.8654 54.1921L61.4649 56.0828L68.9928 58.1136L72.3191 58.954ZM73.1244 61.3349C72.3191 61.1248 70.7785 62.0002 70.5684 62.8055C70.3584 63.6108 71.6189 63.8209 72.4242 64.031C73.1595 64.3111 73.9648 63.9259 74.2099 63.1906C74.455 62.4554 74.1048 61.65 73.3695 61.4049C73.2995 61.3699 73.1945 61.3699 73.1244 61.3349Z" fill="#1A1A1A"/>
<path d="M54.6723 57.1333L54.1121 59.1641C53.9721 59.6543 53.9371 60.1795 54.0071 60.6697L52.4665 61.9302C52.2914 62.0702 52.0463 62.0352 51.9063 61.8601C51.8362 61.7551 51.8012 61.6501 51.8362 61.545L52.5015 58.1837C52.5365 57.9736 52.3964 57.7635 52.1864 57.7285H52.1513L48.755 57.4134C48.5449 57.3784 48.3699 57.2033 48.4049 56.9932C48.4049 56.8882 48.4749 56.7831 48.5799 56.7131L51.4161 54.8224C51.5911 54.6823 51.6612 54.4372 51.5211 54.2621C51.5211 54.2621 51.5211 54.2271 51.4861 54.2271L49.3152 51.6011C49.1752 51.426 49.2102 51.1809 49.3853 51.0409C49.4903 50.9708 49.5953 50.9358 49.7004 50.9708L53.0617 51.6361C53.2718 51.6711 53.4819 51.5311 53.5169 51.321V51.286L53.832 47.8546C53.867 47.6445 54.0421 47.4695 54.2522 47.5045C54.3572 47.5045 54.4623 47.5745 54.5323 47.6796L56.423 50.5157C56.5281 50.6907 56.7732 50.7608 56.9833 50.6207C56.9833 50.6207 57.0183 50.6207 57.0183 50.5857L59.6443 48.4148C59.8194 48.2748 60.0645 48.3098 60.2045 48.4849C60.2745 48.5899 60.3096 48.695 60.2745 48.8L59.7844 51.251C59.6793 51.391 59.5393 51.5311 59.4342 51.6711L58.0337 53.5619L57.5785 54.1921C56.2129 54.5423 55.0575 55.6977 54.6723 57.1333Z" fill="#FFAD00"/>
</g>
</g>
<defs>
<filter id="filter0_d_928_1214" x="0.400391" y="0.5" width="124" height="124" filterUnits="userSpaceOnUse" color-interpolation-filters="sRGB">
<feFlood flood-opacity="0" result="BackgroundImageFix"/>
<feColorMatrix in="SourceAlpha" type="matrix" values="0 0 0 0 0 0 0 0 0 0 0 0 0 0 0 0 0 0 127 0" result="hardAlpha"/>
<feOffset dy="4"/>
<feGaussianBlur stdDeviation="12.5"/>
<feComposite in2="hardAlpha" operator="out"/>
<feColorMatrix type="matrix" values="0 0 0 0 0 0 0 0 0 0 0 0 0 0 0 0 0 0 0.05 0"/>
<feBlend mode="normal" in2="BackgroundImageFix" result="effect1_dropShadow_928_1214"/>
<feBlend mode="normal" in="SourceGraphic" in2="effect1_dropShadow_928_1214" result="shape"/>
</filter>
<clipPath id="clip0_928_1214">
<rect width="28" height="28" fill="white" transform="translate(48.4004 44.5)"/>
</clipPath>
</defs>
</svg>
