<svg width="125" height="125" viewBox="0 0 125 125" fill="none" xmlns="http://www.w3.org/2000/svg">
<g filter="url(#filter0_d_928_1188)">
<rect x="25.9004" y="21.5" width="74" height="74" rx="37" fill="white" shape-rendering="crispEdges"/>
<g clip-path="url(#clip0_928_1188)">
<path d="M72.0168 45.8022H71.04V47.7558C71.04 48.4466 70.7656 49.1091 70.2771 49.5975C69.7886 50.086 69.1261 50.3604 68.4353 50.3604H57.3654C56.6746 50.3604 56.0121 50.086 55.5236 49.5975C55.0352 49.1091 54.7607 48.4466 54.7607 47.7558V45.8022H53.784C53.1806 45.8057 52.6029 46.0469 52.1762 46.4736C51.7495 46.9002 51.5083 47.4779 51.5049 48.0813V70.2211C51.5083 70.8245 51.7495 71.4023 52.1762 71.8289C52.6029 72.2556 53.1806 72.4968 53.784 72.5002H72.0168C72.6202 72.4968 73.1979 72.2556 73.6245 71.8289C74.0512 71.4023 74.2924 70.8245 74.2958 70.2211V48.0813C74.2924 47.4779 74.0512 46.9002 73.6245 46.4736C73.1979 46.0469 72.6202 45.8057 72.0168 45.8022ZM67.5237 58.8257L62.6399 64.035C62.4502 64.2258 62.1926 64.3335 61.9236 64.3346C61.6831 64.3374 61.4504 64.249 61.2724 64.0871L58.3422 61.4824C58.2451 61.3991 58.1659 61.2971 58.1092 61.1825C58.0526 61.0679 58.0196 60.943 58.0123 60.8153C58.005 60.6877 58.0235 60.5598 58.0668 60.4395C58.11 60.3192 58.1771 60.2088 58.264 60.115C58.4237 59.9089 58.6583 59.7741 58.9168 59.74C59.1753 59.7059 59.4368 59.7751 59.6445 59.9326L61.8585 61.9122L66.0911 57.4191C66.2742 57.2362 66.5225 57.1335 66.7813 57.1335C67.0402 57.1335 67.2884 57.2362 67.4716 57.4191C67.6501 57.5937 67.7549 57.83 67.7646 58.0795C67.7743 58.3289 67.6881 58.5726 67.5237 58.7605V58.8257Z" fill="#1A1A1A"/>
<path d="M68.1101 44.5H57.6914C56.7923 44.5 56.0635 45.2288 56.0635 46.1279V47.4303C56.0635 48.3293 56.7923 49.0582 57.6914 49.0582H68.1101C69.0092 49.0582 69.7381 48.3293 69.7381 47.4303V46.1279C69.7381 45.2288 69.0092 44.5 68.1101 44.5Z" fill="#FFAD00"/>
</g>
</g>
<defs>
<filter id="filter0_d_928_1188" x="0.900391" y="0.5" width="124" height="124" filterUnits="userSpaceOnUse" color-interpolation-filters="sRGB">
<feFlood flood-opacity="0" result="BackgroundImageFix"/>
<feColorMatrix in="SourceAlpha" type="matrix" values="0 0 0 0 0 0 0 0 0 0 0 0 0 0 0 0 0 0 127 0" result="hardAlpha"/>
<feOffset dy="4"/>
<feGaussianBlur stdDeviation="12.5"/>
<feComposite in2="hardAlpha" operator="out"/>
<feColorMatrix type="matrix" values="0 0 0 0 0 0 0 0 0 0 0 0 0 0 0 0 0 0 0.05 0"/>
<feBlend mode="normal" in2="BackgroundImageFix" result="effect1_dropShadow_928_1188"/>
<feBlend mode="normal" in="SourceGraphic" in2="effect1_dropShadow_928_1188" result="shape"/>
</filter>
<clipPath id="clip0_928_1188">
<rect width="28" height="28" fill="white" transform="translate(48.9004 44.5)"/>
</clipPath>
</defs>
</svg>
