<svg width="125" height="125" viewBox="0 0 125 125" fill="none" xmlns="http://www.w3.org/2000/svg">
<g filter="url(#filter0_d_928_1927)">
<rect x="25.9004" y="21.5" width="74" height="74" rx="37" fill="white" shape-rendering="crispEdges"/>
<g clip-path="url(#clip0_928_1927)">
<path d="M74.448 62.7291L73.0853 62.0186C73.0999 61.9407 73.1097 61.858 73.1243 61.7801H69.0899C69.0087 62.1104 68.903 62.4341 68.7735 62.7486C66.4337 68.426 58.104 67.7194 56.7238 61.7797H52.6845C52.6991 61.8575 52.7088 61.9403 52.7234 62.0181L51.3608 62.7286C51.2528 62.7849 51.1699 62.8796 51.1284 62.9941C51.0869 63.1085 51.09 63.2344 51.1369 63.3467L52.446 66.5051C52.4936 66.6175 52.5812 66.7081 52.6918 66.7593C52.8025 66.8106 52.9282 66.8189 53.0446 66.7825L54.5046 66.3202C55.1655 67.248 55.9783 68.0575 56.9087 68.7146L56.4415 70.1799C56.4052 70.2963 56.4134 70.4221 56.4647 70.5327C56.516 70.6434 56.6066 70.731 56.7189 70.7785L59.8774 72.0876C59.9902 72.1362 60.1173 72.1401 60.233 72.0986C60.3486 72.057 60.4442 71.9731 60.5003 71.8638L61.2059 70.5011C62.3303 70.6909 63.4785 70.6909 64.6028 70.5011L65.3085 71.8638C65.3653 71.9724 65.4609 72.0558 65.5763 72.0972C65.6917 72.1387 65.8184 72.1353 65.9314 72.0876L69.0899 70.7785C69.2022 70.731 69.2928 70.6434 69.3441 70.5327C69.3953 70.4221 69.4036 70.2963 69.3672 70.1799L68.9001 68.7199C69.828 68.0596 70.639 67.2487 71.2993 66.3207L72.7641 66.783C72.8806 66.8194 73.0063 66.8111 73.117 66.7598C73.2276 66.7086 73.3152 66.6179 73.3627 66.5056L74.6719 63.3472C74.7188 63.2349 74.7218 63.109 74.6804 62.9945C74.6389 62.8801 74.556 62.7854 74.448 62.7291ZM52.5969 60.802C52.7001 60.8127 73.1058 60.8097 73.2119 60.802C73.671 60.7818 74.1042 60.5836 74.4196 60.2494C74.735 59.9152 74.9079 59.4713 74.9016 59.0118C74.8952 58.5523 74.7102 58.1133 74.3857 57.7879C74.0612 57.4625 73.6227 57.2763 73.1632 57.2688H52.6456C52.177 57.2623 51.7251 57.4423 51.3893 57.769C51.0534 58.0957 50.8611 58.5425 50.8547 59.011C50.8482 59.4796 51.0281 59.9315 51.3549 60.2673C51.6816 60.6032 52.1284 60.7955 52.5969 60.802ZM60.2472 56.2955C61.8225 56.294 63.9911 56.296 65.5664 56.2955H73.1632C73.3216 56.2953 73.4796 56.31 73.6353 56.3393C73.5243 54.2805 72.8241 52.297 71.6179 50.6249C70.4117 48.9528 68.7504 47.6626 66.8317 46.9078L66.7685 47.6621L66.1115 54.8379C66.0937 54.9614 66.0292 55.0732 65.9313 55.1505C65.8334 55.2278 65.7096 55.2645 65.5855 55.2531C65.4613 55.2418 65.3462 55.1832 65.264 55.0894C65.1817 54.9957 65.1386 54.874 65.1435 54.7494L65.8 47.5745L65.8682 46.8056C65.8893 46.5609 65.8596 46.3144 65.7808 46.0817C65.702 45.8491 65.5759 45.6353 65.4104 45.4538C65.2449 45.2723 65.0436 45.127 64.8192 45.0271C64.5947 44.9273 64.3521 44.875 64.1064 44.8735H61.7023C61.4568 44.8753 61.2143 44.9278 60.99 45.0277C60.7657 45.1277 60.5645 45.2729 60.3991 45.4544C60.2336 45.6358 60.1075 45.8495 60.0286 46.0821C59.9497 46.3146 59.9197 46.5609 59.9406 46.8056C59.9431 46.8971 60.6341 54.3921 60.6653 54.7498C60.6715 54.8753 60.6291 54.9983 60.5468 55.0932C60.4644 55.188 60.3486 55.2474 60.2235 55.2588C60.0985 55.2703 59.9738 55.2329 59.8756 55.1545C59.7775 55.0762 59.7134 54.9629 59.6968 54.8384C59.6715 54.5761 58.9678 46.863 58.9717 46.9126C57.0492 47.6575 55.3842 48.9441 54.1784 50.6165C52.9726 52.2888 52.2778 54.2751 52.1784 56.3344C52.3329 56.3094 52.4891 56.2964 52.6456 56.2955H60.2472Z" fill="#FFAD00"/>
<path d="M52.5969 60.802C52.7001 60.8127 73.1058 60.8097 73.2119 60.802C73.671 60.7818 74.1042 60.5835 74.4196 60.2494C74.735 59.9152 74.9079 59.4713 74.9016 59.0118C74.8952 58.5523 74.7102 58.1133 74.3857 57.7879C74.0612 57.4625 73.6227 57.2763 73.1632 57.2688H52.6456C52.177 57.2623 51.7251 57.4423 51.3893 57.769C51.0534 58.0957 50.8611 58.5425 50.8547 59.011C50.8482 59.4796 51.0281 59.9315 51.3549 60.2673C51.6816 60.6032 52.1284 60.7955 52.5969 60.802ZM60.2472 56.2955C61.8225 56.294 63.9911 56.296 65.5664 56.2955H73.1632C73.3216 56.2953 73.4796 56.31 73.6353 56.3393C73.5243 54.2805 72.8241 52.297 71.6179 50.6249C70.4117 48.9528 68.7504 47.6626 66.8317 46.9078L66.7685 47.6621L66.1115 54.8379C66.0937 54.9613 66.0292 55.0732 65.9313 55.1505C65.8334 55.2278 65.7096 55.2645 65.5855 55.2531C65.4613 55.2418 65.3462 55.1832 65.264 55.0894C65.1817 54.9957 65.1386 54.874 65.1435 54.7493L65.8 47.5745L65.8682 46.8056C65.8893 46.5609 65.8596 46.3144 65.7808 46.0817C65.702 45.8491 65.5759 45.6353 65.4104 45.4538C65.2449 45.2723 65.0436 45.127 64.8192 45.0271C64.5947 44.9273 64.3521 44.875 64.1064 44.8735H61.7023C61.4568 44.8753 61.2143 44.9278 60.99 45.0277C60.7657 45.1277 60.5645 45.2729 60.3991 45.4544C60.2336 45.6358 60.1075 45.8495 60.0286 46.0821C59.9497 46.3146 59.9197 46.5609 59.9406 46.8056C59.9431 46.8971 60.6341 54.3921 60.6653 54.7498C60.6715 54.8753 60.6291 54.9983 60.5468 55.0932C60.4644 55.188 60.3486 55.2474 60.2235 55.2588C60.0985 55.2703 59.9738 55.2329 59.8756 55.1545C59.7775 55.0762 59.7134 54.9629 59.6968 54.8384C59.6715 54.5761 58.9678 46.863 58.9717 46.9126C57.0492 47.6575 55.3842 48.9441 54.1784 50.6165C52.9726 52.2888 52.2778 54.2751 52.1784 56.3344C52.3329 56.3094 52.4891 56.2963 52.6456 56.2955H60.2472Z" fill="#1A1A1A"/>
</g>
</g>
<defs>
<filter id="filter0_d_928_1927" x="0.900391" y="0.5" width="124" height="124" filterUnits="userSpaceOnUse" color-interpolation-filters="sRGB">
<feFlood flood-opacity="0" result="BackgroundImageFix"/>
<feColorMatrix in="SourceAlpha" type="matrix" values="0 0 0 0 0 0 0 0 0 0 0 0 0 0 0 0 0 0 127 0" result="hardAlpha"/>
<feOffset dy="4"/>
<feGaussianBlur stdDeviation="12.5"/>
<feComposite in2="hardAlpha" operator="out"/>
<feColorMatrix type="matrix" values="0 0 0 0 0 0 0 0 0 0 0 0 0 0 0 0 0 0 0.05 0"/>
<feBlend mode="normal" in2="BackgroundImageFix" result="effect1_dropShadow_928_1927"/>
<feBlend mode="normal" in="SourceGraphic" in2="effect1_dropShadow_928_1927" result="shape"/>
</filter>
<clipPath id="clip0_928_1927">
<rect width="28" height="28" fill="white" transform="translate(48.9004 44.5)"/>
</clipPath>
</defs>
</svg>
