<svg width="27" height="27" viewBox="0 0 27 27" fill="none" xmlns="http://www.w3.org/2000/svg">
<path d="M13.5 26.7949C20.6797 26.7949 26.5 20.9746 26.5 13.7949C26.5 6.61522 20.6797 0.794922 13.5 0.794922C6.3203 0.794922 0.5 6.61522 0.5 13.7949C0.5 20.9746 6.3203 26.7949 13.5 26.7949Z" fill="#3D9635"/>
<path d="M4.32348 8.36441C4.28042 9.03635 4.22517 10.225 4.72973 10.3453C5.34317 10.4087 5.00517 9.17447 5.22617 8.95022C5.26842 8.84135 5.34642 8.84135 5.35211 8.97866V10.03C5.34357 10.1417 5.37371 10.2529 5.43748 10.3449C5.50126 10.4369 5.59477 10.5042 5.7023 10.5354C5.8648 10.5232 5.97042 10.5289 6.03298 10.7077C6.06007 11.3105 6.08525 11.9134 6.10855 12.5163C6.10855 12.5163 6.48311 12.6422 6.50098 11.4998C6.46356 11.0475 6.4519 10.5934 6.46605 10.1397C6.46605 10.013 6.6123 10.0016 6.7163 10.0707C6.8788 10.1974 6.94867 10.3518 7.1973 10.2892C7.57755 10.1682 7.80342 9.96422 7.80992 9.63435C7.80056 9.31553 7.74304 8.99996 7.6393 8.69835C7.65555 8.64066 7.56373 8.49766 7.58323 8.43997C7.65067 8.56104 7.75305 8.54885 7.7758 8.43997C7.73888 8.21765 7.62359 8.0159 7.4508 7.87122C7.31592 7.73879 7.11686 7.76722 7.04455 8.04916C7.03696 8.40888 7.14646 8.76132 7.35655 9.05341C7.42134 9.21354 7.44777 9.38661 7.43373 9.55879C7.38323 9.59009 7.32248 9.60039 7.26448 9.58748C7.20648 9.57457 7.15583 9.53949 7.12336 9.48972C7.12336 9.48972 6.81786 9.23135 6.81786 9.18016C6.89181 8.91301 6.88303 8.62972 6.79267 8.36766C6.75897 8.21033 6.69131 8.06225 6.59442 7.93379C6.51967 7.83629 6.4173 7.83629 6.36855 7.93379C6.26106 8.28322 6.26961 8.65806 6.39292 9.00222C6.46036 9.23135 6.56923 9.37516 6.51967 9.37516C6.47742 9.5076 6.3913 9.47266 6.32955 9.32316C6.25531 9.00139 6.22012 8.67185 6.22473 8.34166C6.1963 8.08329 6.16542 7.52916 6.01511 7.3886C5.9233 7.25047 5.78517 7.31954 5.73642 7.45197C5.72472 7.70066 5.72988 7.94986 5.75186 8.19785C5.84179 8.59502 5.9045 8.99788 5.93955 9.4036C5.95255 9.97235 5.64867 9.64735 5.66167 9.36379C5.72657 9.00452 5.72299 8.63622 5.65111 8.27829C5.60155 8.1296 5.54305 8.09466 5.42036 8.12391C5.32286 8.11172 5.07667 8.41641 5.00761 8.92179C4.97147 9.08483 4.94434 9.24975 4.92636 9.41579C4.89061 9.67416 4.73867 9.85779 4.63223 9.37516C4.53798 9.02497 4.48273 8.16372 4.32836 8.36441" fill="white"/>
<path d="M5.99304 11.1203C5.4511 11.425 4.9246 11.7004 4.3916 11.9872C4.48157 11.6998 4.64637 11.4415 4.86911 11.2387C5.09184 11.036 5.36449 10.8961 5.6591 10.8335C5.9841 10.8449 5.90285 10.9773 5.99304 11.1203Z" fill="white"/>
<path d="M8.03459 7.31942C7.99923 7.32671 7.96487 7.33817 7.93221 7.35355C7.84932 7.38232 7.78074 7.44199 7.74077 7.5201C7.70081 7.59821 7.69255 7.68874 7.71771 7.7728C7.87209 8.82905 7.9704 9.63342 8.12396 10.684C8.15077 10.8107 8.05652 10.9716 7.93871 10.9602C7.7364 10.805 7.68602 10.489 7.34152 10.506C7.19605 10.5355 7.06326 10.6092 6.96142 10.7172C6.85957 10.8251 6.79367 10.962 6.77277 11.1089C6.72639 11.3362 6.72639 11.5706 6.77277 11.7979C6.83406 11.8867 6.92429 11.9515 7.02803 11.9811C7.13176 12.0107 7.24258 12.0034 7.34152 11.9604C7.49265 11.8914 7.61859 11.7167 7.67221 11.7597C7.70552 11.8288 7.66734 12.3797 6.95884 12.7989C6.5209 13.0167 6.17477 13.0744 5.98384 12.6722C5.87009 12.4203 5.99277 11.4664 5.70921 11.685C4.86584 14.1306 7.68277 14.4751 7.99884 11.7882C8.01915 11.7134 8.08009 11.6387 8.1264 11.6565C8.14752 11.6679 8.16215 11.6964 8.16702 11.754C8.10202 14.1826 5.98871 14.3435 5.6304 13.5854C5.54355 13.3204 5.50073 13.0429 5.50365 12.764C5.50333 12.6674 5.47325 12.5732 5.41752 12.4942C5.3314 12.426 5.21684 12.6153 5.19084 12.9427C5.16499 13.1366 5.15656 13.3324 5.16565 13.5277C5.27777 15.4574 7.99965 14.6303 8.44409 13.0402C8.53172 12.5388 8.55628 12.0284 8.51721 11.5209H8.52615L8.53265 11.5152C8.80809 11.8402 9.18265 11.555 9.26796 11.4461C9.27692 11.4299 9.28961 11.416 9.30498 11.4056C9.32036 11.3953 9.33798 11.3887 9.35639 11.3865C9.3748 11.3842 9.39347 11.3864 9.41087 11.3928C9.42827 11.3993 9.4439 11.4097 9.45646 11.4234C9.50955 11.4659 9.57228 11.4947 9.63912 11.5072C9.70596 11.5197 9.77486 11.5156 9.83974 11.4952C9.90461 11.4748 9.96347 11.4388 10.0111 11.3902C10.0588 11.3417 10.0937 11.2822 10.113 11.217C10.1608 10.9145 10.1914 10.6096 10.2048 10.3037C10.098 10.327 9.99774 10.3739 9.91146 10.441C9.90001 10.4542 9.89242 10.4702 9.88952 10.4874C9.87896 10.5686 9.86759 10.6596 9.85459 10.7457C9.85307 10.7534 9.85118 10.761 9.8489 10.7685C9.84244 10.7788 9.83312 10.787 9.82209 10.792C9.80907 10.8009 9.79394 10.8061 9.77825 10.8071C9.76256 10.8081 9.74688 10.805 9.73282 10.7979C9.71875 10.7909 9.70681 10.7803 9.69823 10.7671C9.68964 10.7539 9.68472 10.7387 9.68396 10.723C9.61977 10.398 9.35165 10.3435 9.18834 10.8603C9.07621 10.9643 8.87959 10.9814 8.85765 10.8375C8.88609 10.4874 8.75934 10.441 8.51071 10.6019C8.42946 9.91292 8.34821 9.25886 8.26696 8.57067C8.37259 8.57067 8.46521 8.6568 8.5619 8.52436C8.47457 8.1163 8.32611 7.72376 8.12152 7.36005C8.11547 7.35184 8.10896 7.34397 8.10202 7.33648C8.10029 7.33635 8.09861 7.33575 8.09718 7.33475C8.09576 7.33375 8.09462 7.33239 8.0939 7.3308H8.08415C8.07927 7.32511 8.07115 7.32511 8.07034 7.31942C8.05734 7.31942 8.04596 7.31373 8.03459 7.31942ZM7.27734 11.0919C7.31041 11.0888 7.34352 11.0974 7.37085 11.1163C7.39819 11.1351 7.41801 11.163 7.42684 11.195C7.43677 11.2259 7.43915 11.2587 7.43378 11.2906C7.42841 11.3226 7.41544 11.3528 7.39596 11.3787C7.37402 11.4193 7.30252 11.4022 7.2489 11.4022C7.22183 11.4048 7.19464 11.399 7.17097 11.3856C7.1473 11.3722 7.12828 11.352 7.11646 11.3275C7.09696 11.2641 7.15059 11.2007 7.17659 11.1495C7.20259 11.0984 7.18146 11.1382 7.18552 11.1325C7.21198 11.111 7.24367 11.097 7.27734 11.0919Z" fill="white"/>
<path d="M9.93181 7.26133C9.86525 7.26783 9.80063 7.28744 9.74168 7.31902C9.67336 7.39078 9.63048 7.48298 9.61962 7.58146C9.60875 7.67995 9.63051 7.77928 9.68156 7.8642C9.78881 7.9162 9.89606 8.04295 9.82293 8.10795C9.52231 8.47033 8.73337 9.08295 8.69355 9.19345V9.20483H8.70006C8.89458 9.23807 9.09317 9.23999 9.28831 9.21052V9.20483C9.64361 8.86526 9.96976 8.49644 10.2633 8.10227C10.2235 8.06245 10.1821 8.0332 10.1422 7.99339C10.1328 7.98578 10.1251 7.97613 10.1198 7.96516C10.1146 7.95419 10.1118 7.94218 10.1118 7.93002C10.1118 7.91785 10.1146 7.90584 10.1198 7.89487C10.1251 7.8839 10.1328 7.87425 10.1422 7.86664C10.2188 7.79747 10.2652 7.70101 10.2714 7.59801C10.2777 7.495 10.2432 7.39366 10.1756 7.31577C10.101 7.27523 10.0164 7.25717 9.93181 7.26377M9.89443 7.57983C9.94399 7.57414 10.0017 7.63183 10.0309 7.70008C10.0602 7.76833 10.0464 7.84958 9.99762 7.86664C9.94887 7.8837 9.88143 7.82683 9.84893 7.75208C9.81643 7.67733 9.8343 7.59689 9.88549 7.58552C9.88549 7.58552 9.88549 7.57983 9.89443 7.57983ZM4.44743 12.8546C4.31209 13.093 4.22776 13.357 4.19978 13.6297C4.17181 13.9024 4.2008 14.178 4.28493 14.439C4.32178 14.4925 4.37427 14.5333 4.4352 14.5558C4.49614 14.5784 4.56256 14.5815 4.62537 14.5649C4.81306 14.4731 4.89756 14.0425 4.85124 13.8881C4.78868 13.7727 4.73912 13.7556 4.67493 13.8531C4.54412 14.1521 4.48806 13.945 4.47587 13.7719C4.46068 13.4881 4.47265 13.2035 4.51162 12.922C4.54493 12.6872 4.51162 12.7555 4.44581 12.8538M17.2979 11.9933C17.0087 11.2865 16.6057 10.5918 16.4781 10.3277C16.3506 10.0636 15.3829 8.48495 15.2399 8.30133C14.9246 7.88208 15.7501 8.47927 15.1351 7.64077C14.9027 7.41652 14.8913 7.40514 14.6906 7.22152C14.5964 7.14027 14.3534 7.00377 14.3144 7.23289C14.2923 7.39938 14.2991 7.56845 14.3347 7.73258C14.3959 7.88482 14.478 8.02783 14.5785 8.15752C15.6132 9.69603 16.5131 11.3211 17.2679 13.0146C17.4011 12.9464 17.3727 12.1136 17.2939 11.9933" fill="white"/>
<path d="M16.0242 14.3476C15.9649 14.4167 16.1632 14.732 16.4224 14.7263C16.8522 14.6751 17.2349 14.4013 17.5826 13.6814C17.7275 13.4355 17.818 13.1616 17.8483 12.8778C17.8917 11.5173 17.7945 10.1559 17.5582 8.81533C17.5432 8.72184 17.5468 8.6263 17.5688 8.5342C17.5964 8.49439 17.6915 8.5342 17.741 8.44239C17.8166 8.35626 17.5469 7.65589 17.3933 7.38614C17.3389 7.26508 17.3194 7.18545 17.2308 7.39751C17.1209 7.63864 17.0692 7.90218 17.0797 8.16695C17.2852 9.76351 17.3478 11.1732 17.4859 12.7657C17.5089 12.9297 17.4732 13.0967 17.3852 13.237C17.02 13.7036 16.5564 14.0839 16.0275 14.3509M20.961 16.6811C20.6498 16.8826 20.6498 17.1174 20.9025 17.1231C21.1596 17.1293 21.4138 17.0685 21.6403 16.9467C21.8668 16.8249 22.0578 16.6463 22.1944 16.4285C22.318 16.1458 22.3887 15.8429 22.4032 15.5347C22.4615 14.0665 22.3832 12.596 22.1692 11.1423C22.1417 11.0062 22.1273 10.8677 22.1261 10.7288C22.1554 10.654 22.2943 10.7401 22.3414 10.6475C22.4178 10.5663 21.9815 9.93008 21.8255 9.66033C21.7735 9.53926 21.754 9.45883 21.663 9.67739C21.5604 9.91809 21.5294 10.1833 21.5736 10.4411C21.8046 12.0861 21.9489 13.7421 22.0059 15.4023C21.9949 15.5408 21.966 15.6774 21.9197 15.8085C21.8015 16.0102 21.66 16.1973 21.498 16.3659C21.355 16.4805 21.056 16.595 20.9594 16.6811" fill="white"/>
<path d="M22.0746 12.7802C22.0697 12.374 22.0851 12.0222 22.0697 11.7175C22.0543 11.4128 21.9332 10.2761 21.895 10.0356C21.8568 9.79511 21.8089 9.42136 21.7504 9.12804C21.7163 8.95786 21.6984 8.78485 21.6968 8.61129C21.7195 8.53004 21.8195 8.61698 21.8641 8.51948C21.813 8.07215 21.675 7.63911 21.4579 7.24467C21.4018 7.12442 21.2954 7.16342 21.1662 7.36004C21.0427 7.48598 21.085 7.77279 21.1345 8.04904C21.4727 9.84528 21.637 11.6699 21.6253 13.4977C21.6074 13.6415 22.0795 13.0557 22.0746 12.7802ZM19.7923 10.5288C19.5965 10.5231 19.1886 10.1039 19.07 9.85767C19.0343 9.73801 19.0423 9.60955 19.0927 9.49529C19.165 9.44411 19.2763 9.38073 19.3584 9.44411C19.3584 9.44411 19.4445 9.57573 19.4283 9.59361C19.5339 9.65048 19.5802 9.61636 19.5908 9.56436C19.5973 9.48311 19.5575 9.43273 19.5575 9.34092C19.6021 9.08254 19.8613 9.04761 19.9637 9.20848C20.0336 9.34748 20.0708 9.5006 20.0726 9.65617C20.0726 9.73092 19.9661 9.64479 19.9101 9.66186C19.854 9.67892 19.8361 9.75448 19.8288 9.82436C19.8117 10.0594 19.8005 10.2948 19.7955 10.5304M16.1994 13.2336C16.2546 12.6762 16.1815 11.5509 16.1766 11.2243C16.1588 10.4549 16.0442 8.96717 15.993 8.72017C15.9313 8.24973 16.1628 8.77217 16.1295 8.49673C16.0275 8.05598 15.8309 7.64264 15.5535 7.28529C15.4673 7.14717 15.4722 7.11873 15.3341 7.31942C15.2462 7.6281 15.2524 7.95598 15.352 8.26111C15.5377 9.16239 15.6588 10.0758 15.7143 10.9944C15.773 11.9618 15.7804 12.9317 15.7363 13.8999C15.8833 13.8999 16.1181 13.6301 16.1994 13.2336Z" fill="white"/>
<path d="M22.7388 12.3442C22.3984 11.6942 21.8784 10.9369 21.7411 10.6786C21.6038 10.4202 20.4305 8.49131 20.2843 8.32231C19.8553 7.82262 20.4809 8.24106 20.203 7.84537C20.0535 7.64468 19.8836 7.46006 19.696 7.2945C19.5961 7.22544 19.5335 7.08162 19.501 7.31725C19.4833 7.52719 19.4781 7.73801 19.4856 7.94856C19.5081 8.09127 19.5669 8.22581 19.6562 8.33937C20.8146 9.92888 21.8436 11.6088 22.7331 13.3631C22.8631 13.2948 22.8184 12.462 22.738 12.3474M18.5845 18.494C18.5241 18.5122 18.47 18.547 18.4284 18.5944C18.3868 18.6419 18.3594 18.7001 18.3494 18.7624C18.3393 18.8246 18.3469 18.8885 18.3714 18.9466C18.3959 19.0048 18.4362 19.0549 18.4878 19.0912C15.2825 19.0912 10.3628 19.0335 9.31225 19.0335C8.71994 19.0335 6.85525 18.9522 6.82031 18.9522C7.00572 19.2351 7.26668 19.4603 7.57358 19.6023C7.88048 19.7443 8.22103 19.7975 8.55663 19.7558C9.98175 19.7558 16.5752 19.7387 18.4496 19.7387C18.4022 19.8665 18.3882 20.0042 18.409 20.1389C18.4297 20.2735 18.4846 20.4007 18.5683 20.5082L18.5756 20.5139C18.5766 20.5159 18.5782 20.5176 18.5803 20.5186C18.5824 20.5196 18.5847 20.52 18.5869 20.5196H18.5926C18.7178 20.5545 18.7722 20.4505 18.8161 20.3823C19.2951 20.409 19.7754 20.4071 20.2542 20.3766C20.3249 20.4911 20.3964 20.6 20.5288 20.5829C20.7628 20.5253 20.9464 20.4968 20.9546 19.963C20.9546 19.963 20.9302 19.0554 20.3988 19.1131C20.2729 19.1302 19.9211 19.1708 19.9211 19.1708C19.5148 19.1188 19.2118 19.1131 18.7535 19.0896C18.7966 19.0319 18.8697 18.7849 18.7787 18.6987C18.7636 18.6861 18.7461 18.6765 18.7273 18.6707C18.7084 18.6648 18.6886 18.6628 18.669 18.6646H18.6601C18.6601 18.6646 18.6528 18.6589 18.6503 18.6532V18.6476C18.6294 18.5972 18.6123 18.5453 18.5991 18.4924H18.5886M18.8063 19.7924C19.2711 19.8151 19.7098 19.7981 20.1794 19.8208C20.208 19.8595 20.2224 19.9069 20.2202 19.955C20.218 20.0031 20.1993 20.049 20.1673 20.0849C20.1673 20.0906 20.1608 20.0906 20.1608 20.0906H20.1478C19.9958 20.0849 19.9089 20.0849 19.7569 20.0792C19.7569 20.0678 19.7521 20.0621 19.7521 20.0507C19.7147 19.9297 19.4563 19.9419 19.3929 20.0394V20.0678C19.3914 20.0734 19.3914 20.0793 19.3929 20.0849C19.1936 20.0975 18.9935 20.0899 18.7958 20.0621C18.7381 19.9809 18.7446 19.8322 18.8153 19.7924M10.4758 7.81369C10.1646 8.81225 10.6561 9.91481 10.9958 9.81162C11.2395 9.9205 11.3963 9.39237 11.4987 8.81794C11.5686 8.65544 11.6198 8.64 11.6555 8.72044C11.6449 9.48987 11.7034 9.66212 11.8789 9.89206C11.926 9.9426 11.9828 9.9831 12.0459 10.0111C12.109 10.0392 12.1772 10.0542 12.2462 10.0552C12.3153 10.0563 12.3838 10.0434 12.4478 10.0173C12.5117 9.99124 12.5697 9.9525 12.6183 9.90344C12.6435 9.88069 12.923 9.56462 12.923 9.56462C12.9378 9.54542 12.9566 9.52968 12.9781 9.51849C12.9996 9.50731 13.0233 9.50095 13.0475 9.49987C13.0717 9.49878 13.0959 9.503 13.1183 9.51222C13.1407 9.52144 13.1609 9.53544 13.1773 9.55325C13.2675 9.64506 13.2586 9.81162 13.4552 9.9205C13.559 9.96107 13.6728 9.96912 13.7813 9.94358C13.8899 9.91804 13.9881 9.86012 14.0629 9.7775C14.1751 9.56462 14.1994 9.48987 14.2506 9.40944C14.3319 9.28919 14.4668 9.34119 14.4668 9.381C14.4546 9.45006 14.3782 9.51344 14.4278 9.63369C14.5253 9.71494 14.5472 9.66212 14.6041 9.64506C14.8023 9.53619 14.9518 9.05356 14.9518 9.05356C14.9583 8.86994 14.8706 8.887 14.8088 8.92762C14.7349 8.97881 14.7276 8.99669 14.6528 9.04787C14.5569 9.05925 14.3684 9.134 14.2774 8.97312C14.1807 8.77812 14.1808 8.50269 14.106 8.30769C14.106 8.29631 13.9817 8.003 14.0987 7.98269C14.1564 7.99406 14.2815 8.03387 14.3026 7.91362C14.366 7.79906 14.1702 7.46594 14.0378 7.30506C14.0141 7.27042 13.9826 7.24179 13.9459 7.22147C13.9092 7.20116 13.8682 7.18971 13.8263 7.18805C13.7844 7.18639 13.7427 7.19457 13.7045 7.21192C13.6663 7.22928 13.6326 7.25533 13.6063 7.288C13.5293 7.39049 13.4887 7.51572 13.4909 7.64387C13.4737 7.72708 13.474 7.81295 13.4918 7.89604C13.5095 7.97912 13.5444 8.05761 13.5941 8.1265C13.7793 8.41875 13.8648 8.76309 13.8379 9.108C13.8065 9.16428 13.7604 9.21104 13.7047 9.24335C13.6489 9.27567 13.5855 9.29235 13.521 9.29162C13.4398 9.26887 13.3016 9.22825 13.2285 8.63106C13.2458 8.16078 13.1926 7.69057 13.0709 7.236C13.0083 7.05237 12.9644 6.87444 12.8125 7.1905C12.7463 7.28997 12.7038 7.4033 12.6884 7.52176C12.6729 7.64023 12.6848 7.76067 12.7231 7.87381C12.8399 8.21493 12.8734 8.57906 12.8206 8.93575C12.7689 9.03852 12.708 9.13642 12.6386 9.22825C12.5947 9.28578 12.5301 9.32397 12.4586 9.33474C12.387 9.34551 12.314 9.328 12.2551 9.28594C12.1894 9.24884 12.1337 9.19618 12.0931 9.13257C12.0524 9.06897 12.028 8.99637 12.0219 8.92112C12.049 8.5284 12.0362 8.13395 11.9838 7.74381C11.8911 7.52525 11.7343 7.60569 11.6693 7.66906C11.3643 8.0532 11.1657 8.51076 11.0933 8.99587C11.0039 9.31681 10.9088 9.225 10.843 9.09337C10.6805 8.92681 10.6708 7.59431 10.4758 7.81287" fill="white"/>
<path d="M11.5292 9.88695C11.5292 9.89264 11.5252 9.89264 11.5203 9.89264V9.89833C11.5 9.9097 11.4732 9.95033 11.4196 9.99583C11.3741 10.0568 11.3417 10.1266 11.3244 10.2007C11.307 10.2747 11.3051 10.3516 11.3188 10.4265C11.3229 10.4557 11.4894 10.9781 11.6341 11.3511C11.7552 11.7547 11.7961 12.1781 11.7543 12.5975C11.522 13.1362 11.1326 13.5923 10.6371 13.9064C10.5648 13.9429 10.4849 13.962 10.4039 13.962C10.3229 13.962 10.243 13.9429 10.1707 13.9064V13.9007C10.126 13.8657 10.091 13.8199 10.0689 13.7676C10.0469 13.7152 10.0386 13.6581 10.0448 13.6017C10.5442 13.2942 10.9365 12.8403 11.1685 12.3017C11.2781 11.9986 11.2886 11.6686 11.1986 11.3592C11.1704 11.2024 11.1049 11.0547 11.0076 10.9286C11.0076 10.9286 11.0076 10.9286 11.0076 10.9229C11.0702 10.8888 11.2319 11.0261 11.2587 10.94C11.2117 10.6929 11.0995 10.4628 10.9337 10.2737C10.9122 10.2421 10.8838 10.2158 10.8506 10.1967C10.8175 10.1776 10.7805 10.1663 10.7423 10.1636C10.7042 10.1608 10.6659 10.1668 10.6304 10.1809C10.5949 10.1951 10.563 10.2171 10.5372 10.2453C10.4031 10.3314 10.3747 10.6361 10.4372 10.9058C10.5104 11.1008 10.7078 11.1358 10.8484 11.5371V11.5428C10.8752 11.6824 10.8668 11.8265 10.824 11.9621C10.5855 12.2939 10.3026 12.5914 9.98306 12.8461L9.97737 12.8518V12.8583H9.96844V12.8518C9.97155 12.8079 9.97155 12.764 9.96844 12.7201C9.96844 12.6056 10.0099 12.3293 10.0066 12.2781V12.2725C9.76694 12.4504 9.68162 12.9899 9.64019 13.1508C9.02935 13.5315 8.4578 13.9718 7.93394 14.4654C7.72431 14.8278 9.37287 14.0405 9.55893 13.9486C9.55893 13.9486 9.56381 13.9486 9.56625 13.9543C9.6011 14.0729 9.6505 14.1867 9.71331 14.2931C9.80954 14.4327 9.94675 14.539 10.106 14.5972C10.2652 14.6554 10.4386 14.6627 10.6022 14.6181C11.1435 14.3562 11.5921 13.9357 11.8884 13.4124C11.9371 13.3311 12.0159 13.2686 12.0866 13.3311C12.257 13.6645 12.5186 13.9426 12.841 14.1329C13.1634 14.3232 13.5332 14.418 13.9074 14.4061C14.113 14.1241 14.0163 13.9811 13.9318 13.9291C13.905 13.9064 13.4874 13.7228 13.424 13.5391C13.3842 13.3726 13.4809 13.2231 13.6816 13.1077C14.2533 13.0484 14.817 12.9271 15.3626 12.7461C15.3822 12.5197 15.4448 12.2991 15.5471 12.0961C15.5682 12.0501 15.601 12.0103 15.6421 11.9808C15.6421 11.9808 15.6421 11.9808 15.6421 11.9751V11.9694C15.6428 11.9656 15.6428 11.9618 15.6421 11.958L15.5471 11.8946L13.7206 11.8833C13.7023 11.8761 13.6851 11.8665 13.6694 11.8548V11.8207C13.6837 11.8013 13.7039 11.787 13.7271 11.7801C14.1658 11.7167 14.9393 11.5737 14.9897 10.7295C15.0031 10.6344 14.9968 10.5376 14.9713 10.445C14.9457 10.3524 14.9015 10.2661 14.8412 10.1913C14.781 10.1165 14.7061 10.0549 14.621 10.0102C14.536 9.96556 14.4428 9.93882 14.347 9.93164C14.1641 9.97086 14.0036 10.0795 13.8992 10.2347C13.7948 10.3898 13.7546 10.5795 13.7872 10.7636C13.7717 10.8733 13.8229 11.0968 13.7206 11.1195C13.0478 11.1943 12.3149 11.6655 12.2881 12.0043H12.2792L12.2743 12.01H12.2654L12.2572 12.0043C12.2229 11.9831 12.1959 11.9519 12.1799 11.9148C12.1639 11.8778 12.1597 11.8367 12.1679 11.7971C12.1371 11.1859 11.9797 10.5877 11.7056 10.0405C11.6129 9.93164 11.5707 9.89101 11.5431 9.88533H11.5317M14.2024 10.6377C14.2534 10.6325 14.3044 10.6467 14.3454 10.6775C14.3776 10.6938 14.4049 10.7183 14.4246 10.7486C14.4443 10.7788 14.4556 10.8137 14.4575 10.8498V10.8717L14.4461 10.8831C14.4104 10.9229 14.3324 10.9172 14.2544 10.8652C14.2243 10.8487 14.1985 10.8254 14.1791 10.7972C14.1596 10.769 14.147 10.7366 14.1422 10.7027V10.6962C14.1422 10.6848 14.1471 10.6791 14.1504 10.6791L14.1552 10.6678C14.1552 10.6621 14.1552 10.6621 14.1642 10.6564C14.1698 10.6507 14.1765 10.6463 14.1839 10.6433C14.1913 10.6404 14.1993 10.639 14.2072 10.6393M12.5083 12.3732H12.5262C12.7779 12.4266 13.0337 12.4592 13.2907 12.4707C13.5028 12.4878 13.6076 12.6714 13.4094 12.7518C13.2111 12.8323 13.0251 12.8843 13.0251 13.206C13.0519 13.2959 13.0519 13.3916 13.0251 13.4815C13.0251 13.4871 13.0202 13.4928 13.0169 13.4928V13.5042H13.0112L13.0023 13.5099C13.0018 13.5115 13.0009 13.5129 12.9995 13.5139C12.9982 13.5149 12.9967 13.5155 12.995 13.5156C12.9462 13.5213 12.8788 13.4644 12.8268 13.4408C12.687 13.3446 12.5693 13.2196 12.4819 13.0741C12.3944 12.9286 12.3392 12.7661 12.3198 12.5975C12.3174 12.5702 12.3204 12.5427 12.3286 12.5167C12.3369 12.4906 12.3503 12.4664 12.3679 12.4455C12.3856 12.4247 12.4073 12.4075 12.4317 12.3951C12.4561 12.3827 12.4827 12.3752 12.5099 12.3732M6.62744 7.82564C6.8395 7.93451 7.23356 7.88901 7.21731 7.50958C7.21567 7.4502 7.21269 7.39088 7.20837 7.33164C7.16694 7.21708 7.04587 7.23983 7.0215 7.36089C7.01256 7.39501 7.0345 7.45839 7.00525 7.48114C6.976 7.50389 6.91994 7.48683 6.924 7.38364C6.92194 7.35034 6.91006 7.31839 6.88987 7.29183C6.88356 7.28478 6.87552 7.2795 6.86654 7.27651C6.85757 7.27352 6.84796 7.27291 6.83869 7.27476C6.81025 7.28045 6.81025 7.28614 6.79725 7.31458C6.78716 7.3422 6.78167 7.3713 6.781 7.4007C6.77612 7.44051 6.7615 7.4527 6.73712 7.45839C6.71275 7.46408 6.71844 7.46408 6.69406 7.44701C6.68269 7.42914 6.66319 7.42345 6.66319 7.39501C6.66266 7.36418 6.65939 7.33346 6.65344 7.3032C6.64026 7.28612 6.62161 7.27407 6.60062 7.26908C6.48444 7.26908 6.47712 7.41776 6.48444 7.47545C6.47469 7.48683 6.47144 7.75089 6.62744 7.82564Z" fill="white"/>
<path d="M12.7991 10.7644C13.0095 10.8741 13.51 10.8107 13.3898 10.4394C13.3884 10.3799 13.3841 10.3205 13.3768 10.2614C13.3353 10.1469 13.2191 10.1753 13.1907 10.2907C13.1842 10.3305 13.207 10.3939 13.1769 10.4166C13.1468 10.4394 13.0908 10.4166 13.0956 10.3134C13.0935 10.2819 13.0816 10.2518 13.0615 10.2273C13.0554 10.2209 13.0479 10.2161 13.0396 10.2131C13.0312 10.2102 13.0224 10.2092 13.0136 10.2103C12.986 10.2159 12.986 10.2216 12.9697 10.2501C12.9608 10.278 12.9556 10.3069 12.9543 10.3362C12.9543 10.3768 12.9372 10.3882 12.912 10.3939C12.8868 10.3996 12.8941 10.3996 12.8698 10.3825C12.8454 10.3654 12.8389 10.3598 12.8389 10.3305C12.84 10.2993 12.8353 10.2682 12.8251 10.2387C12.8132 10.2211 12.7948 10.2088 12.7739 10.2046C12.6601 10.2046 12.6536 10.3533 12.6577 10.4109C12.6512 10.4166 12.6463 10.6807 12.8023 10.7611M16.3985 9.54726C16.6081 9.65613 17.0038 9.60495 16.9875 9.22226C16.9875 9.19382 16.981 9.07926 16.9786 9.04432C16.9339 8.93545 16.8161 8.95819 16.7917 9.07926C16.782 9.11338 16.8039 9.17676 16.773 9.19382C16.7576 9.21657 16.6918 9.20519 16.6918 9.09632C16.6877 9.06348 16.676 9.03204 16.6576 9.00451C16.6429 8.99876 16.627 8.9968 16.6113 8.99882C16.5837 8.99882 16.5837 9.00451 16.5666 9.03294C16.5572 9.0627 16.5518 9.09357 16.5504 9.12476C16.5504 9.1597 16.535 9.17107 16.5081 9.17676C16.4813 9.18244 16.4862 9.18244 16.4675 9.16538C16.4585 9.15992 16.451 9.15232 16.4456 9.14325C16.4402 9.13418 16.4371 9.12392 16.4366 9.11338C16.4356 9.08047 16.431 9.04778 16.4228 9.01588C16.4076 9.00465 16.3902 8.99688 16.3716 8.99313C16.2571 8.99313 16.2473 9.14182 16.2555 9.19382C16.2473 9.2052 16.2425 9.46926 16.3993 9.54401M18.2615 12.5966C18.1356 12.8052 18.059 13.0399 18.0378 13.2827C18.0165 13.5255 18.0511 13.7699 18.1388 13.9973C18.2173 14.2378 18.3778 14.4432 18.5922 14.5774C18.6238 14.6118 18.6632 14.6382 18.707 14.6544C18.7508 14.6705 18.7979 14.676 18.8443 14.6704C18.8906 14.6648 18.935 14.6482 18.9737 14.622C19.0124 14.5958 19.0443 14.5607 19.0667 14.5198C19.2812 14.2671 19.2869 13.6301 19.386 13.5033C19.4591 13.2677 19.6355 13.3083 19.7216 13.4115C19.7998 13.5336 19.9052 13.636 20.0295 13.7105C20.0703 13.7589 20.1203 13.7986 20.1767 13.8274C20.233 13.8562 20.2945 13.8735 20.3576 13.8783C20.4207 13.8831 20.4841 13.8752 20.5441 13.8552C20.6041 13.8352 20.6596 13.8034 20.7071 13.7617C20.8857 13.6485 21.0148 13.4721 21.0687 13.2677C21.1473 12.3014 21.1563 11.3306 21.0955 10.363C21.085 10.2939 20.8875 9.16863 20.8875 9.15645C20.8875 9.14426 20.8591 8.58282 20.8388 8.45038C20.8339 8.39351 20.8225 8.37563 20.8737 8.38213C20.9273 8.43901 20.9322 8.4447 20.9663 8.45607C21.02 8.46826 21.0687 8.36426 21.037 8.26676C20.8745 7.92226 20.7015 7.57207 20.5341 7.23326C20.4959 7.18207 20.4423 7.13576 20.3765 7.23894C20.3367 7.28009 20.3054 7.32869 20.2845 7.38196C20.2636 7.43523 20.2534 7.4921 20.2546 7.54932C20.27 7.79307 20.3082 8.04901 20.322 8.29601C20.3895 8.71444 20.4561 9.13938 20.5235 9.56432C20.5861 10.4662 20.6048 11.2925 20.6665 12.1944C20.681 12.5203 20.606 12.844 20.4496 13.1304C20.4496 13.1304 20.3025 13.2336 20.201 13.1247C20.0601 12.9534 19.9366 12.7686 19.8321 12.573C19.681 12.4186 19.5802 12.4584 19.473 12.573C19.2078 12.9887 18.9968 13.4365 18.8449 13.9055C18.7913 13.9973 18.6458 14.0778 18.485 13.8998C18.2725 13.5018 18.1941 13.0459 18.2615 12.5998M16.4935 7.33076C16.5964 7.41879 16.6756 7.53113 16.724 7.65756C16.7723 7.78398 16.7884 7.9205 16.7706 8.0547C16.7324 8.31307 16.6341 8.59988 16.561 8.56007C16.4878 8.52026 16.613 8.30169 16.5406 8.06607C16.496 7.91088 16.2408 7.63545 16.2676 7.54932C16.2567 7.51811 16.255 7.48442 16.2626 7.45225C16.2702 7.42007 16.2869 7.39075 16.3106 7.36776C16.3344 7.34476 16.3643 7.32906 16.3967 7.3225C16.4291 7.31594 16.4627 7.31881 16.4935 7.33076Z" fill="white"/>
<path d="M18.8693 12.8549C18.8866 12.4752 18.8733 12.0948 18.8295 11.7174C18.8181 11.4192 18.5272 8.95485 18.4655 8.72573C18.394 8.29592 18.7507 8.66885 18.7092 8.41616C18.5874 8.1001 18.281 7.63535 18.186 7.35992C18.125 7.23885 18.1502 7.13567 18.0235 7.33067C17.9123 7.67908 17.8728 8.04639 17.9073 8.41048C18.2716 10.1171 18.4654 11.8558 18.4858 13.6007C18.6312 13.6007 18.7994 13.2278 18.8725 12.8549M21.2044 10.2849C21.3807 10.3881 21.4799 10.9219 21.4612 11.0771C21.4279 11.3582 21.3369 11.6629 21.271 11.6223C21.2052 11.5817 21.2849 11.2039 21.2507 11.0885C21.2093 10.9219 20.9777 10.618 21.0013 10.5262C20.9542 10.3361 21.1037 10.2565 21.2044 10.2825M9.31266 11.8782C9.47516 11.9473 9.57266 12.3438 9.55641 12.4584C9.5231 12.6647 9.43616 12.8833 9.37441 12.8646C9.31266 12.8459 9.38904 12.5542 9.3541 12.4681C9.34191 12.256 9.11035 12.1431 9.11848 12.0545C9.0746 11.888 9.2111 11.8595 9.3151 11.8823M4.91541 7.19904C5.15916 7.28029 5.17216 7.68085 5.15916 7.80192C5.12585 8.01398 5.03891 8.24391 4.97554 8.21548C4.91216 8.18704 4.97554 7.89941 4.94141 7.80923C4.90648 7.67679 4.69766 7.45335 4.72529 7.38429C4.67816 7.24048 4.8171 7.17141 4.91785 7.20066M9.70835 9.09379C9.61294 9.16882 9.54658 9.2747 9.52064 9.39328C9.4947 9.51186 9.51079 9.63577 9.56616 9.74379C9.59821 9.79161 9.645 9.82765 9.69941 9.84643C9.75383 9.8652 9.81289 9.86568 9.8676 9.84779C10.0504 9.87623 10.1585 9.46266 10.1585 9.46266C10.1585 9.46266 10.1642 9.3481 9.94966 9.56585C9.85704 9.58941 9.84566 9.54879 9.8221 9.4911C9.80047 9.38368 9.81005 9.27231 9.84973 9.17017C9.88304 9.06617 9.81316 9.02067 9.70835 9.09542M11.1034 7.04385C11.0221 7.10992 10.9551 7.1918 10.9063 7.28453C10.8576 7.37726 10.8282 7.47892 10.8199 7.58335C10.8125 7.72148 10.789 7.72148 10.871 7.81329C10.932 7.91079 10.9921 7.89941 11.1107 7.82466C11.1412 7.80329 11.1671 7.77603 11.1869 7.7445C11.2068 7.71297 11.2201 7.67779 11.2261 7.64104C11.2554 7.47854 11.0766 7.71579 11.0522 7.53785C11.014 7.37129 11.1278 7.30791 11.2375 7.14135C11.2375 7.03248 11.2375 6.95773 11.1034 7.04385ZM12.2304 7.2681C12.1856 7.47397 12.1585 7.68326 12.1491 7.89373C12.1158 8.04891 12.2962 8.11716 12.375 7.91648C12.4562 7.69765 12.4993 7.46655 12.5025 7.23316C12.4668 6.99754 12.3238 7.00973 12.2304 7.2681ZM19.3235 11.3274C19.3495 11.3038 20.3229 10.523 20.3229 10.523C20.4228 10.4832 20.4041 10.9292 20.3562 10.9195C20.061 11.2474 19.7117 11.5222 19.3235 11.732C19.2764 11.7669 19.2276 11.4281 19.3235 11.3306M20.2132 11.3217C20.387 11.4192 20.4569 11.9814 20.4358 12.1342C20.4423 12.4332 20.2733 12.6737 20.2034 12.6395C20.1335 12.6054 20.2107 12.2666 20.1774 12.1455C20.1021 11.9626 20.0476 11.7719 20.0149 11.5768C19.9662 11.3867 20.1075 11.2835 20.2124 11.3184M14.4127 13.7559C14.4928 13.6542 14.586 13.5635 14.6898 13.4862C14.7211 13.4704 14.7568 13.4658 14.791 13.4731C14.8253 13.4803 14.856 13.499 14.8783 13.526C14.8954 13.63 14.8182 13.7332 14.8425 13.8762C14.862 13.9339 14.8783 14.0029 14.9725 13.9745C15.034 13.9201 15.1059 13.8788 15.1839 13.8531C15.2618 13.8274 15.3442 13.8179 15.4259 13.825C15.5478 13.825 15.5486 14.0541 15.4763 14.0541C15.2618 14.1131 15.0543 14.1948 14.8572 14.2979C14.8295 14.3177 14.7952 14.3259 14.7615 14.3206C14.7279 14.3152 14.6977 14.2969 14.6776 14.2694C14.6587 14.2398 14.6473 14.2061 14.6444 14.1712C14.6414 14.1362 14.6469 14.1011 14.6605 14.0687C14.6687 13.9534 14.6272 13.8908 14.5403 13.8965C14.4753 13.942 14.4192 13.9647 14.3867 13.8851C14.3754 13.8217 14.3705 13.7876 14.4127 13.7527M21.2402 14.0606C21.2678 14.089 21.2833 14.127 21.2833 14.1666C21.2833 14.2062 21.2678 14.2443 21.2402 14.2727C21.1703 14.3474 21.124 14.3815 21.0541 14.4563C21.0232 14.5197 21.0029 14.6115 21.1004 14.6399C21.2816 14.6976 21.7041 14.3962 21.7041 14.3815C21.7267 14.361 21.7426 14.3341 21.7497 14.3044C21.7568 14.2747 21.7548 14.2435 21.7439 14.215C21.7041 14.1638 21.6155 14.1922 21.5562 14.1922C21.5254 14.1922 21.4319 14.1695 21.475 14.0834C21.5062 14.0321 21.5318 13.9776 21.5514 13.9209C21.5782 13.8461 21.557 13.8006 21.4506 13.7584C21.3645 13.7441 21.2767 13.7441 21.1906 13.7584C21.128 13.7754 21.1094 13.8104 21.0947 13.8908C21.0988 14.0167 21.1687 14.011 21.2418 14.063" fill="white"/>
</svg>
