<svg width="25" height="24" viewBox="0 0 25 24" fill="none" xmlns="http://www.w3.org/2000/svg">
<path d="M15.0834 16.9517L22.1869 12.451L22.3235 12.301C22.4602 12.051 22.4146 11.7509 22.1869 11.6009L15.0834 7.10025C15.0379 7.00024 14.9468 7.00024 14.8557 7.00024C14.5825 7.00024 14.4004 7.20027 14.4004 7.50031L14.4004 16.5016C14.4004 16.6017 14.4004 16.6517 14.4459 16.7517C14.5825 17.0017 14.8557 17.0517 15.0834 16.9517Z" fill="#FFAD00"/>
<path d="M15.0834 7.04829L22.1869 11.549L22.3235 11.699C22.4602 11.949 22.4146 12.2491 22.1869 12.3991L15.0834 16.8997C15.0379 16.9998 14.9468 16.9998 14.8557 16.9998C14.5825 16.9998 14.4004 16.7997 14.4004 16.4997L14.4004 7.49836C14.4004 7.39835 14.4004 7.34834 14.4459 7.24832C14.5825 6.99829 14.8557 6.94828 15.0834 7.04829Z" fill="#FFAD00"/>
<path d="M2.40039 12C2.40039 11.4477 2.84811 11 3.40039 11H14.4004V13H3.40039C2.84811 13 2.40039 12.5523 2.40039 12Z" fill="#FFAD00"/>
</svg>
