<svg width="126" height="24" viewBox="0 0 126 24" fill="none" xmlns="http://www.w3.org/2000/svg">
<path d="M17.9636 4H20.8771L14.512 11.154L22 20.8889H16.1361L11.544 14.9847L6.28953 20.8889H3.37431L10.1824 13.2369L3 4H9.01099L13.1619 9.39665L17.9619 4H17.9636ZM16.9411 19.174H18.5555L8.13466 5.6248H6.40226L16.9411 19.174Z" fill="#1A1A1A"/>
<path d="M48 13.5H50.5L51.5 9.5H48V7.5C48 6.47 48 5.5 50 5.5H51.5V2.14C51.174 2.097 49.943 2 48.643 2C45.928 2 44 3.657 44 6.7V9.5H41V13.5H44V22H48V13.5Z" fill="#1A1A1A"/>
<path d="M74.9395 5.00002C74.9392 5.53046 74.7282 6.03906 74.353 6.41394C73.9777 6.78883 73.4689 6.99929 72.9385 6.99902C72.408 6.99876 71.8994 6.78779 71.5245 6.41253C71.1496 6.03727 70.9392 5.52846 70.9395 4.99802C70.9397 4.46759 71.1507 3.95899 71.5259 3.5841C71.9012 3.20922 72.41 2.99876 72.9405 2.99902C73.4709 2.99929 73.9795 3.21026 74.3544 3.58552C74.7293 3.96078 74.9397 4.46959 74.9395 5.00002ZM74.9995 8.48002H70.9995V21H74.9995V8.48002ZM81.3195 8.48002H77.3395V21H81.2795V14.43C81.2795 10.77 86.0495 10.43 86.0495 14.43V21H89.9995V13.07C89.9995 6.90002 82.9395 7.13002 81.2795 10.16L81.3195 8.48002Z" fill="#1A1A1A"/>
<path d="M122 4H106C104.9 4 104.01 4.9 104.01 6L104 18C104 19.1 104.9 20 106 20H122C123.1 20 124 19.1 124 18V6C124 4.9 123.1 4 122 4ZM122 8L114 13L106 8V6L114 11L122 6V8Z" fill="#1A1A1A"/>
</svg>
