<svg width="222" height="222" viewBox="0 0 222 222" fill="none" xmlns="http://www.w3.org/2000/svg">
<g filter="url(#filter0_d_998_222)">
<rect x="83" y="64" width="56" height="56" rx="28" fill="white" shape-rendering="crispEdges"/>
<path d="M101 89.734C101 94.2828 104.694 97.9705 109.25 97.9705C110.971 97.9705 112.57 97.4441 113.893 96.5441C113.787 97.007 113.801 97.489 113.933 97.9452C114.064 98.4013 114.31 98.8165 114.646 99.1521L117.033 101.535C117.562 102.052 118.275 102.34 119.015 102.336C119.756 102.332 120.465 102.037 120.989 101.514C121.513 100.991 121.809 100.283 121.813 99.5431C121.817 98.8036 121.528 98.0924 121.01 97.5639L118.624 95.1814C118.29 94.8481 117.878 94.604 117.425 94.4716C116.973 94.3392 116.494 94.3227 116.033 94.4236C116.991 93.0469 117.503 91.4102 117.5 89.734C117.5 85.1853 113.806 81.4976 109.25 81.4976C104.694 81.4976 101 85.1853 101 89.734ZM116 89.734C116 90.619 115.826 91.4953 115.486 92.3129C115.147 93.1305 114.65 93.8734 114.023 94.4992C113.396 95.125 112.652 95.6214 111.833 95.96C111.014 96.2987 110.136 96.473 109.25 96.473C108.364 96.473 107.486 96.2987 106.667 95.96C105.848 95.6214 105.104 95.125 104.477 94.4992C103.85 93.8734 103.353 93.1305 103.014 92.3129C102.675 91.4953 102.5 90.619 102.5 89.734C102.5 87.9468 103.211 86.2327 104.477 84.9689C105.743 83.7051 107.46 82.9951 109.25 82.9951C111.04 82.9951 112.757 83.7051 114.023 84.9689C115.289 86.2327 116 87.9468 116 89.734Z" fill="#1A1A1A"/>
<path fill-rule="evenodd" clip-rule="evenodd" d="M109.25 95.7242C112.564 95.7242 115.25 93.0423 115.25 89.7341C115.25 86.4258 112.564 83.7439 109.25 83.7439C105.936 83.7439 103.25 86.4258 103.25 89.7341C103.25 93.0423 105.936 95.7242 109.25 95.7242ZM111.5 88.9853C112.329 88.9853 113 88.3148 113 87.4878C113 86.6607 112.329 85.9902 111.5 85.9902C110.672 85.9902 110 86.6607 110 87.4878C110 88.3148 110.672 88.9853 111.5 88.9853Z" fill="#1A1A1A"/>
</g>
<defs>
<filter id="filter0_d_998_222" x="0" y="0" width="222" height="222" filterUnits="userSpaceOnUse" color-interpolation-filters="sRGB">
<feFlood flood-opacity="0" result="BackgroundImageFix"/>
<feColorMatrix in="SourceAlpha" type="matrix" values="0 0 0 0 0 0 0 0 0 0 0 0 0 0 0 0 0 0 127 0" result="hardAlpha"/>
<feOffset dy="19"/>
<feGaussianBlur stdDeviation="41.5"/>
<feComposite in2="hardAlpha" operator="out"/>
<feColorMatrix type="matrix" values="0 0 0 0 0 0 0 0 0 0 0 0 0 0 0 0 0 0 0.14 0"/>
<feBlend mode="normal" in2="BackgroundImageFix" result="effect1_dropShadow_998_222"/>
<feBlend mode="normal" in="SourceGraphic" in2="effect1_dropShadow_998_222" result="shape"/>
</filter>
</defs>
</svg>
