<svg width="270" height="135" viewBox="0 0 270 135" fill="none" xmlns="http://www.w3.org/2000/svg">
<path opacity="0.8" d="M267.15 2.58457C265.597 1.05251 263.417 0.306086 261.226 0.368496L261.213 0.368886L49.7806 6.62316C47.201 6.70344 44.9347 7.95023 43.4791 9.83978C43.4722 9.83997 43.4724 9.84677 43.4656 9.84696C42.3101 10.7632 41.4311 12.0383 41.0106 13.5791L0.53411 163.672C-0.448334 167.308 0.342643 171.097 2.68752 174.047C5.03259 177.004 8.55572 178.636 12.3367 178.528L59.5915 177.182L59.5901 177.135L83.395 176.456C84.3573 176.429 85.1852 175.76 85.4046 174.83L88.178 163.091L94.2865 137.275C94.9087 134.662 97.2144 132.877 99.7941 132.804C100.292 132.79 100.792 132.837 101.301 132.958C104.443 133.684 106.39 136.815 105.646 139.934L100.251 162.747L97.7401 173.391C97.4235 174.745 98.4777 176.027 99.87 175.987L131.121 175.097C132.083 175.069 132.911 174.4 133.13 173.463L135.897 161.725L139.244 147.579C139.866 144.959 142.171 143.174 144.751 143.101C145.249 143.087 145.749 143.134 146.258 143.255C149.4 143.988 151.347 147.119 150.603 150.231L147.963 161.381L145.452 172.025C145.135 173.379 146.19 174.661 147.582 174.621L172.875 173.901C177.16 173.778 181.147 172.007 184.091 168.906L255.537 93.6546C257.99 91.0572 258.509 87.2104 256.759 84.0397C255.24 81.2973 252.203 79.7259 249.057 79.8156L204.819 81.0758L267.501 14.1794C270.477 10.9964 270.552 5.94601 267.15 2.58457ZM45.9271 164.343L13.8847 165.255L42.8887 57.6892L45.9271 164.343ZM186.876 80.8396C184.595 83.269 184.013 86.7983 185.39 89.8166C186.767 92.8484 189.813 94.7388 193.15 94.6437L237.525 93.3796L174.434 159.832C173.923 160.37 173.242 160.668 172.512 160.689L159.702 161.054L161.653 152.825C162.701 148.378 161.956 143.793 159.543 139.914C157.131 136.035 153.338 133.331 148.876 132.282C147.418 131.943 145.931 131.789 144.45 131.831L144.444 131.831C136.67 132.052 130.001 137.474 128.221 145.005L124.185 162.059L111.989 162.406L116.696 142.507C118.866 133.341 113.132 124.128 103.918 121.972C102.461 121.633 100.974 121.485 99.4934 121.527L99.4865 121.527C91.7131 121.749 85.0439 127.164 83.264 134.695L76.4666 163.425L59.3159 163.914L55.2075 19.6973L249.544 13.9436L186.876 80.8328L186.876 80.8396Z" fill="#FFD67F"/>
</svg>
