<svg width="60" height="60" viewBox="0 0 60 60" fill="none" xmlns="http://www.w3.org/2000/svg">
<path fill-rule="evenodd" clip-rule="evenodd" d="M33.099 18.8269C33.5666 18.7871 34.0023 18.5733 34.3199 18.2277C34.6374 17.8821 34.8138 17.4299 34.814 16.9606C34.8158 13.8019 34.8158 7.15561 34.8158 3.90186C34.8158 3.40457 35.0134 2.92766 35.365 2.57603C35.7166 2.2244 36.1936 2.02686 36.6908 2.02686H56.8521C57.3494 2.02686 57.8263 2.2244 58.1779 2.57603C58.5295 2.92766 58.7271 3.40457 58.7271 3.90186V56.0981C58.7271 56.5954 58.5295 57.0723 58.1779 57.4239C57.8263 57.7756 57.3494 57.9731 56.8521 57.9731H36.6908C36.1936 57.9731 35.7166 57.7756 35.365 57.4239C35.0134 57.0723 34.8158 56.5954 34.8158 56.0981V44.4306C34.8165 44.2259 34.7667 44.0242 34.671 43.8433C34.5753 43.6623 34.4365 43.5078 34.2669 43.3931C34.0973 43.2785 33.9021 43.2074 33.6986 43.186C33.495 43.1646 33.2893 43.1937 33.0996 43.2706C30.1958 44.595 25.8802 48.4712 25.3133 56.2337C25.2791 56.7035 25.0683 57.1428 24.7234 57.4635C24.3784 57.7842 23.9249 57.9625 23.454 57.9625C19.0383 57.9731 7.69083 57.9731 3.14833 57.9731C2.89532 57.9733 2.64491 57.9222 2.41219 57.8229C2.17947 57.7237 1.96925 57.5783 1.79422 57.3957C1.61919 57.213 1.48296 56.9967 1.39376 56.76C1.30456 56.5232 1.26423 56.2709 1.2752 56.0181C1.80583 43.8612 5.75395 34.7562 12.309 28.7262C17.0702 24.3456 23.364 20.1956 31.5271 18.9937C31.8646 18.9437 32.4852 18.8812 33.099 18.8269Z" fill="#1A1A1A"/>
<path fill-rule="evenodd" clip-rule="evenodd" d="M45.8335 46.9189V52.5439C45.8335 52.7926 45.9323 53.031 46.1081 53.2069C46.2839 53.3827 46.5224 53.4814 46.771 53.4814C47.0196 53.4814 47.2581 53.3827 47.4339 53.2069C47.6097 53.031 47.7085 52.7926 47.7085 52.5439V46.9189C47.7085 46.6703 47.6097 46.4318 47.4339 46.256C47.2581 46.0802 47.0196 45.9814 46.771 45.9814C46.5224 45.9814 46.2839 46.0802 46.1081 46.256C45.9323 46.4318 45.8335 46.6703 45.8335 46.9189ZM45.8335 33.7939V39.4189C45.8335 39.6676 45.9323 39.906 46.1081 40.0819C46.2839 40.2577 46.5224 40.3564 46.771 40.3564C47.0196 40.3564 47.2581 40.2577 47.4339 40.0819C47.6097 39.906 47.7085 39.6676 47.7085 39.4189V33.7939C47.7085 33.5453 47.6097 33.3068 47.4339 33.131C47.2581 32.9552 47.0196 32.8564 46.771 32.8564C46.5224 32.8564 46.2839 32.9552 46.1081 33.131C45.9323 33.3068 45.8335 33.5453 45.8335 33.7939ZM45.8335 20.6689V26.2939C45.8335 26.5426 45.9323 26.781 46.1081 26.9569C46.2839 27.1327 46.5224 27.2314 46.771 27.2314C47.0196 27.2314 47.2581 27.1327 47.4339 26.9569C47.6097 26.781 47.7085 26.5426 47.7085 26.2939V20.6689C47.7085 20.4203 47.6097 20.1818 47.4339 20.006C47.2581 19.8302 47.0196 19.7314 46.771 19.7314C46.5224 19.7314 46.2839 19.8302 46.1081 20.006C45.9323 20.1818 45.8335 20.4203 45.8335 20.6689ZM45.8335 7.54395V13.1689C45.8335 13.4176 45.9323 13.656 46.1081 13.8319C46.2839 14.0077 46.5224 14.1064 46.771 14.1064C47.0196 14.1064 47.2581 14.0077 47.4339 13.8319C47.6097 13.656 47.7085 13.4176 47.7085 13.1689V7.54395C47.7085 7.2953 47.6097 7.05685 47.4339 6.88103C47.2581 6.70522 47.0196 6.60645 46.771 6.60645C46.5224 6.60645 46.2839 6.70522 46.1081 6.88103C45.9323 7.05685 45.8335 7.2953 45.8335 7.54395ZM14.5897 45.4589C13.921 47.2726 13.4183 49.1432 13.0879 51.0477C13.0491 51.2906 13.1074 51.539 13.2502 51.7393C13.3929 51.9396 13.6086 52.0758 13.8508 52.1185C14.0931 52.1613 14.3424 52.1071 14.545 51.9677C14.7477 51.8283 14.8874 51.6148 14.9341 51.3733C15.2453 49.5805 15.7183 47.8195 16.3472 46.1121C16.4314 45.8796 16.4204 45.6232 16.3164 45.3988C16.2125 45.1745 16.0241 45.0002 15.7923 44.9141C15.5605 44.8279 15.3041 44.8369 15.0789 44.9389C14.8536 45.041 14.6778 45.2279 14.5897 45.4589ZM22.3041 34.4296C20.7994 35.672 19.4477 37.0888 18.2772 38.6502C18.1374 38.8496 18.0806 39.0955 18.1188 39.336C18.157 39.5765 18.2872 39.7927 18.4819 39.9389C18.6766 40.0852 18.9205 40.15 19.1621 40.1197C19.4037 40.0893 19.6241 39.9663 19.7766 39.7764C20.8578 38.3336 22.1068 37.0244 23.4972 35.8764C23.6891 35.7182 23.8103 35.4903 23.8341 35.2427C23.8579 34.9952 23.7823 34.7483 23.6241 34.5564C23.4659 34.3646 23.2379 34.2434 22.9904 34.2196C22.7428 34.1958 22.496 34.2714 22.3041 34.4296ZM34.7391 29.1964C32.9422 29.3433 30.9935 29.7714 29.021 30.5189C28.7884 30.607 28.6004 30.7839 28.4982 31.0107C28.3961 31.2374 28.3882 31.4954 28.4763 31.728C28.5644 31.9606 28.7413 32.1486 28.968 32.2508C29.1948 32.3529 29.4528 32.3608 29.6854 32.2727C31.4816 31.5921 33.2554 31.1989 34.8916 31.0652C35.0149 31.0559 35.1351 31.0224 35.2454 30.9665C35.3556 30.9105 35.4537 30.8334 35.534 30.7394C35.6143 30.6454 35.6753 30.5365 35.7133 30.4189C35.7513 30.3013 35.7658 30.1773 35.7557 30.0541C35.7456 29.9309 35.7113 29.8109 35.6547 29.701C35.5981 29.5911 35.5203 29.4935 35.4258 29.4138C35.3313 29.3341 35.222 29.2738 35.1042 29.2365C34.9863 29.1992 34.8623 29.1856 34.7391 29.1964Z" fill="white"/>
</svg>
