<svg width="295" height="194" viewBox="0 0 295 194" fill="none" xmlns="http://www.w3.org/2000/svg">
<g filter="url(#filter0_d_672_4313)">
<rect width="255" height="156.636" transform="translate(20 16)" fill="#FFAD00"/>
<g clip-path="url(#clip0_672_4313)">
<g clip-path="url(#clip1_672_4313)">
<path d="M163.287 55.1403C163.02 55.1403 162.764 55.2465 162.575 55.4355C162.385 55.6245 162.279 55.8809 162.279 56.1483V57.7294C162.279 57.9967 162.385 58.2531 162.575 58.4421C162.764 58.6312 163.02 58.7374 163.287 58.7374C163.555 58.7374 163.811 58.6312 164 58.4421C164.189 58.2531 164.295 57.9967 164.295 57.7294V56.1483C164.295 55.8809 164.189 55.6245 164 55.4355C163.811 55.2465 163.555 55.1403 163.287 55.1403Z" fill="white"/>
<path d="M177.397 73.9632H164.295V62.4734C164.295 62.2061 164.189 61.9497 164 61.7607C163.811 61.5716 163.554 61.4654 163.287 61.4654C163.02 61.4654 162.763 61.5716 162.574 61.7607C162.385 61.9497 162.279 62.2061 162.279 62.4734V80.7139H153.105V75.5518H155.502C155.77 75.5518 156.026 75.4456 156.215 75.2566C156.404 75.0675 156.51 74.8111 156.51 74.5438C156.51 74.2765 156.404 74.0201 156.215 73.831C156.026 73.642 155.77 73.5358 155.502 73.5358H153.105V68.4611H155.502C155.77 68.4611 156.026 68.3549 156.215 68.1659C156.404 67.9768 156.51 67.7204 156.51 67.4531C156.51 67.1858 156.404 66.9294 156.215 66.7403C156.026 66.5513 155.77 66.4451 155.502 66.4451H153.105V61.3701H155.502C155.77 61.3701 156.026 61.2639 156.215 61.0749C156.404 60.8858 156.51 60.6294 156.51 60.3621C156.51 60.0948 156.404 59.8384 156.215 59.6493C156.026 59.4603 155.77 59.3541 155.502 59.3541H153.105V54.2791H155.502C155.77 54.2791 156.026 54.1729 156.215 53.9839C156.404 53.7948 156.51 53.5384 156.51 53.2711C156.51 53.0038 156.404 52.7474 156.215 52.5583C156.026 52.3693 155.77 52.2631 155.502 52.2631H153.105V47.1883H155.502C155.77 47.1883 156.026 47.0821 156.215 46.893C156.404 46.704 156.51 46.4476 156.51 46.1803C156.51 45.9129 156.404 45.6565 156.215 45.4675C156.026 45.2785 155.77 45.1723 155.502 45.1723H153.105V40.0971H155.502C155.77 40.0971 156.026 39.9909 156.215 39.8019C156.404 39.6128 156.51 39.3565 156.51 39.0891C156.51 38.8218 156.404 38.5654 156.215 38.3764C156.026 38.1873 155.77 38.0811 155.502 38.0811H153.105V33.2859H162.279V63.6099C162.279 63.8773 162.385 64.1336 162.574 64.3227C162.763 64.5117 163.02 64.6179 163.287 64.6179C163.554 64.6179 163.811 64.5117 164 64.3227C164.189 64.1336 164.295 63.8773 164.295 63.6099V32.2778C164.295 32.0104 164.189 31.754 164 31.565C163.811 31.376 163.554 31.2698 163.287 31.2698H152.097C151.829 31.2698 151.573 31.376 151.384 31.565C151.195 31.754 151.089 32.0104 151.089 32.2778V57.8307C148.342 58.0696 146.159 59.2153 145.262 59.7573L142.268 58.8006L149.325 49.8803C150.317 48.6265 150.105 46.7973 148.853 45.8027C147.602 44.8079 145.772 45.0156 144.775 46.2654L136.798 56.2614L131.243 46.3009C130.923 45.7266 130.455 45.2483 129.888 44.9152C129.321 44.5821 128.675 44.4063 128.017 44.406H118.039C117.772 44.406 117.516 44.5122 117.327 44.7013C117.138 44.8903 117.031 45.1467 117.031 45.414C117.031 45.6814 117.138 45.9378 117.327 46.1268C117.516 46.3158 117.772 46.422 118.039 46.422H128.017C128.625 46.422 129.186 46.7518 129.482 47.2827L135.769 58.5549C135.772 58.5599 135.775 58.5644 135.778 58.5693C135.784 58.5794 135.79 58.5892 135.796 58.5991C135.832 58.6552 135.872 58.7077 135.918 58.7559C135.924 58.7623 135.929 58.7689 135.936 58.7752C135.961 58.8011 135.988 58.8256 136.017 58.8487C136.023 58.8537 136.03 58.8583 136.037 58.8633C136.06 58.8806 136.083 58.8972 136.107 58.9126C136.117 58.9192 136.128 58.9253 136.138 58.9315C136.161 58.9448 136.184 58.9571 136.207 58.9686C136.218 58.9738 136.228 58.979 136.239 58.9837C136.272 58.9987 136.306 59.0122 136.341 59.0235L136.343 59.0242L140.267 60.2779L145.1 61.8218C145.249 61.8694 145.407 61.8817 145.561 61.8578C145.716 61.8339 145.862 61.7745 145.99 61.6842C146.014 61.6672 148.175 60.1592 151.089 59.8549V70.5219L147.549 72.7467H138.451C137.948 68.2709 134.142 64.7797 129.534 64.7797C124.926 64.7797 121.12 68.2709 120.617 72.7468H118.039C117.772 72.7468 117.516 72.853 117.326 73.0421C117.137 73.2311 117.031 73.4875 117.031 73.7548C117.031 74.0222 117.137 74.2785 117.326 74.4676C117.516 74.6566 117.772 74.7628 118.039 74.7628H120.617C121.119 79.2386 124.926 82.7298 129.534 82.7298C134.142 82.7298 137.948 79.2386 138.451 74.7628H147.84C148.029 74.7628 148.215 74.7093 148.376 74.6083L151.089 72.9031V81.7218C151.089 81.9891 151.195 82.2455 151.384 82.4345C151.573 82.6236 151.829 82.7298 152.097 82.7298H177.397C177.664 82.7298 177.92 82.6236 178.109 82.4345C178.298 82.2455 178.405 81.9891 178.405 81.7218V74.971C178.405 74.7037 178.298 74.4473 178.109 74.2583C177.92 74.0692 177.664 73.9632 177.397 73.9632ZM129.534 80.7139C125.696 80.7139 122.575 77.5921 122.575 73.755C122.575 69.9178 125.697 66.7959 129.534 66.7959C133.371 66.7959 136.493 69.9178 136.493 73.755C136.493 77.5921 133.371 80.7139 129.534 80.7139Z" fill="white"/>
<path d="M135.068 41.1919H138.395L135.725 47.3227C135.621 47.5673 135.618 47.8431 135.716 48.0901C135.815 48.3371 136.007 48.5352 136.25 48.6413C136.494 48.7475 136.77 48.7531 137.018 48.6569C137.265 48.5607 137.465 48.3705 137.573 48.1277L140.857 40.5864C140.924 40.433 140.952 40.2654 140.938 40.0987C140.924 39.932 140.868 39.7714 140.776 39.6315C140.685 39.4915 140.56 39.3766 140.412 39.2971C140.265 39.2175 140.101 39.1759 139.933 39.1759H136.643L139.632 32.7002C139.744 32.4575 139.755 32.1802 139.663 31.9293C139.571 31.6784 139.382 31.4745 139.14 31.3625C138.897 31.2504 138.62 31.2394 138.369 31.3318C138.118 31.4242 137.914 31.6125 137.802 31.8552L134.153 39.7614C134.082 39.915 134.051 40.0839 134.062 40.2527C134.074 40.4215 134.128 40.5846 134.219 40.7271C134.31 40.8696 134.436 40.9869 134.584 41.0681C134.732 41.1493 134.899 41.1919 135.068 41.1919ZM129.534 69.9526C127.437 69.9526 125.731 71.6583 125.731 73.7549C125.731 75.8516 127.437 77.5571 129.534 77.5571C131.63 77.5571 133.336 75.8514 133.336 73.7549C133.336 71.6584 131.63 69.9526 129.534 69.9526ZM124.845 59.3153H130.024C130.918 59.3153 131.774 58.885 132.254 58.1311C132.748 57.3563 132.791 56.4012 132.374 55.5864L129.218 49.4252C128.577 48.1723 127.324 47.3809 125.926 47.3303L125.924 47.3279H125.858C125.833 47.3275 125.809 47.3254 125.784 47.3254H118.039C118.022 47.3254 118.006 47.327 117.989 47.3279H117.775C117.678 47.3279 117.581 47.3471 117.491 47.3845C117.4 47.4219 117.318 47.4767 117.249 47.5458C117.18 47.6149 117.125 47.6969 117.088 47.7872C117.05 47.8775 117.031 47.9742 117.031 48.0719V58.5714C117.031 58.6691 117.05 58.7659 117.088 58.8561C117.125 58.9464 117.18 59.0284 117.249 59.0975C117.318 59.1666 117.4 59.2213 117.491 59.2587C117.581 59.2961 117.678 59.3153 117.775 59.3153H118.039H124.845Z" fill="white" fill-opacity="0.6"/>
</g>
</g>
<path d="M107.633 116.105V124.636H106.912V116.105H107.633ZM110.486 119.65V124.636H109.789V118.297H110.457L110.486 119.65ZM110.328 121.074L110.018 120.898C110.041 120.523 110.117 120.172 110.246 119.843C110.375 119.515 110.549 119.226 110.768 118.976C110.99 118.726 111.25 118.531 111.547 118.39C111.848 118.25 112.18 118.179 112.543 118.179C112.859 118.179 113.143 118.222 113.393 118.308C113.643 118.394 113.856 118.531 114.031 118.718C114.207 118.906 114.34 119.146 114.43 119.439C114.524 119.732 114.57 120.089 114.57 120.511V124.636H113.867V120.505C113.867 120.068 113.807 119.726 113.686 119.48C113.565 119.23 113.393 119.052 113.17 118.947C112.947 118.841 112.684 118.789 112.379 118.789C112.043 118.789 111.748 118.863 111.494 119.011C111.244 119.156 111.033 119.345 110.861 119.58C110.693 119.81 110.565 120.058 110.475 120.324C110.385 120.586 110.336 120.836 110.328 121.074ZM120.506 123.406V115.636H121.209V124.636H120.553L120.506 123.406ZM116.106 121.531V121.408C116.106 120.916 116.162 120.472 116.275 120.078C116.389 119.679 116.551 119.339 116.762 119.058C116.977 118.773 117.234 118.556 117.535 118.408C117.836 118.255 118.176 118.179 118.555 118.179C118.926 118.179 119.254 118.24 119.539 118.361C119.824 118.482 120.068 118.656 120.272 118.882C120.479 119.109 120.645 119.379 120.77 119.691C120.899 120.004 120.992 120.351 121.051 120.734V122.298C121.004 122.658 120.918 122.988 120.793 123.289C120.668 123.586 120.502 123.845 120.295 124.068C120.088 124.287 119.838 124.457 119.545 124.578C119.256 124.695 118.922 124.754 118.543 124.754C118.168 124.754 117.83 124.675 117.529 124.519C117.229 124.363 116.973 124.142 116.762 123.857C116.551 123.568 116.389 123.226 116.275 122.832C116.162 122.437 116.106 122.004 116.106 121.531ZM116.809 121.408V121.531C116.809 121.902 116.846 122.246 116.92 122.562C116.994 122.879 117.107 123.154 117.26 123.388C117.412 123.623 117.606 123.806 117.84 123.939C118.074 124.072 118.352 124.138 118.672 124.138C119.074 124.138 119.412 124.062 119.686 123.91C119.959 123.754 120.178 123.548 120.342 123.295C120.506 123.037 120.625 122.755 120.699 122.451V120.629C120.652 120.422 120.584 120.211 120.494 119.996C120.404 119.781 120.281 119.584 120.125 119.404C119.973 119.22 119.777 119.074 119.539 118.964C119.305 118.851 119.02 118.795 118.684 118.795C118.359 118.795 118.08 118.861 117.846 118.994C117.611 119.127 117.416 119.312 117.26 119.55C117.107 119.785 116.994 120.06 116.92 120.377C116.846 120.693 116.809 121.037 116.809 121.408ZM123.834 118.297V124.636H123.137V118.297H123.834ZM123.014 116.463C123.014 116.33 123.055 116.218 123.137 116.129C123.223 116.035 123.34 115.988 123.488 115.988C123.637 115.988 123.754 116.035 123.84 116.129C123.93 116.218 123.975 116.33 123.975 116.463C123.975 116.591 123.93 116.703 123.84 116.797C123.754 116.886 123.637 116.931 123.488 116.931C123.34 116.931 123.223 116.886 123.137 116.797C123.055 116.703 123.014 116.591 123.014 116.463ZM127.619 123.963L129.652 118.297H130.373L128 124.636H127.49L127.619 123.963ZM125.779 118.297L127.836 123.98L127.947 124.636H127.432L125.053 118.297H125.779ZM132.307 118.297V124.636H131.609V118.297H132.307ZM131.486 116.463C131.486 116.33 131.527 116.218 131.609 116.129C131.695 116.035 131.813 115.988 131.961 115.988C132.109 115.988 132.227 116.035 132.313 116.129C132.402 116.218 132.447 116.33 132.447 116.463C132.447 116.591 132.402 116.703 132.313 116.797C132.227 116.886 132.109 116.931 131.961 116.931C131.813 116.931 131.695 116.886 131.609 116.797C131.527 116.703 131.486 116.591 131.486 116.463ZM138.342 123.406V115.636H139.045V124.636H138.389L138.342 123.406ZM133.941 121.531V121.408C133.941 120.916 133.998 120.472 134.111 120.078C134.225 119.679 134.387 119.339 134.598 119.058C134.813 118.773 135.07 118.556 135.371 118.408C135.672 118.255 136.012 118.179 136.391 118.179C136.762 118.179 137.09 118.24 137.375 118.361C137.66 118.482 137.904 118.656 138.107 118.882C138.315 119.109 138.481 119.379 138.606 119.691C138.734 120.004 138.828 120.351 138.887 120.734V122.298C138.84 122.658 138.754 122.988 138.629 123.289C138.504 123.586 138.338 123.845 138.131 124.068C137.924 124.287 137.674 124.457 137.381 124.578C137.092 124.695 136.758 124.754 136.379 124.754C136.004 124.754 135.666 124.675 135.365 124.519C135.065 124.363 134.809 124.142 134.598 123.857C134.387 123.568 134.225 123.226 134.111 122.832C133.998 122.437 133.941 122.004 133.941 121.531ZM134.645 121.408V121.531C134.645 121.902 134.682 122.246 134.756 122.562C134.83 122.879 134.943 123.154 135.096 123.388C135.248 123.623 135.441 123.806 135.676 123.939C135.91 124.072 136.188 124.138 136.508 124.138C136.91 124.138 137.248 124.062 137.522 123.91C137.795 123.754 138.014 123.548 138.178 123.295C138.342 123.037 138.461 122.755 138.535 122.451V120.629C138.488 120.422 138.42 120.211 138.33 119.996C138.24 119.781 138.117 119.584 137.961 119.404C137.809 119.22 137.613 119.074 137.375 118.964C137.141 118.851 136.856 118.795 136.52 118.795C136.195 118.795 135.916 118.861 135.682 118.994C135.447 119.127 135.252 119.312 135.096 119.55C134.943 119.785 134.83 120.06 134.756 120.377C134.682 120.693 134.645 121.037 134.645 121.408ZM144.951 123.172V118.297H145.654V124.636H144.981L144.951 123.172ZM145.08 122L145.443 121.988C145.443 122.386 145.397 122.754 145.303 123.089C145.209 123.425 145.063 123.718 144.863 123.968C144.664 124.218 144.406 124.412 144.09 124.548C143.774 124.685 143.393 124.754 142.947 124.754C142.639 124.754 142.356 124.711 142.098 124.625C141.844 124.535 141.625 124.394 141.441 124.203C141.258 124.011 141.115 123.763 141.014 123.459C140.916 123.154 140.867 122.785 140.867 122.351V118.297H141.565V122.363C141.565 122.703 141.602 122.986 141.676 123.213C141.754 123.439 141.859 123.621 141.992 123.757C142.129 123.894 142.285 123.992 142.461 124.05C142.637 124.109 142.826 124.138 143.029 124.138C143.545 124.138 143.951 124.039 144.248 123.839C144.549 123.64 144.762 123.379 144.887 123.054C145.016 122.726 145.08 122.375 145.08 122ZM151.344 123.5V120.23C151.344 119.929 151.281 119.67 151.156 119.451C151.031 119.232 150.848 119.064 150.606 118.947C150.363 118.83 150.065 118.771 149.709 118.771C149.381 118.771 149.088 118.83 148.83 118.947C148.576 119.06 148.375 119.214 148.227 119.41C148.082 119.601 148.01 119.814 148.01 120.048L147.307 120.043C147.307 119.804 147.365 119.574 147.482 119.351C147.6 119.129 147.766 118.929 147.981 118.754C148.195 118.578 148.451 118.439 148.748 118.338C149.049 118.232 149.379 118.179 149.738 118.179C150.191 118.179 150.59 118.255 150.934 118.408C151.281 118.56 151.553 118.789 151.748 119.093C151.943 119.398 152.041 119.781 152.041 120.242V123.306C152.041 123.525 152.057 123.752 152.088 123.986C152.123 124.22 152.172 124.414 152.234 124.566V124.636H151.49C151.443 124.496 151.406 124.32 151.379 124.109C151.356 123.894 151.344 123.691 151.344 123.5ZM151.508 120.945L151.52 121.484H150.143C149.783 121.484 149.461 121.517 149.176 121.584C148.895 121.646 148.656 121.74 148.461 121.865C148.266 121.986 148.115 122.132 148.01 122.304C147.908 122.476 147.857 122.672 147.857 122.89C147.857 123.117 147.914 123.324 148.027 123.511C148.145 123.699 148.309 123.849 148.52 123.963C148.734 124.072 148.988 124.127 149.281 124.127C149.672 124.127 150.016 124.054 150.313 123.91C150.613 123.765 150.861 123.576 151.057 123.341C151.252 123.107 151.383 122.851 151.449 122.574L151.754 122.978C151.703 123.173 151.609 123.375 151.473 123.582C151.34 123.785 151.166 123.976 150.951 124.156C150.736 124.332 150.482 124.476 150.19 124.589C149.9 124.699 149.572 124.754 149.205 124.754C148.791 124.754 148.43 124.675 148.121 124.519C147.816 124.363 147.578 124.15 147.406 123.88C147.238 123.607 147.154 123.298 147.154 122.955C147.154 122.642 147.221 122.363 147.354 122.117C147.486 121.867 147.678 121.656 147.928 121.484C148.182 121.308 148.486 121.175 148.842 121.086C149.201 120.992 149.604 120.945 150.049 120.945H151.508ZM154.701 115.636V124.636H154.004V115.636H154.701ZM165.025 121.976H165.746C165.688 122.55 165.529 123.047 165.272 123.464C165.014 123.879 164.662 124.197 164.217 124.42C163.772 124.642 163.234 124.754 162.606 124.754C162.121 124.754 161.682 124.662 161.287 124.478C160.897 124.295 160.561 124.035 160.279 123.699C159.998 123.359 159.781 122.953 159.629 122.48C159.477 122.007 159.4 121.482 159.4 120.904V119.838C159.4 119.259 159.477 118.736 159.629 118.267C159.781 117.795 160 117.388 160.285 117.048C160.57 116.709 160.912 116.447 161.311 116.263C161.709 116.08 162.158 115.988 162.658 115.988C163.264 115.988 163.787 116.099 164.229 116.322C164.67 116.541 165.018 116.857 165.272 117.271C165.529 117.685 165.688 118.185 165.746 118.771H165.025C164.971 118.31 164.85 117.92 164.662 117.599C164.475 117.279 164.215 117.035 163.883 116.867C163.555 116.695 163.147 116.609 162.658 116.609C162.26 116.609 161.904 116.685 161.592 116.838C161.279 116.99 161.014 117.209 160.795 117.494C160.576 117.775 160.408 118.113 160.291 118.507C160.178 118.902 160.121 119.341 160.121 119.826V120.904C160.121 121.373 160.176 121.804 160.285 122.199C160.395 122.593 160.555 122.935 160.766 123.224C160.981 123.513 161.242 123.738 161.551 123.898C161.859 124.058 162.211 124.138 162.606 124.138C163.109 124.138 163.529 124.058 163.865 123.898C164.205 123.734 164.469 123.492 164.656 123.172C164.844 122.851 164.967 122.453 165.025 121.976ZM168.037 119.345V124.636H167.34V118.297H168.02L168.037 119.345ZM170.281 118.25L170.264 118.894C170.186 118.882 170.109 118.873 170.035 118.865C169.961 118.857 169.881 118.853 169.795 118.853C169.49 118.853 169.223 118.91 168.992 119.023C168.766 119.132 168.574 119.287 168.418 119.486C168.262 119.681 168.143 119.912 168.061 120.177C167.979 120.439 167.932 120.72 167.92 121.021L167.662 121.121C167.662 120.707 167.705 120.322 167.791 119.966C167.877 119.611 168.008 119.3 168.184 119.035C168.363 118.765 168.588 118.556 168.857 118.408C169.131 118.255 169.451 118.179 169.818 118.179C169.908 118.179 169.996 118.187 170.082 118.203C170.172 118.214 170.238 118.23 170.281 118.25ZM175.004 123.5V120.23C175.004 119.929 174.941 119.67 174.816 119.451C174.691 119.232 174.508 119.064 174.266 118.947C174.024 118.83 173.725 118.771 173.369 118.771C173.041 118.771 172.748 118.83 172.49 118.947C172.236 119.06 172.035 119.214 171.887 119.41C171.742 119.601 171.67 119.814 171.67 120.048L170.967 120.043C170.967 119.804 171.025 119.574 171.143 119.351C171.26 119.129 171.426 118.929 171.641 118.754C171.856 118.578 172.111 118.439 172.408 118.338C172.709 118.232 173.039 118.179 173.399 118.179C173.852 118.179 174.25 118.255 174.594 118.408C174.941 118.56 175.213 118.789 175.408 119.093C175.604 119.398 175.701 119.781 175.701 120.242V123.306C175.701 123.525 175.717 123.752 175.748 123.986C175.783 124.22 175.832 124.414 175.895 124.566V124.636H175.15C175.104 124.496 175.066 124.32 175.039 124.109C175.016 123.894 175.004 123.691 175.004 123.5ZM175.168 120.945L175.18 121.484H173.803C173.443 121.484 173.121 121.517 172.836 121.584C172.555 121.646 172.316 121.74 172.121 121.865C171.926 121.986 171.775 122.132 171.67 122.304C171.568 122.476 171.518 122.672 171.518 122.89C171.518 123.117 171.574 123.324 171.688 123.511C171.805 123.699 171.969 123.849 172.18 123.963C172.395 124.072 172.649 124.127 172.941 124.127C173.332 124.127 173.676 124.054 173.973 123.91C174.274 123.765 174.522 123.576 174.717 123.341C174.912 123.107 175.043 122.851 175.109 122.574L175.414 122.978C175.363 123.173 175.27 123.375 175.133 123.582C175 123.785 174.826 123.976 174.611 124.156C174.397 124.332 174.143 124.476 173.85 124.589C173.561 124.699 173.232 124.754 172.865 124.754C172.451 124.754 172.09 124.675 171.781 124.519C171.477 124.363 171.238 124.15 171.066 123.88C170.899 123.607 170.815 123.298 170.815 122.955C170.815 122.642 170.881 122.363 171.014 122.117C171.147 121.867 171.338 121.656 171.588 121.484C171.842 121.308 172.147 121.175 172.502 121.086C172.861 120.992 173.264 120.945 173.709 120.945H175.168ZM181.379 123.019C181.379 122.847 181.336 122.677 181.25 122.509C181.164 122.341 180.998 122.187 180.752 122.047C180.51 121.906 180.152 121.787 179.68 121.689C179.328 121.611 179.014 121.523 178.736 121.425C178.463 121.328 178.232 121.211 178.045 121.074C177.857 120.937 177.715 120.773 177.617 120.582C177.52 120.39 177.471 120.164 177.471 119.902C177.471 119.668 177.522 119.447 177.623 119.24C177.729 119.029 177.877 118.845 178.068 118.689C178.264 118.529 178.498 118.404 178.772 118.314C179.049 118.224 179.359 118.179 179.703 118.179C180.191 118.179 180.609 118.263 180.957 118.431C181.309 118.595 181.576 118.82 181.76 119.105C181.947 119.39 182.041 119.713 182.041 120.072H181.344C181.344 119.853 181.279 119.646 181.15 119.451C181.025 119.255 180.84 119.095 180.594 118.97C180.352 118.845 180.055 118.783 179.703 118.783C179.34 118.783 179.045 118.838 178.818 118.947C178.592 119.056 178.426 119.195 178.32 119.363C178.219 119.531 178.168 119.705 178.168 119.884C178.168 120.025 178.19 120.154 178.232 120.271C178.279 120.384 178.361 120.49 178.479 120.588C178.6 120.685 178.772 120.777 178.994 120.863C179.217 120.949 179.506 121.033 179.861 121.115C180.373 121.228 180.791 121.367 181.115 121.531C181.443 121.691 181.686 121.89 181.842 122.129C181.998 122.363 182.076 122.648 182.076 122.984C182.076 123.246 182.022 123.486 181.912 123.705C181.803 123.92 181.645 124.105 181.438 124.261C181.234 124.418 180.988 124.539 180.699 124.625C180.414 124.711 180.094 124.754 179.738 124.754C179.203 124.754 178.75 124.666 178.379 124.49C178.012 124.31 177.732 124.076 177.541 123.787C177.354 123.494 177.26 123.183 177.26 122.855H177.957C177.981 123.183 178.084 123.443 178.268 123.634C178.451 123.822 178.676 123.955 178.941 124.033C179.211 124.111 179.477 124.15 179.738 124.15C180.098 124.15 180.399 124.097 180.641 123.992C180.883 123.886 181.066 123.748 181.191 123.576C181.316 123.404 181.379 123.218 181.379 123.019ZM184.361 115.636V124.636H183.664V115.636H184.361ZM184.203 121.074L183.893 120.898C183.916 120.523 183.992 120.172 184.121 119.843C184.25 119.515 184.424 119.226 184.643 118.976C184.865 118.726 185.125 118.531 185.422 118.39C185.723 118.25 186.055 118.179 186.418 118.179C186.734 118.179 187.018 118.222 187.268 118.308C187.518 118.394 187.731 118.531 187.906 118.718C188.082 118.906 188.215 119.146 188.305 119.439C188.399 119.732 188.445 120.089 188.445 120.511V124.636H187.742V120.505C187.742 120.068 187.682 119.726 187.561 119.48C187.44 119.23 187.268 119.052 187.045 118.947C186.822 118.841 186.559 118.789 186.254 118.789C185.918 118.789 185.623 118.863 185.369 119.011C185.119 119.156 184.908 119.345 184.736 119.58C184.568 119.81 184.44 120.058 184.35 120.324C184.26 120.586 184.211 120.836 184.203 121.074ZM124.748 131.105V139.636H124.033V131.105H124.748ZM127.672 131.105V131.726H121.115V131.105H127.672ZM130.76 139.754C130.346 139.754 129.965 139.677 129.617 139.525C129.274 139.373 128.973 139.158 128.715 138.88C128.461 138.603 128.264 138.275 128.123 137.896C127.986 137.513 127.918 137.095 127.918 136.642V136.39C127.918 135.902 127.99 135.461 128.135 135.066C128.279 134.672 128.479 134.334 128.732 134.052C128.986 133.771 129.275 133.556 129.6 133.408C129.928 133.255 130.272 133.179 130.631 133.179C131.033 133.179 131.391 133.252 131.703 133.396C132.016 133.537 132.277 133.738 132.488 134C132.703 134.257 132.865 134.564 132.975 134.92C133.084 135.271 133.139 135.66 133.139 136.086V136.513H128.34V135.916H132.441V135.834C132.434 135.478 132.361 135.146 132.225 134.838C132.092 134.525 131.893 134.271 131.627 134.076C131.361 133.88 131.029 133.783 130.631 133.783C130.334 133.783 130.061 133.845 129.811 133.97C129.565 134.095 129.352 134.275 129.172 134.509C128.996 134.74 128.859 135.015 128.762 135.336C128.668 135.652 128.621 136.004 128.621 136.39V136.642C128.621 136.994 128.672 137.322 128.774 137.627C128.879 137.927 129.027 138.193 129.219 138.423C129.414 138.654 129.645 138.834 129.91 138.963C130.176 139.091 130.469 139.156 130.789 139.156C131.164 139.156 131.496 139.088 131.785 138.951C132.074 138.81 132.334 138.589 132.565 138.289L133.004 138.629C132.867 138.832 132.695 139.019 132.488 139.191C132.285 139.363 132.041 139.5 131.756 139.601C131.471 139.703 131.139 139.754 130.76 139.754ZM138.318 138.019C138.318 137.847 138.275 137.677 138.19 137.509C138.104 137.341 137.938 137.187 137.691 137.047C137.449 136.906 137.092 136.787 136.619 136.689C136.268 136.611 135.953 136.523 135.676 136.425C135.402 136.328 135.172 136.211 134.984 136.074C134.797 135.937 134.654 135.773 134.557 135.582C134.459 135.39 134.41 135.164 134.41 134.902C134.41 134.668 134.461 134.447 134.563 134.24C134.668 134.029 134.816 133.845 135.008 133.689C135.203 133.529 135.438 133.404 135.711 133.314C135.988 133.224 136.299 133.179 136.643 133.179C137.131 133.179 137.549 133.263 137.897 133.431C138.248 133.595 138.516 133.82 138.699 134.105C138.887 134.39 138.981 134.713 138.981 135.072H138.283C138.283 134.853 138.219 134.646 138.09 134.451C137.965 134.255 137.779 134.095 137.533 133.97C137.291 133.845 136.994 133.783 136.643 133.783C136.279 133.783 135.984 133.838 135.758 133.947C135.531 134.056 135.365 134.195 135.26 134.363C135.158 134.531 135.107 134.705 135.107 134.884C135.107 135.025 135.129 135.154 135.172 135.271C135.219 135.384 135.301 135.49 135.418 135.588C135.539 135.685 135.711 135.777 135.934 135.863C136.156 135.949 136.445 136.033 136.801 136.115C137.313 136.228 137.731 136.367 138.055 136.531C138.383 136.691 138.625 136.89 138.781 137.129C138.938 137.363 139.016 137.648 139.016 137.984C139.016 138.246 138.961 138.486 138.852 138.705C138.742 138.92 138.584 139.105 138.377 139.261C138.174 139.418 137.928 139.539 137.639 139.625C137.354 139.711 137.033 139.754 136.678 139.754C136.143 139.754 135.69 139.666 135.318 139.49C134.951 139.31 134.672 139.076 134.481 138.787C134.293 138.494 134.199 138.183 134.199 137.855H134.897C134.92 138.183 135.024 138.443 135.207 138.634C135.391 138.822 135.615 138.955 135.881 139.033C136.15 139.111 136.416 139.15 136.678 139.15C137.037 139.15 137.338 139.097 137.58 138.992C137.822 138.886 138.006 138.748 138.131 138.576C138.256 138.404 138.318 138.218 138.318 138.019ZM143 133.297V133.871H139.824V133.297H143ZM140.99 131.668H141.688V138.095C141.688 138.388 141.727 138.609 141.805 138.757C141.883 138.906 141.984 139.005 142.109 139.056C142.234 139.107 142.369 139.132 142.514 139.132C142.619 139.132 142.721 139.127 142.818 139.115C142.916 139.099 143.004 139.084 143.082 139.068L143.111 139.66C143.025 139.687 142.914 139.709 142.777 139.724C142.641 139.744 142.504 139.754 142.367 139.754C142.098 139.754 141.859 139.705 141.652 139.607C141.445 139.505 141.283 139.334 141.166 139.091C141.049 138.845 140.99 138.511 140.99 138.089V131.668ZM148.268 138.019C148.268 137.847 148.225 137.677 148.139 137.509C148.053 137.341 147.887 137.187 147.641 137.047C147.399 136.906 147.041 136.787 146.568 136.689C146.217 136.611 145.902 136.523 145.625 136.425C145.352 136.328 145.121 136.211 144.934 136.074C144.746 135.937 144.604 135.773 144.506 135.582C144.408 135.39 144.359 135.164 144.359 134.902C144.359 134.668 144.41 134.447 144.512 134.24C144.617 134.029 144.766 133.845 144.957 133.689C145.152 133.529 145.387 133.404 145.66 133.314C145.938 133.224 146.248 133.179 146.592 133.179C147.08 133.179 147.498 133.263 147.846 133.431C148.197 133.595 148.465 133.82 148.649 134.105C148.836 134.39 148.93 134.713 148.93 135.072H148.232C148.232 134.853 148.168 134.646 148.039 134.451C147.914 134.255 147.729 134.095 147.482 133.97C147.24 133.845 146.943 133.783 146.592 133.783C146.229 133.783 145.934 133.838 145.707 133.947C145.481 134.056 145.315 134.195 145.209 134.363C145.107 134.531 145.057 134.705 145.057 134.884C145.057 135.025 145.078 135.154 145.121 135.271C145.168 135.384 145.25 135.49 145.367 135.588C145.488 135.685 145.66 135.777 145.883 135.863C146.106 135.949 146.395 136.033 146.75 136.115C147.262 136.228 147.68 136.367 148.004 136.531C148.332 136.691 148.574 136.89 148.731 137.129C148.887 137.363 148.965 137.648 148.965 137.984C148.965 138.246 148.91 138.486 148.801 138.705C148.691 138.92 148.533 139.105 148.326 139.261C148.123 139.418 147.877 139.539 147.588 139.625C147.303 139.711 146.982 139.754 146.627 139.754C146.092 139.754 145.639 139.666 145.268 139.49C144.9 139.31 144.621 139.076 144.43 138.787C144.242 138.494 144.149 138.183 144.149 137.855H144.846C144.869 138.183 144.973 138.443 145.156 138.634C145.34 138.822 145.565 138.955 145.83 139.033C146.1 139.111 146.365 139.15 146.627 139.15C146.986 139.15 147.287 139.097 147.529 138.992C147.772 138.886 147.955 138.748 148.08 138.576C148.205 138.404 148.268 138.218 148.268 138.019ZM155.662 135.57V136.173H152.856V135.57H155.662ZM166.373 131.105V139.636H165.647L160.742 132.347V139.636H160.022V131.105H160.742L165.658 138.394V131.105H166.373ZM168.002 136.566V136.373C168.002 135.912 168.068 135.486 168.201 135.095C168.334 134.705 168.524 134.367 168.77 134.082C169.02 133.797 169.318 133.576 169.666 133.42C170.014 133.259 170.4 133.179 170.826 133.179C171.256 133.179 171.645 133.259 171.992 133.42C172.34 133.576 172.639 133.797 172.889 134.082C173.139 134.367 173.33 134.705 173.463 135.095C173.596 135.486 173.662 135.912 173.662 136.373V136.566C173.662 137.027 173.596 137.453 173.463 137.843C173.33 138.23 173.139 138.566 172.889 138.851C172.643 139.136 172.346 139.359 171.998 139.519C171.65 139.675 171.264 139.754 170.838 139.754C170.408 139.754 170.02 139.675 169.672 139.519C169.324 139.359 169.025 139.136 168.775 138.851C168.525 138.566 168.334 138.23 168.201 137.843C168.068 137.453 168.002 137.027 168.002 136.566ZM168.699 136.373V136.566C168.699 136.914 168.746 137.244 168.84 137.556C168.934 137.865 169.07 138.14 169.25 138.382C169.43 138.621 169.652 138.808 169.918 138.945C170.184 139.082 170.49 139.15 170.838 139.15C171.182 139.15 171.484 139.082 171.746 138.945C172.012 138.808 172.234 138.621 172.414 138.382C172.594 138.14 172.729 137.865 172.818 137.556C172.912 137.244 172.959 136.914 172.959 136.566V136.373C172.959 136.029 172.912 135.703 172.818 135.394C172.729 135.086 172.592 134.81 172.408 134.568C172.229 134.326 172.006 134.134 171.74 133.994C171.475 133.853 171.17 133.783 170.826 133.783C170.482 133.783 170.178 133.853 169.912 133.994C169.65 134.134 169.428 134.326 169.244 134.568C169.065 134.81 168.928 135.086 168.834 135.394C168.744 135.703 168.699 136.029 168.699 136.373ZM114.635 152.539C114.635 152.304 114.596 152.095 114.518 151.912C114.44 151.728 114.311 151.564 114.131 151.42C113.955 151.271 113.717 151.134 113.416 151.009C113.119 150.88 112.748 150.754 112.303 150.629C111.877 150.507 111.492 150.375 111.149 150.23C110.805 150.086 110.51 149.92 110.264 149.732C110.022 149.545 109.836 149.326 109.707 149.076C109.578 148.822 109.514 148.527 109.514 148.191C109.514 147.863 109.584 147.564 109.725 147.295C109.865 147.025 110.063 146.793 110.316 146.597C110.574 146.402 110.877 146.252 111.225 146.146C111.576 146.041 111.961 145.988 112.379 145.988C112.977 145.988 113.492 146.101 113.926 146.328C114.363 146.554 114.701 146.861 114.94 147.248C115.182 147.63 115.303 148.06 115.303 148.537H114.582C114.582 148.166 114.494 147.836 114.318 147.547C114.147 147.254 113.897 147.025 113.568 146.861C113.244 146.693 112.848 146.609 112.379 146.609C111.91 146.609 111.516 146.681 111.195 146.826C110.879 146.966 110.639 147.156 110.475 147.394C110.315 147.629 110.234 147.89 110.234 148.179C110.234 148.382 110.274 148.57 110.352 148.742C110.43 148.91 110.557 149.068 110.732 149.216C110.912 149.361 111.149 149.498 111.441 149.627C111.734 149.752 112.096 149.871 112.525 149.984C112.979 150.109 113.381 150.248 113.732 150.4C114.084 150.552 114.381 150.728 114.623 150.927C114.865 151.123 115.049 151.351 115.174 151.613C115.299 151.875 115.361 152.179 115.361 152.527C115.361 152.875 115.287 153.187 115.139 153.464C114.994 153.738 114.789 153.97 114.524 154.162C114.262 154.353 113.951 154.5 113.592 154.601C113.236 154.703 112.848 154.754 112.426 154.754C112.047 154.754 111.67 154.705 111.295 154.607C110.92 154.509 110.576 154.359 110.264 154.156C109.955 153.949 109.707 153.683 109.52 153.359C109.336 153.035 109.244 152.648 109.244 152.199H109.959C109.959 152.558 110.031 152.861 110.176 153.107C110.32 153.353 110.512 153.552 110.75 153.705C110.992 153.857 111.258 153.968 111.547 154.039C111.84 154.105 112.133 154.138 112.426 154.138C112.875 154.138 113.264 154.072 113.592 153.939C113.924 153.806 114.18 153.621 114.359 153.382C114.543 153.14 114.635 152.859 114.635 152.539ZM119.152 148.297V148.871H115.977V148.297H119.152ZM117.143 146.668H117.84V153.095C117.84 153.388 117.879 153.609 117.957 153.757C118.035 153.906 118.137 154.005 118.262 154.056C118.387 154.107 118.522 154.132 118.666 154.132C118.772 154.132 118.873 154.127 118.971 154.115C119.068 154.099 119.156 154.084 119.234 154.068L119.264 154.66C119.178 154.687 119.066 154.709 118.93 154.724C118.793 154.744 118.656 154.754 118.52 154.754C118.25 154.754 118.012 154.705 117.805 154.607C117.598 154.505 117.436 154.334 117.318 154.091C117.201 153.845 117.143 153.511 117.143 153.089V146.668ZM124.479 153.5V150.23C124.479 149.929 124.416 149.67 124.291 149.451C124.166 149.232 123.982 149.064 123.74 148.947C123.498 148.83 123.199 148.771 122.844 148.771C122.516 148.771 122.223 148.83 121.965 148.947C121.711 149.06 121.51 149.214 121.361 149.41C121.217 149.601 121.145 149.814 121.145 150.048L120.441 150.043C120.441 149.804 120.5 149.574 120.617 149.351C120.734 149.129 120.9 148.929 121.115 148.754C121.33 148.578 121.586 148.439 121.883 148.338C122.184 148.232 122.514 148.179 122.873 148.179C123.326 148.179 123.725 148.255 124.068 148.408C124.416 148.56 124.688 148.789 124.883 149.093C125.078 149.398 125.176 149.781 125.176 150.242V153.306C125.176 153.525 125.191 153.752 125.223 153.986C125.258 154.22 125.307 154.414 125.369 154.566V154.636H124.625C124.578 154.496 124.541 154.32 124.514 154.109C124.49 153.894 124.479 153.691 124.479 153.5ZM124.643 150.945L124.654 151.484H123.277C122.918 151.484 122.596 151.517 122.311 151.584C122.029 151.646 121.791 151.74 121.596 151.865C121.4 151.986 121.25 152.132 121.145 152.304C121.043 152.476 120.992 152.672 120.992 152.89C120.992 153.117 121.049 153.324 121.162 153.511C121.279 153.699 121.443 153.849 121.654 153.963C121.869 154.072 122.123 154.127 122.416 154.127C122.807 154.127 123.15 154.054 123.447 153.91C123.748 153.765 123.996 153.576 124.191 153.341C124.387 153.107 124.518 152.851 124.584 152.574L124.889 152.978C124.838 153.173 124.744 153.375 124.607 153.582C124.475 153.785 124.301 153.976 124.086 154.156C123.871 154.332 123.617 154.476 123.324 154.589C123.035 154.699 122.707 154.754 122.34 154.754C121.926 154.754 121.565 154.675 121.256 154.519C120.951 154.363 120.713 154.15 120.541 153.88C120.373 153.607 120.289 153.298 120.289 152.955C120.289 152.642 120.356 152.363 120.488 152.117C120.621 151.867 120.813 151.656 121.063 151.484C121.316 151.308 121.621 151.175 121.977 151.086C122.336 150.992 122.738 150.945 123.184 150.945H124.643ZM127.754 149.65V154.636H127.057V148.297H127.725L127.754 149.65ZM127.596 151.074L127.285 150.898C127.309 150.523 127.385 150.172 127.514 149.843C127.643 149.515 127.816 149.226 128.035 148.976C128.258 148.726 128.518 148.531 128.815 148.39C129.115 148.25 129.447 148.179 129.811 148.179C130.127 148.179 130.41 148.222 130.66 148.308C130.91 148.394 131.123 148.531 131.299 148.718C131.475 148.906 131.607 149.146 131.697 149.439C131.791 149.732 131.838 150.089 131.838 150.511V154.636H131.135V150.505C131.135 150.068 131.074 149.726 130.953 149.48C130.832 149.23 130.66 149.052 130.438 148.947C130.215 148.841 129.951 148.789 129.647 148.789C129.311 148.789 129.016 148.863 128.762 149.011C128.512 149.156 128.301 149.345 128.129 149.58C127.961 149.81 127.832 150.058 127.742 150.324C127.652 150.586 127.604 150.836 127.596 151.074ZM137.774 153.406V145.636H138.477V154.636H137.82L137.774 153.406ZM133.373 151.531V151.408C133.373 150.916 133.43 150.472 133.543 150.078C133.656 149.679 133.818 149.339 134.029 149.058C134.244 148.773 134.502 148.556 134.803 148.408C135.104 148.255 135.443 148.179 135.822 148.179C136.193 148.179 136.522 148.24 136.807 148.361C137.092 148.482 137.336 148.656 137.539 148.882C137.746 149.109 137.912 149.379 138.037 149.691C138.166 150.004 138.26 150.351 138.318 150.734V152.298C138.272 152.658 138.186 152.988 138.061 153.289C137.936 153.586 137.77 153.845 137.563 154.068C137.356 154.287 137.106 154.457 136.813 154.578C136.524 154.695 136.19 154.754 135.811 154.754C135.436 154.754 135.098 154.675 134.797 154.519C134.496 154.363 134.24 154.142 134.029 153.857C133.818 153.568 133.656 153.226 133.543 152.832C133.43 152.437 133.373 152.004 133.373 151.531ZM134.076 151.408V151.531C134.076 151.902 134.113 152.246 134.188 152.562C134.262 152.879 134.375 153.154 134.527 153.388C134.68 153.623 134.873 153.806 135.107 153.939C135.342 154.072 135.619 154.138 135.94 154.138C136.342 154.138 136.68 154.062 136.953 153.91C137.227 153.754 137.445 153.548 137.609 153.295C137.774 153.037 137.893 152.755 137.967 152.451V150.629C137.92 150.422 137.852 150.211 137.762 149.996C137.672 149.781 137.549 149.584 137.393 149.404C137.24 149.22 137.045 149.074 136.807 148.964C136.572 148.851 136.287 148.795 135.951 148.795C135.627 148.795 135.348 148.861 135.113 148.994C134.879 149.127 134.684 149.312 134.527 149.55C134.375 149.785 134.262 150.06 134.188 150.377C134.113 150.693 134.076 151.037 134.076 151.408ZM144.178 153.5V150.23C144.178 149.929 144.115 149.67 143.99 149.451C143.865 149.232 143.682 149.064 143.44 148.947C143.197 148.83 142.899 148.771 142.543 148.771C142.215 148.771 141.922 148.83 141.664 148.947C141.41 149.06 141.209 149.214 141.061 149.41C140.916 149.601 140.844 149.814 140.844 150.048L140.141 150.043C140.141 149.804 140.199 149.574 140.316 149.351C140.434 149.129 140.6 148.929 140.815 148.754C141.029 148.578 141.285 148.439 141.582 148.338C141.883 148.232 142.213 148.179 142.572 148.179C143.025 148.179 143.424 148.255 143.768 148.408C144.115 148.56 144.387 148.789 144.582 149.093C144.777 149.398 144.875 149.781 144.875 150.242V153.306C144.875 153.525 144.891 153.752 144.922 153.986C144.957 154.22 145.006 154.414 145.068 154.566V154.636H144.324C144.277 154.496 144.24 154.32 144.213 154.109C144.19 153.894 144.178 153.691 144.178 153.5ZM144.342 150.945L144.354 151.484H142.977C142.617 151.484 142.295 151.517 142.01 151.584C141.729 151.646 141.49 151.74 141.295 151.865C141.1 151.986 140.949 152.132 140.844 152.304C140.742 152.476 140.691 152.672 140.691 152.89C140.691 153.117 140.748 153.324 140.861 153.511C140.979 153.699 141.143 153.849 141.354 153.963C141.568 154.072 141.822 154.127 142.115 154.127C142.506 154.127 142.85 154.054 143.147 153.91C143.447 153.765 143.695 153.576 143.891 153.341C144.086 153.107 144.217 152.851 144.283 152.574L144.588 152.978C144.537 153.173 144.443 153.375 144.307 153.582C144.174 153.785 144 153.976 143.785 154.156C143.57 154.332 143.316 154.476 143.024 154.589C142.734 154.699 142.406 154.754 142.039 154.754C141.625 154.754 141.264 154.675 140.955 154.519C140.65 154.363 140.412 154.15 140.24 153.88C140.072 153.607 139.988 153.298 139.988 152.955C139.988 152.642 140.055 152.363 140.188 152.117C140.32 151.867 140.512 151.656 140.762 151.484C141.016 151.308 141.32 151.175 141.676 151.086C142.035 150.992 142.438 150.945 142.883 150.945H144.342ZM147.453 149.345V154.636H146.756V148.297H147.436L147.453 149.345ZM149.697 148.25L149.68 148.894C149.602 148.882 149.525 148.873 149.451 148.865C149.377 148.857 149.297 148.853 149.211 148.853C148.906 148.853 148.639 148.91 148.408 149.023C148.182 149.132 147.99 149.287 147.834 149.486C147.678 149.681 147.559 149.912 147.477 150.177C147.395 150.439 147.348 150.72 147.336 151.021L147.078 151.121C147.078 150.707 147.121 150.322 147.207 149.966C147.293 149.611 147.424 149.3 147.6 149.035C147.779 148.765 148.004 148.556 148.274 148.408C148.547 148.255 148.867 148.179 149.234 148.179C149.324 148.179 149.412 148.187 149.498 148.203C149.588 148.214 149.654 148.23 149.697 148.25ZM154.801 153.406V145.636H155.504V154.636H154.848L154.801 153.406ZM150.4 151.531V151.408C150.4 150.916 150.457 150.472 150.57 150.078C150.684 149.679 150.846 149.339 151.057 149.058C151.272 148.773 151.529 148.556 151.83 148.408C152.131 148.255 152.471 148.179 152.85 148.179C153.221 148.179 153.549 148.24 153.834 148.361C154.119 148.482 154.363 148.656 154.566 148.882C154.774 149.109 154.94 149.379 155.065 149.691C155.193 150.004 155.287 150.351 155.346 150.734V152.298C155.299 152.658 155.213 152.988 155.088 153.289C154.963 153.586 154.797 153.845 154.59 154.068C154.383 154.287 154.133 154.457 153.84 154.578C153.551 154.695 153.217 154.754 152.838 154.754C152.463 154.754 152.125 154.675 151.824 154.519C151.524 154.363 151.268 154.142 151.057 153.857C150.846 153.568 150.684 153.226 150.57 152.832C150.457 152.437 150.4 152.004 150.4 151.531ZM151.104 151.408V151.531C151.104 151.902 151.141 152.246 151.215 152.562C151.289 152.879 151.402 153.154 151.555 153.388C151.707 153.623 151.9 153.806 152.135 153.939C152.369 154.072 152.647 154.138 152.967 154.138C153.369 154.138 153.707 154.062 153.981 153.91C154.254 153.754 154.473 153.548 154.637 153.295C154.801 153.037 154.92 152.755 154.994 152.451V150.629C154.947 150.422 154.879 150.211 154.789 149.996C154.699 149.781 154.576 149.584 154.42 149.404C154.268 149.22 154.072 149.074 153.834 148.964C153.6 148.851 153.315 148.795 152.979 148.795C152.654 148.795 152.375 148.861 152.141 148.994C151.906 149.127 151.711 149.312 151.555 149.55C151.402 149.785 151.289 150.06 151.215 150.377C151.141 150.693 151.104 151.037 151.104 151.408ZM161.147 153.019C161.147 152.847 161.104 152.677 161.018 152.509C160.932 152.341 160.766 152.187 160.52 152.047C160.277 151.906 159.92 151.787 159.447 151.689C159.096 151.611 158.781 151.523 158.504 151.425C158.231 151.328 158 151.211 157.813 151.074C157.625 150.937 157.482 150.773 157.385 150.582C157.287 150.39 157.238 150.164 157.238 149.902C157.238 149.668 157.289 149.447 157.391 149.24C157.496 149.029 157.645 148.845 157.836 148.689C158.031 148.529 158.266 148.404 158.539 148.314C158.816 148.224 159.127 148.179 159.471 148.179C159.959 148.179 160.377 148.263 160.725 148.431C161.076 148.595 161.344 148.82 161.527 149.105C161.715 149.39 161.809 149.713 161.809 150.072H161.111C161.111 149.853 161.047 149.646 160.918 149.451C160.793 149.255 160.607 149.095 160.361 148.97C160.119 148.845 159.822 148.783 159.471 148.783C159.107 148.783 158.813 148.838 158.586 148.947C158.359 149.056 158.193 149.195 158.088 149.363C157.986 149.531 157.936 149.705 157.936 149.884C157.936 150.025 157.957 150.154 158 150.271C158.047 150.384 158.129 150.49 158.246 150.588C158.367 150.685 158.539 150.777 158.762 150.863C158.984 150.949 159.274 151.033 159.629 151.115C160.141 151.228 160.559 151.367 160.883 151.531C161.211 151.691 161.453 151.89 161.609 152.129C161.766 152.363 161.844 152.648 161.844 152.984C161.844 153.246 161.789 153.486 161.68 153.705C161.57 153.92 161.412 154.105 161.205 154.261C161.002 154.418 160.756 154.539 160.467 154.625C160.182 154.711 159.861 154.754 159.506 154.754C158.971 154.754 158.518 154.666 158.147 154.49C157.779 154.31 157.5 154.076 157.309 153.787C157.121 153.494 157.027 153.183 157.027 152.855H157.725C157.748 153.183 157.852 153.443 158.035 153.634C158.219 153.822 158.443 153.955 158.709 154.033C158.979 154.111 159.244 154.15 159.506 154.15C159.865 154.15 160.166 154.097 160.408 153.992C160.65 153.886 160.834 153.748 160.959 153.576C161.084 153.404 161.147 153.218 161.147 153.019ZM169.326 146.615L166.373 154.636H165.623L168.846 146.105H169.367L169.326 146.615ZM172.01 154.636L169.051 146.615L169.01 146.105H169.531L172.76 154.636H172.01ZM171.482 151.625V152.246H166.953V151.625H171.482ZM174.641 148.297V154.636H173.943V148.297H174.641ZM173.82 146.463C173.82 146.33 173.861 146.218 173.943 146.129C174.029 146.035 174.147 145.988 174.295 145.988C174.443 145.988 174.561 146.035 174.647 146.129C174.736 146.218 174.781 146.33 174.781 146.463C174.781 146.591 174.736 146.703 174.647 146.797C174.561 146.886 174.443 146.931 174.295 146.931C174.147 146.931 174.029 146.886 173.943 146.797C173.861 146.703 173.82 146.591 173.82 146.463ZM177.219 149.609V154.636H176.516V148.297H177.19L177.219 149.609ZM177.09 151.074L176.75 150.898C176.774 150.523 176.844 150.172 176.961 149.843C177.082 149.515 177.25 149.226 177.465 148.976C177.68 148.726 177.938 148.531 178.238 148.39C178.539 148.25 178.881 148.179 179.264 148.179C179.572 148.179 179.852 148.222 180.102 148.308C180.356 148.39 180.57 148.521 180.746 148.701C180.926 148.877 181.065 149.107 181.162 149.392C181.26 149.677 181.309 150.019 181.309 150.418V154.636H180.611V150.441C180.611 150.019 180.545 149.689 180.412 149.451C180.283 149.213 180.102 149.043 179.867 148.941C179.637 148.839 179.369 148.789 179.065 148.789C178.705 148.789 178.4 148.863 178.15 149.011C177.904 149.156 177.703 149.345 177.547 149.58C177.395 149.81 177.281 150.058 177.207 150.324C177.133 150.586 177.094 150.836 177.09 151.074ZM181.303 150.523L180.834 150.535C180.854 150.226 180.924 149.931 181.045 149.65C181.17 149.369 181.34 149.119 181.555 148.9C181.77 148.677 182.025 148.502 182.322 148.373C182.623 148.244 182.961 148.179 183.336 148.179C183.664 148.179 183.957 148.224 184.215 148.314C184.473 148.4 184.69 148.539 184.865 148.73C185.045 148.918 185.182 149.158 185.275 149.451C185.369 149.744 185.416 150.095 185.416 150.505V154.636H184.713V150.5C184.713 150.05 184.647 149.703 184.514 149.457C184.385 149.207 184.205 149.033 183.975 148.935C183.744 148.838 183.475 148.789 183.166 148.789C182.861 148.793 182.594 148.849 182.363 148.959C182.133 149.064 181.94 149.205 181.783 149.38C181.631 149.552 181.514 149.738 181.432 149.937C181.354 150.136 181.311 150.332 181.303 150.523Z" fill="white"/>
</g>
<defs>
<filter id="filter0_d_672_4313" x="-8.84804" y="0.133578" width="312.696" height="214.332" filterUnits="userSpaceOnUse" color-interpolation-filters="sRGB">
<feFlood flood-opacity="0" result="BackgroundImageFix"/>
<feColorMatrix in="SourceAlpha" type="matrix" values="0 0 0 0 0 0 0 0 0 0 0 0 0 0 0 0 0 0 127 0" result="hardAlpha"/>
<feOffset dy="12.9816"/>
<feGaussianBlur stdDeviation="14.424"/>
<feComposite in2="hardAlpha" operator="out"/>
<feColorMatrix type="matrix" values="0 0 0 0 0.439216 0 0 0 0 0.564706 0 0 0 0 0.690196 0 0 0 0.12 0"/>
<feBlend mode="normal" in2="BackgroundImageFix" result="effect1_dropShadow_672_4313"/>
<feBlend mode="normal" in="SourceGraphic" in2="effect1_dropShadow_672_4313" result="shape"/>
</filter>
<clipPath id="clip0_672_4313">
<rect width="61.5652" height="61.6364" fill="white" transform="translate(116.718 31)"/>
</clipPath>
<clipPath id="clip1_672_4313">
<rect width="62" height="52" fill="white" transform="translate(116.718 31)"/>
</clipPath>
</defs>
</svg>
