<svg width="60" height="60" viewBox="0 0 60 60" fill="none" xmlns="http://www.w3.org/2000/svg">
<g clip-path="url(#clip0_1532_358)">
<path d="M7.31058 27.3284C7.57684 27.789 7.95957 28.1716 8.42036 28.4376C8.88116 28.7037 9.40381 28.8439 9.93589 28.8441H23.0866C24.1707 28.8441 25.1723 28.2652 25.7106 27.3284L32.2866 15.9397C32.5529 15.4785 32.6931 14.9553 32.6931 14.4227C32.6931 13.8901 32.5529 13.3669 32.2866 12.9057L25.7106 1.51577C25.4445 1.05548 25.0622 0.673171 24.6019 0.407145C24.1416 0.14112 23.6195 0.00071724 23.0878 0L9.93589 0C8.85174 0 7.84885 0.578888 7.31058 1.51577L0.734613 12.9057C0.468936 13.3671 0.329102 13.8902 0.329102 14.4227C0.329102 14.9552 0.468936 15.4783 0.734613 15.9397L7.31058 27.3284ZM11.6878 6.0669H21.3385L26.1613 14.4227L21.3385 22.7785H11.6878L6.86499 14.4227L11.6878 6.0669ZM25.7131 32.6691C25.4464 32.2091 25.0634 31.8272 24.6027 31.5616C24.142 31.2961 23.6196 31.1561 23.0878 31.1559H9.93589C8.85174 31.1559 7.85012 31.7348 7.31185 32.6691L0.735882 44.0603C0.469585 44.5215 0.329392 45.0447 0.329392 45.5773C0.329392 46.1099 0.469585 46.6331 0.735882 47.0943L7.31185 58.4868C7.57852 58.9466 7.96123 59.3284 8.42171 59.5939C8.8822 59.8595 9.40432 59.9995 9.93589 60H23.0866C24.1707 60 25.1736 59.4211 25.7119 58.4868L32.2878 47.0943C32.5535 46.6329 32.6933 46.1098 32.6933 45.5773C32.6933 45.0448 32.5535 44.5217 32.2878 44.0603L25.7131 32.6691ZM21.3372 53.9306H11.6878L6.86372 45.5748L11.6865 37.219H21.3372L26.16 45.5748L21.3372 53.9306ZM59.2645 31.5139L52.6911 42.905C52.4239 43.3653 52.0406 43.7474 51.5794 44.0132C51.1183 44.2789 50.5955 44.4191 50.0633 44.4195H36.9126C36.3805 44.4199 35.8578 44.2801 35.3969 44.0142C34.936 43.7484 34.5533 43.3658 34.2873 42.905L27.7113 31.5139C27.4444 31.0531 27.3038 30.53 27.3038 29.9975C27.3038 29.4649 27.4444 28.9418 27.7113 28.4811L34.2873 17.0924C34.5539 16.6322 34.9367 16.25 35.3975 15.9842C35.8582 15.7184 36.3807 15.5783 36.9126 15.5779H50.0607C51.1449 15.5779 52.1465 16.1556 52.6886 17.0924L59.262 28.4811C59.8066 29.4217 59.8066 30.577 59.2645 31.5139Z" fill="#1A1A1A"/>
<path d="M59.2644 31.5138L52.691 42.905C52.4238 43.3652 52.0405 43.7474 51.5793 44.0131C51.1182 44.2789 50.5954 44.419 50.0632 44.4195H36.9125C36.3804 44.4198 35.8577 44.2801 35.3968 44.0142C34.9359 43.7483 34.5532 43.3657 34.2872 42.905L27.7112 31.5138C27.4443 31.053 27.3037 30.5299 27.3037 29.9974C27.3037 29.4649 27.4443 28.9418 27.7112 28.481L34.2872 17.0924C34.5538 16.6321 34.9366 16.25 35.3974 15.9842C35.8581 15.7184 36.3806 15.5783 36.9125 15.5779H50.0606C51.1448 15.5779 52.1464 16.1555 52.6885 17.0924L59.2619 28.481C59.8065 29.4217 59.8065 30.5769 59.2644 31.5138Z" fill="#FFAD00"/>
</g>
<defs>
<clipPath id="clip0_1532_358">
<rect width="60" height="60" fill="white"/>
</clipPath>
</defs>
</svg>
