<svg width="25" height="24" viewBox="0 0 25 24" fill="none" xmlns="http://www.w3.org/2000/svg">
<path d="M2 9.73404C2 14.2828 5.69378 17.9705 10.2501 17.9705C11.9713 17.9705 13.5696 17.4441 14.8926 16.5441C14.787 17.007 14.8007 17.489 14.9326 17.9452C15.0644 18.4013 15.31 18.8165 15.6464 19.1521L18.0329 21.5347C18.5622 22.052 19.2746 22.34 20.0153 22.336C20.756 22.3321 21.4653 22.0366 21.9891 21.5136C22.5129 20.9907 22.8089 20.2826 22.8128 19.5431C22.8168 18.8036 22.5283 18.0924 22.0102 17.5639L19.6236 15.1814C19.2903 14.8481 18.8782 14.604 18.4255 14.4716C17.9728 14.3392 17.4939 14.3227 17.0331 14.4236C17.9908 13.0469 18.5028 11.4102 18.5001 9.73404C18.5001 5.18526 14.8064 1.49756 10.2501 1.49756C5.69378 1.49756 2 5.18526 2 9.73404ZM17.0001 9.73404C17.0001 10.619 16.8255 11.4953 16.4863 12.3129C16.1471 13.1305 15.6499 13.8734 15.0231 14.4992C14.3963 15.125 13.6522 15.6214 12.8332 15.96C12.0142 16.2987 11.1365 16.473 10.2501 16.473C9.36364 16.473 8.48589 16.2987 7.66693 15.96C6.84798 15.6214 6.10386 15.125 5.47706 14.4992C4.85026 13.8734 4.35305 13.1305 4.01383 12.3129C3.67461 11.4953 3.50001 10.619 3.50001 9.73404C3.50001 7.94676 4.21118 6.23269 5.47706 4.96889C6.74294 3.7051 8.45984 2.9951 10.2501 2.9951C12.0403 2.9951 13.7572 3.7051 15.0231 4.96889C16.289 6.23269 17.0001 7.94676 17.0001 9.73404Z" fill="#1A1A1A"/>
<path fill-rule="evenodd" clip-rule="evenodd" d="M10.25 15.7242C13.5638 15.7242 16.2501 13.0423 16.2501 9.73407C16.2501 6.42579 13.5638 3.7439 10.25 3.7439C6.93631 3.7439 4.25 6.42579 4.25 9.73407C4.25 13.0423 6.93631 15.7242 10.25 15.7242ZM12.5001 8.9853C13.3285 8.9853 14.0001 8.31482 14.0001 7.48775C14.0001 6.66068 13.3285 5.99021 12.5001 5.99021C11.6716 5.99021 11.0001 6.66068 11.0001 7.48775C11.0001 8.31482 11.6716 8.9853 12.5001 8.9853Z" fill="#1A1A1A"/>
</svg>
