<svg width="27" height="27" viewBox="0 0 27 27" fill="none" xmlns="http://www.w3.org/2000/svg">
<path d="M13.4997 26.7944C20.6791 26.7944 26.4995 20.9735 26.4995 13.7947C26.4995 6.61586 20.6796 0.794922 13.4997 0.794922C6.31993 0.794922 0.5 6.61637 0.5 13.7947C0.5 20.973 6.32043 26.7944 13.4997 26.7944Z" fill="#F0F0F0"/>
<path fill-rule="evenodd" clip-rule="evenodd" d="M24.5779 7.00697H12.9146V3.6123H21.5808C22.7708 4.55972 23.7852 5.70872 24.5779 7.00697ZM26.4989 13.7948H12.9218V10.4011H26.0515C26.3494 11.5077 26.4998 12.6488 26.4989 13.7948ZM13.4991 26.7945C16.4381 26.8013 19.2915 25.8053 21.5879 23.9711H5.41085C7.70691 25.8056 10.5602 26.8016 13.4991 26.7945ZM24.5921 20.5841H2.40618C1.75909 19.5288 1.26772 18.3856 0.947266 17.1899H26.051C25.7306 18.3857 25.2393 19.5288 24.5921 20.5841Z" fill="#D80027"/>
<path fill-rule="evenodd" clip-rule="evenodd" d="M6.53523 2.81802H6.52356V2.82614L6.53523 2.81802ZM6.53523 2.81802H7.7108L6.60328 3.61273L7.02222 4.9127L5.91724 4.11799L4.81937 4.9127L5.18042 3.79097C4.21005 4.60312 3.36342 5.55257 2.6673 6.60927H3.05019L2.34942 7.11707L2.03153 7.67566L2.36364 8.70853L1.73548 8.25151L1.30233 9.26L1.66338 10.3924H3.03444L1.9447 11.1952L2.36364 12.4952L1.25866 11.7005L0.60867 12.1768C0.536137 12.7131 0.499831 13.2536 0.500001 13.7947H13.4997V0.794933C11.0329 0.791724 8.61647 1.49365 6.53523 2.81802ZM7.01968 12.4886L7.02933 12.4962H7.02222L7.01968 12.4886ZM6.60277 11.1957L7.01968 12.4886L5.91673 11.7015L4.81175 12.4962L5.23069 11.1963L4.12571 10.4015H5.49678L5.91572 9.10157L6.33465 10.4015H7.70572L6.60277 11.1957ZM6.61039 7.4116L7.02933 8.71157L5.92435 7.91686L4.81937 8.71157L5.23831 7.4116L4.13333 6.61689H5.5044L5.92333 5.31691L6.34227 6.61689H7.71334L6.61039 7.4116ZM10.5895 11.7015L11.6945 12.4962L11.2756 11.1963L12.3826 10.4015H11.0115L10.5926 9.10157L10.1736 10.4015H8.80257L9.90755 11.1963L9.48861 12.4962L10.5895 11.7015ZM11.2756 7.4116L11.6945 8.71157L10.5895 7.91686L9.48455 8.71157L9.90349 7.4116L8.79851 6.61689H10.1696L10.5885 5.31691L11.0075 6.61689H12.3785L11.2756 7.4116ZM11.6945 4.92692L11.2756 3.62695L12.3826 2.83224H11.0115L10.5926 1.53226L10.1736 2.83224H8.80257L9.90755 3.62695L9.48861 4.92692L10.5936 4.13221L11.6945 4.92692Z" fill="#0052B4"/>
</svg>
