<svg width="25" height="24" viewBox="0 0 25 24" fill="none" xmlns="http://www.w3.org/2000/svg">
<path d="M16.4045 13.0291L14.2832 15.147L20.2795 21.1334L22.4008 19.0155L16.4045 13.0291Z" fill="#1A1A1A"/>
<path d="M17.9997 9.98367C19.9297 9.98367 21.4998 8.41625 21.4998 6.48941C21.4998 5.91036 21.3398 5.37124 21.0898 4.89203L18.3897 7.58761L16.8997 6.10005L19.5997 3.40447C19.1197 3.15488 18.5797 2.99514 17.9997 2.99514C16.0697 2.99514 14.4997 4.56257 14.4997 6.48941C14.4997 6.89874 14.5797 7.2881 14.7097 7.64751L12.8597 9.49448L11.0797 7.71739L11.7897 7.00856L10.3797 5.60087L12.4997 3.48434C11.3297 2.31626 9.42967 2.31626 8.25966 3.48434L4.71963 7.01854L6.12964 8.42623H3.30962L2.59961 9.13507L6.13964 12.6693L6.84964 11.9604V9.13507L8.25966 10.5428L8.96966 9.83392L10.7497 11.611L3.33962 19.0089L5.45963 21.1254L16.8397 9.77402C17.1997 9.90381 17.5897 9.98367 17.9997 9.98367Z" fill="#1A1A1A"/>
</svg>
