<svg width="36" height="23" viewBox="0 0 36 23" fill="none" xmlns="http://www.w3.org/2000/svg">
<path d="M35.6327 0.921687C35.436 0.71512 35.1567 0.608887 34.8714 0.608887L7.34102 0.638395C7.00461 0.638395 6.70558 0.793809 6.50885 1.03579C6.3554 1.15186 6.2354 1.31515 6.17638 1.51385L0.355142 20.994C0.213496 21.4662 0.302025 21.9639 0.59712 22.3593C0.892215 22.7548 1.34273 22.981 1.83652 22.981H7.99023V22.9751H11.0887C11.2146 22.9751 11.3248 22.8905 11.3563 22.7685L11.7615 21.2439L12.6508 17.8896C12.7413 17.5493 13.0482 17.325 13.3846 17.325C13.4495 17.325 13.5144 17.3329 13.5793 17.3506C13.9846 17.4568 14.2266 17.8739 14.1184 18.2792L13.3314 21.2419L12.9655 22.6249C12.9183 22.8 13.0521 22.9731 13.2331 22.9731H17.3015C17.4274 22.9731 17.5375 22.8885 17.569 22.7666L17.9723 21.2419L18.4602 19.4045C18.5507 19.0641 18.8576 18.8398 19.194 18.8398C19.2589 18.8398 19.3238 18.8477 19.3888 18.8654C19.794 18.9736 20.036 19.3887 19.9278 19.794L19.5422 21.2419L19.1763 22.6249C19.1291 22.8 19.2629 22.9731 19.4438 22.9731H22.7371C23.2958 22.9731 23.8191 22.7567 24.2145 22.3613L33.7894 12.7845C34.1179 12.454 34.2006 11.9523 33.9841 11.5313C33.7973 11.1674 33.4077 10.951 32.9966 10.951H27.2363L35.6386 2.43454C36.038 2.02928 36.0655 1.36826 35.6367 0.915785L35.6327 0.921687ZM6.25113 21.2537H2.0785L6.25113 7.29376V21.2537ZM24.8992 10.8565C24.5942 11.1654 24.5037 11.6258 24.6729 12.0251C24.8401 12.4265 25.2297 12.6861 25.6644 12.6861H31.4424L22.9889 21.1416C22.9201 21.2104 22.8315 21.2459 22.7351 21.2459H21.0669L21.3502 20.1776C21.5036 19.6012 21.4229 18.9972 21.1239 18.4818C20.8249 17.9644 20.3409 17.5965 19.7645 17.445C19.5757 17.3959 19.3829 17.3703 19.1901 17.3703C18.1789 17.3703 17.2897 18.0549 17.03 19.0326L16.4417 21.2478H14.8541L15.5407 18.6628C15.8575 17.4726 15.1453 16.245 13.9551 15.9282C13.7662 15.8791 13.5734 15.8535 13.3806 15.8535C12.3694 15.8535 11.4802 16.5361 11.2205 17.5159L10.229 21.2478H7.99613V2.37158L33.3015 2.34208L24.9011 10.8565H24.8992Z" fill="#FFAD00"/>
</svg>
