<svg width="562" height="89" viewBox="0 0 562 89" fill="none" xmlns="http://www.w3.org/2000/svg">
<path d="M132.749 3.25118C132.01 2.47533 130.961 2.07632 129.889 2.07632L26.4867 2.18716C25.2232 2.18716 24.1001 2.77088 23.3612 3.67974C22.7848 4.11569 22.3341 4.729 22.1124 5.4753L0.24819 78.6417C-0.283823 80.4151 0.0486875 82.2845 1.15705 83.7697C2.2654 85.2549 3.9575 86.1047 5.81215 86.1047H28.9251V86.0825H40.5629C41.0358 86.0825 41.4496 85.7648 41.5678 85.3067L43.0899 79.5802L46.4298 66.9818C46.7697 65.7035 47.9224 64.8611 49.1859 64.8611C49.4298 64.8611 49.6736 64.8907 49.9174 64.9572C51.4396 65.3562 52.3484 66.9227 51.942 68.4448L48.9864 79.5728L47.612 84.7672C47.4347 85.4249 47.9372 86.0751 48.617 86.0751H63.8975C64.3704 86.0751 64.7842 85.7574 64.9024 85.2993L66.4172 79.5728L68.2497 72.6714C68.5896 71.3931 69.7423 70.5507 71.0058 70.5507C71.2496 70.5507 71.4935 70.5803 71.7373 70.6468C73.2595 71.0532 74.1683 72.6123 73.7619 74.1344L72.3137 79.5728L70.9393 84.7672C70.762 85.4249 71.2644 86.0751 71.9442 86.0751H84.3135C86.412 86.0751 88.3775 85.2623 89.8627 83.7771L125.825 47.8072C127.059 46.5658 127.37 44.6816 126.557 43.1004C125.855 41.7334 124.392 40.9206 122.847 40.9206H101.212L132.771 8.93337C134.271 7.41122 134.374 4.9285 132.764 3.22902L132.749 3.25118ZM22.3932 79.6171H6.721L22.3932 27.1843V79.6171ZM92.4341 40.5659C91.2888 41.726 90.9489 43.455 91.5843 44.955C92.2124 46.4624 93.6754 47.4377 95.3084 47.4377H117.01L85.2593 79.1959C85.0007 79.4545 84.6682 79.5876 84.3061 79.5876H78.0402L79.1042 75.5753C79.6805 73.4103 79.3776 71.1418 78.2545 69.2059C77.1313 67.2626 75.3136 65.8808 73.1486 65.3119C72.4393 65.1272 71.7151 65.0311 70.991 65.0311C67.193 65.0311 63.8532 67.6025 62.8778 71.2749L60.6685 79.5949H54.7055L57.2843 69.8857C58.474 65.4153 55.7991 60.8045 51.3287 59.6149C50.6194 59.4302 49.8953 59.3341 49.1711 59.3341C45.3732 59.3341 42.0333 61.8981 41.058 65.5779L37.3339 79.5949H28.9473V8.69691L123.993 8.58608L92.4415 40.5659H92.4341Z" fill="#FFAD00"/>
<path d="M149.51 40.66V0.663025H159.345V40.66H149.51ZM161.901 26.9976H154.793V18.5519H161.347C163.157 18.5519 164.561 18.1825 165.544 17.4436C166.527 16.7047 167.236 15.6332 167.679 14.2219L172.46 0.670399H182.236V1.2837L176.458 16.7268C175.793 18.6554 174.773 20.3918 173.399 21.9509C172.032 23.5026 170.376 24.7366 168.455 25.6454C166.527 26.5543 164.347 27.005 161.901 27.005V26.9976ZM171.226 21.8844L182.894 40.0467V40.66H172.342L163.29 25.4385L171.234 21.8844H171.226Z" fill="#FFAD00"/>
<path d="M189.226 30.4413H189.78C190.703 30.9216 191.819 31.3871 193.112 31.8305C194.405 32.2738 195.824 32.6359 197.361 32.9167C198.898 33.1974 200.442 33.3304 202.001 33.3304C203.56 33.3304 204.994 33.2196 206.087 32.9979C207.181 32.7763 208.016 32.4142 208.585 31.9117C209.161 31.4093 209.442 30.7369 209.442 29.8871C209.442 28.8157 209.08 28.0177 208.356 27.5005C207.632 26.9832 206.346 26.5768 204.499 26.2813L200.834 25.7271C198.092 25.3207 195.772 24.6187 193.866 23.6138C191.96 22.6163 190.526 21.2937 189.558 19.6459C188.598 17.9982 188.11 16.0105 188.11 13.6755C188.11 10.8234 188.782 8.3776 190.134 6.34561C191.487 4.30623 193.548 2.74714 196.326 1.65356C199.105 0.559975 202.659 0.0131836 206.989 0.0131836C208.917 0.0131836 210.765 0.168342 212.545 0.486072C214.326 0.803801 215.804 1.21759 216.986 1.73482V10.1214H216.373C215.265 9.60417 213.839 9.12388 212.095 8.68053C210.351 8.23719 208.408 8.01552 206.265 8.01552C204.41 8.01552 202.851 8.20025 201.573 8.5697C200.294 8.93915 199.326 9.50812 198.654 10.2618C197.989 11.0229 197.657 11.9761 197.657 13.1214C197.657 14.5992 198.137 15.6558 199.105 16.2839C200.065 16.9119 201.624 17.4144 203.767 17.7839L207.27 18.338C209.457 18.6705 211.444 19.2617 213.24 20.1188C215.036 20.9685 216.462 22.1582 217.518 23.6729C218.575 25.1951 219.1 27.1901 219.1 29.6728C219.1 31.7861 218.656 33.5891 217.77 35.089C216.883 36.589 215.649 37.7934 214.075 38.7023C212.501 39.6111 210.683 40.2762 208.629 40.7047C206.575 41.1333 204.358 41.3402 201.994 41.3402C200.324 41.3402 198.691 41.2367 197.08 41.0372C195.469 40.8303 193.977 40.5643 192.61 40.2318C191.243 39.8993 190.112 39.5446 189.218 39.1752V30.4561L189.226 30.4413Z" fill="#FFAD00"/>
<path d="M221.833 40.6621L226.274 14.4457C226.754 11.5566 227.53 9.18469 228.609 7.33743C229.68 5.48277 231.025 4.04189 232.636 3.00743C234.247 1.97296 236.146 1.24884 238.333 0.842438C240.52 0.43604 242.958 0.229156 245.663 0.229156C247.214 0.229156 248.899 0.325195 250.717 0.509922C252.527 0.694648 254.175 0.953279 255.66 1.28579L255.771 1.9508C255.623 2.61581 255.52 3.50249 255.468 4.61824C255.409 5.72659 255.372 6.85714 255.357 8.00983C255.335 9.15514 255.328 10.1009 255.328 10.8398V40.6695H245.493V11.8374C245.493 10.7659 245.537 9.7758 245.633 8.86694C245.722 7.95809 245.847 7.13792 245.995 6.39163L247.274 8.77828C246.867 8.66744 246.32 8.58617 245.633 8.52705C244.946 8.46794 244.311 8.44578 243.719 8.44578C241.976 8.44578 240.586 8.67485 239.552 9.14036C238.518 9.60587 237.727 10.3004 237.195 11.2241C236.655 12.1477 236.256 13.3373 235.998 14.7782L231.72 40.6621H221.833ZM228.941 30.443V22.5589H250.052V30.443H228.941Z" fill="#FFAD00"/>
<path d="M270.122 20.6659C270.122 16.4836 270.942 12.8408 272.59 9.75222C274.237 6.6636 276.698 4.26216 279.979 2.55529C283.252 0.855804 287.338 -0.00134277 292.23 -0.00134277C294.121 -0.00134277 295.821 0.146443 297.343 0.442005C298.858 0.737567 300.062 1.07008 300.956 1.43953V9.93695H300.343C299.456 9.45666 298.363 9.06505 297.069 8.76949C295.769 8.47392 294.365 8.32614 292.85 8.32614C289.924 8.32614 287.523 8.82859 285.661 9.82612C283.791 10.8236 282.41 12.2497 281.523 14.1044C280.636 15.959 280.193 18.1388 280.193 20.6585C280.193 23.1781 280.636 25.3653 281.523 27.2126C282.41 29.0672 283.791 30.4933 285.661 31.4908C287.53 32.4884 289.924 32.9908 292.85 32.9908C294.365 32.9908 295.776 32.843 297.069 32.5475C298.363 32.2519 299.456 31.8603 300.343 31.38H300.956V39.8774C300.069 40.2469 298.865 40.5794 297.343 40.8749C295.821 41.1705 294.121 41.3183 292.23 41.3183C287.338 41.3183 283.259 40.4833 279.979 38.8208C276.698 37.1508 274.237 34.7716 272.59 31.6829C270.942 28.5943 270.122 24.9146 270.122 20.6585V20.6659Z" fill="#FFAD00"/>
<path d="M308.005 40.66V0.663025H317.891V40.66H308.005ZM313.332 31.1651V23.1627H322.716C324.564 23.1627 326.079 22.7637 327.246 21.9657C328.413 21.1676 329.271 20.1406 329.832 18.8844C330.386 17.6283 330.667 16.2761 330.667 14.8278C330.667 12.7885 330.083 11.2885 328.916 10.3279C327.748 9.36732 326.204 8.88703 324.276 8.88703H313.332V0.663025H324.327C327.955 0.663025 330.963 1.22458 333.357 2.3551C335.743 3.48563 337.539 5.08905 338.743 7.15799C339.948 9.23432 340.546 11.6727 340.546 14.4879C340.546 17.0815 340.066 19.4017 339.105 21.4558C338.145 23.51 336.837 25.2612 335.189 26.7021C333.541 28.1429 331.665 29.2513 329.551 30.005C327.438 30.766 325.236 31.1429 322.938 31.1429H313.325L313.332 31.1651ZM330.889 40.66L322.894 29.1035L332.115 27.5444L341.78 40.0984V40.6526H330.896L330.889 40.66Z" fill="#FFAD00"/>
<path d="M343.192 40.6621L347.633 14.4457C348.113 11.5566 348.889 9.18469 349.968 7.33743C351.039 5.48277 352.384 4.04189 353.995 3.00743C355.606 1.97296 357.504 1.24884 359.692 0.842438C361.879 0.43604 364.317 0.229156 367.022 0.229156C368.573 0.229156 370.258 0.325195 372.076 0.509922C373.886 0.694648 375.534 0.953279 377.019 1.28579L377.13 1.9508C376.982 2.61581 376.879 3.50249 376.827 4.61824C376.768 5.72659 376.731 6.85714 376.716 8.00983C376.694 9.15514 376.686 10.1009 376.686 10.8398V40.6695H366.852V11.8374C366.852 10.7659 366.896 9.7758 366.992 8.86694C367.081 7.95809 367.206 7.13792 367.354 6.39163L368.632 8.77828C368.226 8.66744 367.679 8.58617 366.992 8.52705C366.305 8.46794 365.669 8.44578 365.078 8.44578C363.334 8.44578 361.945 8.67485 360.911 9.14036C359.876 9.60587 359.086 10.3004 358.554 11.2241C358.014 12.1477 357.615 13.3373 357.357 14.7782L353.078 40.6621H343.192ZM350.3 30.443V22.5589H371.411V30.443H350.3Z" fill="#FFAD00"/>
<path d="M385.214 30.4413H385.768C386.692 30.9216 387.807 31.3871 389.101 31.8305C390.394 32.2738 391.812 32.6359 393.349 32.9167C394.886 33.1974 396.43 33.3304 397.99 33.3304C399.549 33.3304 400.982 33.2196 402.076 32.9979C403.169 32.7763 404.004 32.4142 404.573 31.9117C405.15 31.4093 405.43 30.7369 405.43 29.8871C405.43 28.8157 405.068 28.0177 404.344 27.5005C403.62 26.9832 402.334 26.5768 400.487 26.2813L396.822 25.7271C394.081 25.3207 391.761 24.6187 389.854 23.6138C387.948 22.6163 386.514 21.2937 385.546 19.6459C384.586 17.9982 384.098 16.0105 384.098 13.6755C384.098 10.8234 384.771 8.3776 386.123 6.34561C387.475 4.30623 389.536 2.74714 392.315 1.65356C395.093 0.559975 398.647 0.0131836 402.977 0.0131836C404.906 0.0131836 406.753 0.168342 408.534 0.486072C410.315 0.803801 411.792 1.21759 412.975 1.73482V10.1214H412.361C411.253 9.60417 409.827 9.12388 408.083 8.68053C406.339 8.23719 404.396 8.01552 402.253 8.01552C400.398 8.01552 398.839 8.20025 397.561 8.5697C396.283 8.93915 395.315 9.50812 394.642 10.2618C393.977 11.0229 393.645 11.9761 393.645 13.1214C393.645 14.5992 394.125 15.6558 395.093 16.2839C396.054 16.9119 397.613 17.4144 399.756 17.7839L403.258 18.338C405.445 18.6705 407.433 19.2617 409.228 20.1188C411.024 20.9685 412.45 22.1582 413.507 23.6729C414.563 25.1951 415.088 27.1901 415.088 29.6728C415.088 31.7861 414.645 33.5891 413.758 35.089C412.871 36.589 411.637 37.7934 410.063 38.7023C408.489 39.6111 406.672 40.2762 404.618 40.7047C402.563 41.1333 400.347 41.3402 397.982 41.3402C396.312 41.3402 394.679 41.2367 393.068 41.0372C391.458 40.8303 389.965 40.5643 388.598 40.2318C387.231 39.8993 386.101 39.5446 385.207 39.1752V30.4561L385.214 30.4413Z" fill="#FFAD00"/>
<path d="M420.542 40.66V0.663025H430.428V40.66H420.542ZM425.876 24.8844V16.3278H449.536V24.8844H425.876ZM444.985 40.66V0.663025H454.819V40.66H444.985Z" fill="#FFAD00"/>
<path d="M462.111 40.66V0.663025H471.998V32.1035H487.219V40.66H462.111Z" fill="white"/>
<path d="M489.347 40.6621L493.788 14.4457C494.268 11.5566 495.044 9.18469 496.122 7.33743C497.194 5.48277 498.539 4.04189 500.149 3.00743C501.76 1.97296 503.659 1.24884 505.846 0.842438C508.034 0.43604 510.472 0.229156 513.176 0.229156C514.728 0.229156 516.413 0.325195 518.23 0.509922C520.041 0.694648 521.689 0.953279 523.174 1.28579L523.285 1.9508C523.137 2.61581 523.033 3.50249 522.982 4.61824C522.923 5.72659 522.886 6.85714 522.871 8.00983C522.849 9.15514 522.841 10.1009 522.841 10.8398V40.6695H513.006V11.8374C513.006 10.7659 513.051 9.7758 513.147 8.86694C513.236 7.95809 513.361 7.13792 513.509 6.39163L514.787 8.77828C514.381 8.66744 513.834 8.58617 513.147 8.52705C512.46 8.46794 511.824 8.44578 511.233 8.44578C509.489 8.44578 508.1 8.67485 507.066 9.14036C506.031 9.60587 505.241 10.3004 504.709 11.2241C504.169 12.1477 503.77 13.3373 503.511 14.7782L499.233 40.6621H489.347ZM496.455 30.443V22.5589H517.565V30.443H496.455Z" fill="white"/>
<path d="M529.892 40.66V0.663025H539.779V40.66H529.892ZM535.227 40.66V32.8867H547.5C548.609 32.8867 549.54 32.6059 550.279 32.0517C551.017 31.4975 551.387 30.5887 551.387 29.3326C551.387 28.2242 551.025 27.3966 550.301 26.8646C549.577 26.3252 548.646 26.0592 547.493 26.0592H535.22V18.8918H545.165C546.421 18.8918 547.449 18.6258 548.247 18.0864C549.045 17.547 549.65 16.8451 550.079 15.9732C550.508 15.1012 550.714 14.148 550.714 13.1136C550.714 11.4067 550.219 10.2614 549.244 9.67029C548.261 9.07916 547.049 8.78359 545.609 8.78359H535.22V0.670399H546.333C551.106 0.670399 554.675 1.62358 557.025 3.52996C559.374 5.43634 560.549 8.22203 560.549 11.887C560.549 13.4092 560.246 14.9091 559.633 16.3869C559.02 17.8721 558.111 19.1948 556.914 20.3623C555.709 21.5297 554.217 22.4459 552.444 23.111L552 21.1677C555 21.3893 557.283 22.3351 558.865 23.9977C560.438 25.6676 561.222 27.6996 561.222 30.1084C561.222 32.2956 560.712 34.1724 559.692 35.7463C558.672 37.3201 557.172 38.5319 555.192 39.3817C553.212 40.2314 550.774 40.66 547.884 40.66H535.22H535.227Z" fill="white"/>
<path d="M159.175 78.695L155.791 85.2048H148.712V84.8279L155.193 74.4315L159.175 78.7024V78.695ZM165.53 76.0719C165.087 75.0818 164.621 73.9882 164.141 72.7838C163.653 71.5794 163.106 70.1607 162.5 68.5203L164.555 69.407C163.963 69.3848 163.372 69.4661 162.789 69.6434C162.197 69.8208 161.658 70.0794 161.163 70.4193C160.668 70.7592 160.269 71.1582 159.973 71.6237C159.678 72.0892 159.53 72.5917 159.53 73.1384C159.53 73.7739 159.722 74.3059 160.114 74.7493C160.505 75.1926 161.023 75.5325 161.665 75.7616C162.308 75.9906 162.988 76.1089 163.705 76.1089C164.422 76.1089 165.153 76.0498 165.84 75.9315C166.527 75.8133 167.281 75.6581 167.68 75.5325L169.091 75.8059L166.609 81.2886C165.936 81.4955 165.264 81.6802 164.599 81.828C163.934 81.9758 163.232 82.0497 162.5 82.0497C161.806 82.0497 161.045 81.9684 160.225 81.8132C159.404 81.658 158.584 81.392 157.757 81.0226C156.936 80.6531 156.183 80.1507 155.51 79.5226C154.838 78.8871 154.291 78.0965 153.885 77.1359C153.471 76.1753 153.271 75.0375 153.271 73.7074C153.271 71.9784 153.663 70.4784 154.439 69.2001C155.222 67.9292 156.257 66.8651 157.55 66.0228C158.843 65.1804 160.291 64.545 161.88 64.1238C163.468 63.7026 165.087 63.4883 166.734 63.4883L167.362 63.8652C167.954 65.3799 168.619 66.976 169.357 68.6533C170.096 70.3306 170.857 71.9488 171.648 73.5227C171.655 73.5375 171.663 73.5522 171.67 73.567C172.845 75.902 171.921 78.7394 169.579 79.8995L168.279 80.5423L166.601 81.2738" fill="#FFAD00"/>
<path d="M176.214 78.407L178.238 73.2199H187.342C188.398 73.2199 189.204 73.1164 189.758 72.9169C190.312 72.7174 190.704 72.4514 190.925 72.1263C191.147 71.8012 191.258 71.4687 191.258 71.1288C191.258 70.582 191.147 70.1091 190.925 69.7101C190.704 69.3111 190.512 69.0007 190.342 68.7938H192.965C191.975 69.0229 191.118 69.2076 190.408 69.3332C189.692 69.4588 189.041 69.5475 188.465 69.5993C187.889 69.651 187.297 69.6805 186.714 69.6805H185.45C184.926 69.6805 184.275 69.6583 183.507 69.614C182.738 69.5697 181.955 69.4736 181.165 69.3259C180.374 69.1781 179.65 68.9564 179 68.6608L180.647 63.4737H181.024C181.889 63.7471 182.857 63.9244 183.935 63.9983C185.007 64.0722 186.063 64.1092 187.098 64.1092H188.11C189.182 64.1092 190.224 64.0796 191.221 64.0131C192.219 63.9466 193.039 63.858 193.674 63.7323H194.051C194.598 64.2791 195.152 64.9663 195.714 65.7865C196.268 66.6067 196.748 67.5007 197.132 68.4539C197.524 69.4145 197.716 70.3899 197.716 71.38C197.716 72.3701 197.568 73.2421 197.273 74.1287C196.977 75.0154 196.489 75.806 195.802 76.5006C195.115 77.1952 194.184 77.7494 193.002 78.1631C191.82 78.5769 190.357 78.7764 188.605 78.7764H176.214V78.3996V78.407Z" fill="#FFAD00"/>
<path d="M201.633 55.3977L208.46 54.7623L208.586 55.0135C208.505 55.3904 208.446 55.8706 208.409 56.4396C208.372 57.0086 208.357 57.5849 208.342 58.176C208.335 58.7671 208.327 59.2696 208.327 59.6908V78.7841H201.625V55.3903L201.633 55.3977ZM207.226 78.7915V73.2275H212.192V78.156L211.564 78.7915H207.234H207.226Z" fill="#FFAD00"/>
<path d="M212.185 73.2259H218.192L216.012 74.1422C215.695 73.9131 215.488 73.4771 215.377 72.8491C215.273 72.2136 215.222 71.4156 215.222 70.4476V63.8123L221.547 63.1768H221.924V75.9451L219.204 73.2259H225.84V78.1544L225.204 78.7899H211.549V73.8614L212.185 73.2259ZM221.325 73.2259H238.771C240.33 73.2259 241.372 73.0412 241.896 72.6717C242.421 72.3023 242.687 71.7924 242.687 71.1422C242.687 70.5954 242.576 70.1225 242.354 69.7235C242.133 69.3245 241.941 69.0142 241.771 68.8073H244.394C243.404 69.0363 242.546 69.221 241.837 69.3467C241.12 69.4723 240.47 69.5609 239.894 69.6127C239.31 69.6644 238.726 69.694 238.143 69.694H221.325L223.475 64.13H239.473C240.544 64.13 241.586 64.1004 242.583 64.0339C243.588 63.9674 244.401 63.8788 245.037 63.7531H245.413C245.938 64.2408 246.47 64.8393 247.009 65.5561C247.549 66.2728 248.007 67.056 248.384 67.8984C248.761 68.7407 248.953 69.5979 248.953 70.455C248.953 71.4895 248.701 72.4796 248.206 73.4254C247.711 74.3712 246.839 75.2283 245.598 75.982L244.682 78.1027C244.069 78.317 243.374 78.4796 242.598 78.6052C241.822 78.7308 240.943 78.7973 239.975 78.7973H221.325V73.2333V73.2259ZM238.896 78.7899V73.2259H252.27V78.1544L251.642 78.7899H238.904H238.896Z" fill="#FFAD00"/>
<path d="M252.272 73.2273H258.405L256.225 74.1435C255.907 73.9145 255.7 73.4785 255.589 72.8504C255.486 72.215 255.434 71.417 255.434 70.449V62.1068L261.759 61.4713H262.136V75.9465L259.417 73.2273H265.927V78.1558L265.291 78.7913H251.636V73.8627L252.272 73.2273ZM256.129 59.225C255.346 59.225 254.681 58.9812 254.119 58.4787C253.557 57.9837 253.284 57.2817 253.284 56.3803C253.284 55.4788 253.565 54.7473 254.119 54.2596C254.673 53.7719 255.346 53.5355 256.129 53.5355C256.912 53.5355 257.607 53.7793 258.153 54.2596C258.7 54.7473 258.974 55.4492 258.974 56.3803C258.974 57.3113 258.7 57.991 258.153 58.4787C257.607 58.9738 256.934 59.225 256.129 59.225ZM262.542 58.5231C261.767 58.5231 261.094 58.2793 260.533 57.7768C259.971 57.2817 259.698 56.5798 259.698 55.6783C259.698 54.7768 259.978 54.0453 260.533 53.5576C261.087 53.07 261.759 52.8335 262.542 52.8335C263.326 52.8335 264.02 53.0773 264.567 53.5576C265.114 54.0453 265.387 54.7473 265.387 55.6783C265.387 56.6093 265.114 57.2891 264.567 57.7768C264.02 58.2719 263.348 58.5231 262.542 58.5231Z" fill="#FFAD00"/>
<path d="M265.925 73.2286H266.56C266.937 73.2507 267.262 73.2951 267.543 73.3542C267.816 73.4207 268.119 73.502 268.459 73.6054V55.3988L275.287 54.7633L275.412 55.0146C275.331 55.3914 275.272 55.8717 275.235 56.4406C275.198 57.0096 275.183 57.5859 275.169 58.1771C275.161 58.7682 275.154 59.2706 275.154 59.6918V75.8443C275.826 75.6374 276.44 75.3714 276.986 75.0537C277.533 74.736 278.021 74.4034 278.457 74.0561C278.893 73.7088 279.262 73.3689 279.58 73.029V55.3914L286.407 54.7559L286.533 55.0072C286.511 55.1328 286.481 55.4062 286.437 55.8273C286.393 56.2485 286.356 56.7879 286.326 57.4382C286.296 58.0884 286.282 58.8421 286.282 59.6844V72.2015C286.282 73.3616 286.045 74.3369 285.572 75.1276C285.099 75.9182 284.383 76.6423 283.422 77.3073C282.462 77.9724 281.265 78.6595 279.816 79.3763C278.375 80.093 276.691 80.9428 274.777 81.9329C274.23 81.4674 273.609 80.9944 272.915 80.5142C272.22 80.0265 271.371 79.6201 270.373 79.2802C269.368 78.9403 268.142 78.7778 266.693 78.7778H265.304V73.8493L265.94 73.2138L265.925 73.2286Z" fill="#FFAD00"/>
<path d="M301.964 87.1366C300.176 87.1366 298.631 87.0184 297.346 86.7893C296.06 86.5603 294.73 86.2203 293.363 85.777L295.003 80.0875H295.38C295.609 80.154 296.052 80.2796 296.688 80.4865C297.331 80.686 298.151 80.8781 299.141 81.0554C300.131 81.2328 301.247 81.3214 302.488 81.3214C303.478 81.3214 304.395 81.2475 305.237 81.0998C306.079 80.952 306.855 80.7598 307.557 80.5308C308.266 80.3017 308.887 80.0653 309.441 79.8362L309.663 81.2254C309.005 80.9298 308.333 80.5751 307.624 80.1539C306.914 79.7328 306.234 79.2599 305.569 78.7279C304.904 78.2032 304.306 77.6195 303.781 76.9914C303.257 76.356 302.836 75.6836 302.533 74.9669C302.23 74.2501 302.074 73.5038 302.074 72.7205C302.074 71.095 302.503 69.6984 303.353 68.5162C304.21 67.3339 305.363 66.2847 306.833 65.3537C308.296 64.43 309.959 63.5507 311.813 62.7305H312.19C312.656 63.3808 313.225 64.1049 313.897 64.8956C314.569 65.6862 315.279 66.4547 316.018 67.2009C316.757 67.9472 317.458 68.6049 318.138 69.1738L314.725 74.1023H314.348C313.587 73.489 312.929 72.8979 312.353 72.3142C311.784 71.7378 311.252 71.1098 310.757 70.43C310.262 69.7576 309.722 68.9891 309.131 68.1246L311.725 69.7354C311.555 69.6541 311.333 69.6171 311.06 69.6245C310.786 69.6319 310.505 69.6984 310.225 69.8167C309.944 69.9349 309.663 70.0901 309.404 70.2896C309.146 70.4891 308.932 70.7255 308.776 70.9989C308.621 71.2723 308.54 71.59 308.54 71.9447C308.54 72.3659 308.732 72.8092 309.109 73.2747C309.486 73.7402 309.966 74.2131 310.528 74.7008C311.097 75.1885 311.665 75.6984 312.234 76.2525C312.803 76.7993 313.276 77.3683 313.653 77.9594C314.03 78.5505 314.222 79.1712 314.222 79.8214C314.222 80.6638 313.949 81.5209 313.402 82.3781C312.855 83.2426 312.05 84.0332 310.986 84.75C309.922 85.4667 308.636 86.043 307.129 86.4716C305.621 86.9001 303.9 87.1218 301.956 87.1218L301.964 87.1366ZM298.04 78.8535C297.257 78.8535 296.592 78.6023 296.03 78.1072C295.469 77.6121 295.195 76.9028 295.195 75.9718C295.195 75.0407 295.476 74.3683 296.03 73.888C296.584 73.4004 297.257 73.1639 298.04 73.1639C298.823 73.1639 299.518 73.4077 300.065 73.888C300.611 74.3757 300.885 75.0703 300.885 75.9718C300.885 76.8732 300.611 77.6121 300.065 78.1072C299.518 78.6023 298.845 78.8535 298.04 78.8535ZM298.07 72.2476C297.286 72.2476 296.621 72.0038 296.06 71.5014C295.498 71.0063 295.225 70.297 295.225 69.3659C295.225 68.4349 295.506 67.7625 296.06 67.2822C296.614 66.7945 297.286 66.5581 298.07 66.5581C298.853 66.5581 299.547 66.8019 300.094 67.2822C300.641 67.7699 300.914 68.4645 300.914 69.3659C300.914 70.2674 300.641 71.0063 300.094 71.5014C299.547 71.9964 298.875 72.2476 298.07 72.2476Z" fill="#FFAD00"/>
<path d="M319.157 78.407L321.181 73.2199H330.285C331.341 73.2199 332.147 73.1164 332.701 72.9169C333.255 72.7174 333.647 72.4514 333.868 72.1263C334.09 71.8012 334.201 71.4687 334.201 71.1288C334.201 70.582 334.09 70.1091 333.868 69.7101C333.647 69.3111 333.455 69.0007 333.285 68.7938H335.908C334.918 69.0229 334.06 69.2076 333.351 69.3332C332.634 69.4588 331.984 69.5475 331.408 69.5993C330.831 69.651 330.24 69.6805 329.657 69.6805H328.393C327.868 69.6805 327.218 69.6583 326.45 69.614C325.681 69.5697 324.898 69.4736 324.107 69.3259C323.317 69.1781 322.593 68.9564 321.942 68.6608L323.59 63.4737H323.967C324.832 63.7471 325.8 63.9244 326.878 63.9983C327.95 64.0722 329.006 64.1092 330.041 64.1092H331.053C332.125 64.1092 333.166 64.0796 334.164 64.0131C335.161 63.9466 335.982 63.858 336.617 63.7323H336.994C337.541 64.2791 338.095 64.9663 338.656 65.7865C339.211 66.6067 339.691 67.5007 340.075 68.4539C340.467 69.4145 340.659 70.3899 340.659 71.38C340.659 72.3701 340.511 73.2421 340.216 74.1287C339.92 75.0154 339.432 75.806 338.745 76.5006C338.058 77.1952 337.127 77.7494 335.945 78.1631C334.762 78.5769 333.299 78.7764 331.548 78.7764H319.157V78.3996V78.407Z" fill="#FFAD00"/>
<path d="M343.666 72.5938C343.666 71.3302 343.895 70.1258 344.346 68.9879C344.797 67.85 345.425 66.8525 346.23 65.988C347.028 65.1234 347.959 64.4362 349.008 63.9338C350.065 63.4313 351.203 63.1727 352.422 63.1727C353.538 63.1727 354.646 63.4609 355.74 64.0298C356.833 64.5988 357.838 65.419 358.74 66.4978C359.649 67.5692 360.373 68.8771 360.92 70.414C361.466 71.9509 361.74 73.6873 361.74 75.6307C361.74 78.372 361.289 80.67 360.395 82.5395C359.501 84.4015 358.252 85.8054 356.649 86.7438C355.045 87.6822 353.161 88.1477 350.989 88.1477C349.511 88.1477 348.24 88.0221 347.161 87.7709C346.09 87.5197 344.959 87.1354 343.777 86.633L345.676 81.4459H346.053C346.984 81.867 347.944 82.1626 348.942 82.3325C349.939 82.5025 350.752 82.5838 351.358 82.5838C352.267 82.5838 353.072 82.4803 353.789 82.266C354.506 82.0517 355.104 81.7267 355.592 81.2833L353.981 82.835C354.173 82.5838 354.358 82.2217 354.55 81.7414C354.742 81.2685 354.89 80.574 355.008 79.6577C355.126 78.7415 355.186 77.4853 355.186 75.8819C355.186 74.8918 355.097 73.9607 354.92 73.0814C354.742 72.2095 354.461 71.3893 354.085 70.6283C353.708 69.8672 353.235 69.18 352.681 68.5593C352.119 67.9387 351.462 67.4067 350.708 66.9633L353.678 67.185C352.459 67.4362 351.506 67.9978 350.819 68.8623C350.132 69.7268 349.792 70.6726 349.792 71.7071C349.792 72.0691 349.895 72.4682 350.109 72.9115C350.316 73.3548 350.664 73.7317 351.136 74.0347C351.609 74.3376 352.26 74.4928 353.08 74.4928H355.385V74.3376H363.823V79.2661L363.195 79.9016L352.888 79.9311C351.055 79.9311 349.444 79.6429 348.048 79.0592C346.659 78.4829 345.58 77.6405 344.811 76.5469C344.043 75.4533 343.659 74.1307 343.659 72.5938H343.666Z" fill="#FFAD00"/>
<path d="M362.751 74.3362H370.967L369.541 77.9051L367.487 72.5628C367.339 72.1638 367.125 71.6761 366.852 71.0923C366.578 70.516 366.275 69.9101 365.95 69.2747C365.625 68.6392 365.3 68.0702 364.967 67.553C364.642 67.0358 364.339 66.6442 364.066 66.3708L363.94 65.9939C364.908 65.1959 365.965 64.4791 367.118 63.8437C368.263 63.2082 369.475 62.7205 370.738 62.3585C372.002 62.0038 373.28 61.8191 374.566 61.8191C376.273 61.8191 377.765 62.1221 379.036 62.7206C380.315 63.3191 381.297 64.1466 381.992 65.1885C382.686 66.2304 383.034 67.4274 383.034 68.7796C383.034 69.7106 382.856 70.5899 382.509 71.4323C382.162 72.2746 381.696 73.0283 381.12 73.6933C380.544 74.3583 379.893 74.8977 379.177 75.3189L377.817 74.3362H385.494V79.2646L384.866 79.9001H362.108V74.9716L362.743 74.3362H362.751ZM375.076 76.7376L372.578 75.6662C373.273 75.245 373.945 74.7795 374.603 74.277C375.253 73.7746 375.792 73.1539 376.214 72.4298C376.635 71.7056 376.849 70.8264 376.849 69.7919C376.849 68.8461 376.568 68.0998 376.014 67.5604C375.453 67.021 374.773 66.755 373.975 66.755C373.177 66.755 372.475 66.9397 371.81 67.3092C371.145 67.6786 370.635 68.0111 370.28 68.3067L370.435 66.4077C370.96 66.9102 371.389 67.4274 371.714 67.9446C372.039 68.4619 372.349 69.0899 372.645 69.8288C372.94 70.5678 373.288 71.5283 373.687 72.7032L375.076 76.7524V76.7376Z" fill="#FFAD00"/>
<path d="M384.962 79.9021V74.9735L385.597 74.3381H391.605L389.425 75.2543C389.107 75.0252 388.9 74.5893 388.789 73.9612C388.686 73.3258 388.634 72.5277 388.634 71.5598V65.3677L394.959 64.7323H395.336V77.0572L392.617 74.3381H401.469L399.289 75.2543C398.972 75.0252 398.765 74.5893 398.654 73.9612C398.55 73.3258 398.499 72.5277 398.499 71.5598V64.3554L404.824 63.72H405.201V77.0572L402.481 74.3381H411.333L409.154 75.2543C408.836 75.0252 408.629 74.5893 408.518 73.9612C408.415 73.3258 408.363 72.5277 408.363 71.5598V63.3432L414.688 62.7077H415.065V77.0572L412.346 74.3381H418.412V79.9021H384.969H384.962Z" fill="#FFAD00"/>
<path d="M417.46 79.9006V74.972L418.096 74.3366H424.103L421.923 75.2528C421.606 75.0238 421.399 74.5878 421.288 73.9597C421.185 73.3243 421.133 72.5263 421.133 71.5583V56.4772L427.458 55.8418H427.835V73.8267C427.835 74.2479 427.835 74.7873 427.849 75.4375C427.857 76.0878 427.879 76.7307 427.916 77.3661C427.945 78.0016 428.005 78.504 428.093 78.8809V79.1321C427.458 79.3833 426.704 79.5754 425.832 79.701C424.96 79.8267 423.859 79.8932 422.529 79.8932H417.475L417.46 79.9006Z" fill="#FFAD00"/>
<path d="M432.379 56.5063L439.207 55.8708L439.333 56.1221C439.251 56.4989 439.192 56.9792 439.155 57.5482C439.118 58.1171 439.103 58.6935 439.089 59.2846C439.081 59.8757 439.074 60.3782 439.074 60.7993V79.8927H432.372V56.4989L432.379 56.5063Z" fill="#FFAD00"/>
<path d="M447.94 82.0509C448.554 82.1987 449.145 82.3169 449.714 82.413C450.283 82.509 450.83 82.5534 451.354 82.5534C452.174 82.5534 452.869 82.4352 453.438 82.2061C454.007 81.9771 454.362 81.7849 454.509 81.6371L453.054 83.1519C453.408 82.6864 453.696 82.0657 453.911 81.2899C454.118 80.5066 454.273 79.5904 454.369 78.5411C454.465 77.4845 454.509 76.3392 454.509 75.0979C454.509 73.221 454.413 71.4329 454.221 69.726C454.029 68.0191 453.83 66.4157 453.623 64.9231L460.073 64.2877H460.45C460.657 65.7655 460.842 67.4206 460.99 69.2679C461.137 71.1151 461.211 72.8885 461.211 74.5954C461.211 77.1225 460.945 79.2505 460.406 80.9795C459.866 82.7086 459.113 84.0903 458.13 85.1396C457.147 86.1814 455.987 86.9425 454.65 87.4154C453.312 87.8883 451.834 88.1248 450.209 88.1248C449.662 88.1248 449.071 88.0804 448.436 87.9991C447.807 87.9178 447.046 87.7848 446.16 87.6223V87.2455L447.926 82.0583L447.94 82.0509ZM460.361 79.9007V74.3368H465.327V79.2652L464.699 79.9007H460.369H460.361Z" fill="white"/>
<path d="M464.061 74.3349H470.194L468.014 75.2512C467.697 75.0221 467.49 74.5862 467.379 73.9581C467.276 73.3226 467.224 72.5246 467.224 71.5567V63.2144L473.549 62.579H473.926V77.0541L471.206 74.3349H477.716V79.2634L477.081 79.8989H463.426V74.9704L464.061 74.3349ZM467.667 85.3003C467.667 84.3915 467.948 83.6969 468.502 83.2166C469.064 82.7289 469.729 82.4925 470.512 82.4925C471.295 82.4925 471.99 82.7363 472.537 83.2166C473.083 83.7043 473.357 84.3989 473.357 85.3003C473.357 86.2018 473.083 86.9407 472.537 87.4357C471.99 87.9308 471.317 88.182 470.512 88.182C469.706 88.182 469.064 87.9308 468.502 87.4357C467.94 86.9407 467.667 86.2314 467.667 85.3003Z" fill="white"/>
<path d="M476.544 74.3347H482.677L480.497 75.251C480.18 75.0219 479.973 74.586 479.862 73.9579C479.758 73.3224 479.707 72.5244 479.707 71.5565V63.2142L486.032 62.5788H486.409V77.0539L483.689 74.3347H490.199V79.2632L489.564 79.8987H475.909V74.9702L476.544 74.3347ZM480.401 60.3325C479.618 60.3325 478.953 60.0886 478.391 59.5862C477.83 59.0911 477.556 58.3892 477.556 57.4877C477.556 56.5862 477.837 55.8547 478.391 55.3671C478.946 54.8794 479.618 54.6429 480.401 54.6429C481.184 54.6429 481.879 54.8868 482.426 55.3671C482.973 55.8547 483.246 56.5567 483.246 57.4877C483.246 58.4187 482.973 59.0985 482.426 59.5862C481.879 60.0812 481.207 60.3325 480.401 60.3325ZM486.822 59.6379C486.046 59.6379 485.374 59.3941 484.812 58.8916C484.251 58.3966 483.978 57.6946 483.978 56.7931C483.978 55.8917 484.258 55.1602 484.812 54.6725C485.367 54.1848 486.039 53.9484 486.822 53.9484C487.606 53.9484 488.3 54.1922 488.847 54.6725C489.394 55.1602 489.667 55.8621 489.667 56.7931C489.667 57.7242 489.394 58.404 488.847 58.8916C488.3 59.3867 487.628 59.6379 486.822 59.6379ZM501.349 59.6379C500.573 59.6379 499.901 59.3941 499.339 58.8916C498.778 58.3966 498.504 57.6946 498.504 56.7931C498.504 55.8917 498.785 55.1602 499.339 54.6725C499.894 54.1848 500.566 53.9484 501.349 53.9484C502.132 53.9484 502.827 54.1922 503.374 54.6725C503.921 55.1602 504.194 55.8621 504.194 56.7931C504.194 57.7242 503.921 58.404 503.374 58.8916C502.827 59.3867 502.155 59.6379 501.349 59.6379Z" fill="white"/>
<path d="M522.296 74.3365L523.589 79.9005H487.752V74.3365H522.288H522.296ZM538.98 79.9005C537.466 79.9005 536.187 79.6788 535.153 79.2355C534.118 78.7921 533.224 78.1123 532.463 77.1961C531.702 76.2798 530.956 75.0902 530.217 73.6419L527.941 68.9351L529.899 69.408C529.375 69.408 528.843 69.4967 528.303 69.674C527.764 69.8514 527.269 70.1026 526.818 70.4351C526.367 70.7602 526.005 71.1592 525.747 71.6174C525.481 72.0829 525.347 72.5853 525.347 73.1321C525.347 73.7676 525.54 74.2996 525.931 74.7429C526.323 75.1863 526.84 75.5261 527.483 75.7552C528.126 75.9843 528.806 76.1025 529.522 76.1025C530.239 76.1025 530.971 76.0434 531.658 75.9252C532.345 75.807 532.884 75.6887 533.283 75.5631L534.14 75.9104L532.434 81.2823C531.717 81.4891 531.008 81.6739 530.298 81.8216C529.589 81.9694 528.931 82.0433 528.325 82.0433C527.631 82.0433 526.87 81.962 526.049 81.8068C525.229 81.6517 524.409 81.3857 523.582 81.0162C522.761 80.6468 522.015 80.1443 521.335 79.5163C520.663 78.8808 520.116 78.0902 519.71 77.1296C519.296 76.169 519.096 75.0311 519.096 73.7011C519.096 71.972 519.473 70.472 520.219 69.1937C520.966 67.9228 521.971 66.8588 523.219 66.0164C524.476 65.1741 525.872 64.5386 527.409 64.1174C528.946 63.6963 530.505 63.482 532.086 63.482L532.722 63.8588L535.315 70.1174C535.862 71.4474 536.505 72.4745 537.244 73.2134C537.983 73.9523 538.773 74.3217 539.616 74.3217V79.2503L538.98 79.8857V79.9005Z" fill="white"/>
<path d="M538.98 79.9006V74.972L539.616 74.3366H545.623L543.443 75.2528C543.126 75.0238 542.919 74.5878 542.808 73.9597C542.705 73.3243 542.653 72.5263 542.653 71.5583V56.4772L548.978 55.8418H549.355V73.8267C549.355 74.2479 549.355 74.7873 549.369 75.4375C549.377 76.0878 549.399 76.7307 549.436 77.3661C549.466 78.0016 549.525 78.504 549.613 78.8809V79.1321C548.978 79.3833 548.224 79.5754 547.352 79.701C546.48 79.8267 545.379 79.8932 544.049 79.8932H538.995L538.98 79.9006Z" fill="white"/>
<path d="M553.904 56.5063L560.731 55.8708L560.857 56.1221C560.776 56.4989 560.717 56.9792 560.68 57.5482C560.643 58.1171 560.628 58.6935 560.613 59.2846C560.606 59.8757 560.598 60.3782 560.598 60.7993V79.8927H553.896V56.4989L553.904 56.5063Z" fill="white"/>
<path d="M488.699 79.1698L490.458 74.5813H501.534C502.487 74.5813 505.783 74.4778 506.322 74.2857C506.862 74.0862 507.261 73.8054 507.505 73.436C507.748 73.0665 507.874 70.9532 507.874 70.4877C507.874 69.8448 507.719 69.2168 507.409 68.6109C507.098 67.9976 506.751 67.4878 506.374 67.0666L508.768 67.2291C507.859 67.4286 507.069 67.5838 506.404 67.6947C505.739 67.8055 502.569 67.8868 501.992 67.9311C501.416 67.9754 500.795 67.9976 500.13 67.9976H498.83C498.165 67.9976 497.419 67.9754 496.584 67.9311C495.749 67.8868 494.921 67.7833 494.086 67.6281C493.251 67.473 492.46 67.2439 491.707 66.9262L493.14 62.3671H493.473C494.426 62.6553 495.49 62.8474 496.665 62.9509C497.84 63.0543 498.97 63.0986 500.056 63.0986H501.12C502.184 63.0986 505.768 63.0691 506.773 63.0174C507.785 62.9656 508.62 62.8548 509.285 62.6996H509.684C510.261 63.2538 510.837 63.9558 511.413 64.7982C511.99 65.6405 512.485 66.5641 512.891 67.5617C513.305 68.5592 513.505 69.5789 513.505 70.6207C513.505 71.5739 513.357 74.1823 513.054 75.0468C512.758 75.9113 512.271 76.6798 511.606 77.3596C510.941 78.0393 510.039 78.5713 508.909 78.9556C507.778 79.3398 503.854 79.5393 502.236 79.5393H488.67V79.1698H488.699Z" fill="white"/>
</svg>
