<svg width="24" height="24" viewBox="0 0 24 24" fill="none" xmlns="http://www.w3.org/2000/svg">
<path d="M17.0457 2.43918C17.3269 2.72047 17.4849 3.10193 17.4849 3.49968C17.4849 3.89743 17.3269 4.27889 17.0457 4.56018L9.62068 11.9852L17.0457 19.4102C17.3189 19.6931 17.4701 20.072 17.4667 20.4653C17.4633 20.8586 17.3055 21.2348 17.0274 21.5129C16.7493 21.791 16.3731 21.9488 15.9798 21.9522C15.5865 21.9556 15.2076 21.8044 14.9247 21.5312L6.43918 13.0457C6.15797 12.7644 6 12.3829 6 11.9852C6 11.5874 6.15797 11.206 6.43918 10.9247L14.9247 2.43918C15.206 2.15797 15.5874 2 15.9852 2C16.3829 2 16.7644 2.15797 17.0457 2.43918Z" fill="#B8B8B8"/>
</svg>
