<svg width="16" height="15" viewBox="0 0 16 15" fill="none" xmlns="http://www.w3.org/2000/svg">
<g clip-path="url(#clip0_672_5210)">
<path d="M5.5155 11.7847V5.50782H3.38728V11.7847H5.5155ZM4.45167 4.6503C5.19381 4.6503 5.65576 4.16831 5.65576 3.56598C5.64194 2.95006 5.19384 2.48145 4.46575 2.48145C3.73777 2.48145 3.26172 2.95007 3.26172 3.56598C3.26172 4.16833 3.72356 4.6503 4.43777 4.6503H4.4516H4.45167ZM6.69346 11.7847H8.82168V8.2794C8.82168 8.0918 8.83551 7.90439 8.89171 7.77028C9.04556 7.39547 9.39574 7.00726 9.98364 7.00726C10.7538 7.00726 11.0618 7.58287 11.0618 8.42668V11.7847H13.1899V8.18556C13.1899 6.25754 12.14 5.36046 10.7397 5.36046C9.59165 5.36046 9.08756 5.98956 8.80752 6.41804H8.82173V5.50769H6.69351C6.72144 6.09668 6.69351 11.7846 6.69351 11.7846L6.69346 11.7847Z" fill="#B8B8B8"/>
</g>
<defs>
<clipPath id="clip0_672_5210">
<rect width="9.92667" height="9.30328" fill="white" transform="translate(3.26172 2.48145)"/>
</clipPath>
</defs>
</svg>
