<svg width="255" height="156" viewBox="0 0 255 156" fill="none" xmlns="http://www.w3.org/2000/svg">
<rect width="255" height="156" fill="white"/>
<path d="M95.8452 107V96.92H99.6462C99.7442 96.92 99.8492 96.9247 99.9612 96.934C100.078 96.9387 100.199 96.9527 100.325 96.976C100.829 97.0553 101.261 97.2373 101.62 97.522C101.984 97.802 102.262 98.1567 102.453 98.586C102.645 99.0107 102.74 99.4797 102.74 99.993C102.74 100.511 102.645 100.985 102.453 101.414C102.262 101.839 101.984 102.193 101.62 102.478C101.261 102.758 100.829 102.938 100.325 103.017C100.199 103.036 100.078 103.05 99.9612 103.059C99.8492 103.068 99.7442 103.073 99.6462 103.073H96.6502V107H95.8452ZM96.6502 102.282H99.6322C99.7162 102.282 99.8119 102.277 99.9192 102.268C100.031 102.259 100.143 102.245 100.255 102.226C100.619 102.151 100.923 102.004 101.165 101.785C101.408 101.561 101.59 101.293 101.711 100.98C101.833 100.667 101.893 100.338 101.893 99.993C101.893 99.6477 101.833 99.321 101.711 99.013C101.59 98.7003 101.408 98.4343 101.165 98.215C100.923 97.991 100.619 97.8417 100.255 97.767C100.143 97.7437 100.031 97.7273 99.9192 97.718C99.8119 97.7087 99.7162 97.704 99.6322 97.704H96.6502V102.282ZM107.049 107.175C106.634 107.175 106.26 107.114 105.929 106.993C105.602 106.872 105.318 106.701 105.075 106.482C104.832 106.258 104.632 105.997 104.473 105.698C104.314 105.395 104.195 105.063 104.116 104.704C104.041 104.345 104.004 103.969 104.004 103.577V99.44H104.816V103.374C104.816 103.85 104.863 104.275 104.956 104.648C105.054 105.021 105.199 105.339 105.39 105.6C105.586 105.861 105.829 106.06 106.118 106.195C106.412 106.33 106.757 106.398 107.154 106.398C107.565 106.398 107.919 106.328 108.218 106.188C108.521 106.043 108.769 105.843 108.96 105.586C109.156 105.329 109.301 105.026 109.394 104.676C109.492 104.321 109.541 103.936 109.541 103.521L110.178 103.598C110.178 104.415 110.038 105.089 109.758 105.621C109.483 106.148 109.109 106.54 108.638 106.797C108.167 107.049 107.637 107.175 107.049 107.175ZM109.618 107V105.299H109.541V99.44H110.353V107H109.618ZM115.099 107.196C114.227 107.196 113.506 107.012 112.936 106.643C112.372 106.274 112.022 105.761 111.886 105.103L112.712 104.963C112.829 105.411 113.104 105.768 113.538 106.034C113.972 106.3 114.504 106.433 115.134 106.433C115.76 106.433 116.257 106.3 116.625 106.034C116.994 105.768 117.178 105.404 117.178 104.942C117.178 104.69 117.12 104.485 117.003 104.326C116.891 104.163 116.667 104.013 116.331 103.878C115.995 103.743 115.496 103.584 114.833 103.402C114.133 103.215 113.585 103.029 113.188 102.842C112.796 102.655 112.519 102.443 112.355 102.205C112.197 101.967 112.117 101.675 112.117 101.33C112.117 100.915 112.236 100.551 112.474 100.238C112.712 99.9207 113.044 99.6733 113.468 99.496C113.898 99.3187 114.392 99.23 114.952 99.23C115.512 99.23 116.016 99.3233 116.464 99.51C116.912 99.692 117.274 99.9487 117.549 100.28C117.825 100.607 117.983 100.987 118.025 101.421L117.199 101.575C117.12 101.09 116.875 100.707 116.464 100.427C116.054 100.142 115.54 99.9977 114.924 99.993C114.341 99.9837 113.865 100.1 113.496 100.343C113.128 100.581 112.943 100.896 112.943 101.288C112.943 101.512 113.006 101.703 113.132 101.862C113.263 102.016 113.492 102.158 113.818 102.289C114.145 102.42 114.607 102.56 115.204 102.709C115.932 102.896 116.499 103.087 116.905 103.283C117.316 103.479 117.605 103.71 117.773 103.976C117.941 104.237 118.025 104.562 118.025 104.949C118.025 105.649 117.764 106.2 117.241 106.601C116.723 106.998 116.009 107.196 115.099 107.196ZM125.117 107V103.066C125.117 102.59 125.068 102.165 124.97 101.792C124.876 101.419 124.732 101.101 124.536 100.84C124.344 100.579 124.102 100.38 123.808 100.245C123.518 100.11 123.175 100.042 122.779 100.042C122.368 100.042 122.011 100.114 121.708 100.259C121.409 100.399 121.162 100.597 120.966 100.854C120.774 101.111 120.63 101.416 120.532 101.771C120.438 102.121 120.392 102.504 120.392 102.919L119.755 102.842C119.755 102.025 119.892 101.353 120.168 100.826C120.448 100.294 120.823 99.902 121.295 99.65C121.766 99.3933 122.296 99.265 122.884 99.265C123.299 99.265 123.67 99.3257 123.997 99.447C124.328 99.5683 124.615 99.741 124.858 99.965C125.1 100.184 125.301 100.446 125.46 100.749C125.618 101.048 125.735 101.377 125.81 101.736C125.889 102.095 125.929 102.471 125.929 102.863V107H125.117ZM119.58 107V96.92H120.315V102.744H120.392V107H119.58ZM133.092 96.92H133.932L131.244 107H130.404L133.092 96.92ZM138.556 107V96.92H142.357C142.455 96.92 142.56 96.9247 142.672 96.934C142.789 96.9387 142.91 96.9527 143.036 96.976C143.54 97.0553 143.972 97.2373 144.331 97.522C144.695 97.802 144.973 98.1567 145.164 98.586C145.356 99.0107 145.451 99.4797 145.451 99.993C145.451 100.511 145.356 100.985 145.164 101.414C144.973 101.839 144.695 102.193 144.331 102.478C143.972 102.758 143.54 102.938 143.036 103.017C142.91 103.036 142.789 103.05 142.672 103.059C142.56 103.068 142.455 103.073 142.357 103.073H139.361V107H138.556ZM139.361 102.282H142.343C142.427 102.282 142.523 102.277 142.63 102.268C142.742 102.259 142.854 102.245 142.966 102.226C143.33 102.151 143.634 102.004 143.876 101.785C144.119 101.561 144.301 101.293 144.422 100.98C144.544 100.667 144.604 100.338 144.604 99.993C144.604 99.6477 144.544 99.321 144.422 99.013C144.301 98.7003 144.119 98.4343 143.876 98.215C143.634 97.991 143.33 97.8417 142.966 97.767C142.854 97.7437 142.742 97.7273 142.63 97.718C142.523 97.7087 142.427 97.704 142.343 97.704H139.361V102.282ZM149.76 107.175C149.345 107.175 148.971 107.114 148.64 106.993C148.313 106.872 148.029 106.701 147.786 106.482C147.543 106.258 147.343 105.997 147.184 105.698C147.025 105.395 146.906 105.063 146.827 104.704C146.752 104.345 146.715 103.969 146.715 103.577V99.44H147.527V103.374C147.527 103.85 147.574 104.275 147.667 104.648C147.765 105.021 147.91 105.339 148.101 105.6C148.297 105.861 148.54 106.06 148.829 106.195C149.123 106.33 149.468 106.398 149.865 106.398C150.276 106.398 150.63 106.328 150.929 106.188C151.232 106.043 151.48 105.843 151.671 105.586C151.867 105.329 152.012 105.026 152.105 104.676C152.203 104.321 152.252 103.936 152.252 103.521L152.889 103.598C152.889 104.415 152.749 105.089 152.469 105.621C152.194 106.148 151.82 106.54 151.349 106.797C150.878 107.049 150.348 107.175 149.76 107.175ZM152.329 107V105.299H152.252V99.44H153.064V107H152.329ZM155.157 107V96.71H155.962V107H155.157ZM158.206 107V96.71H159.011V107H158.206ZM113.602 124V114.704H109.99V113.92H118.019V114.704H114.407V124H113.602ZM121.136 124.21C120.413 124.21 119.787 124.049 119.26 123.727C118.733 123.4 118.324 122.941 118.035 122.348C117.746 121.751 117.601 121.046 117.601 120.234C117.601 119.408 117.743 118.696 118.028 118.099C118.317 117.497 118.723 117.035 119.246 116.713C119.773 116.391 120.399 116.23 121.122 116.23C121.855 116.23 122.48 116.398 122.998 116.734C123.521 117.065 123.917 117.546 124.188 118.176C124.463 118.806 124.594 119.564 124.58 120.451H123.74V120.171C123.717 119.135 123.483 118.346 123.04 117.805C122.597 117.264 121.962 116.993 121.136 116.993C120.282 116.993 119.622 117.275 119.155 117.84C118.693 118.4 118.462 119.193 118.462 120.22C118.462 121.237 118.693 122.026 119.155 122.586C119.622 123.146 120.277 123.426 121.122 123.426C121.705 123.426 122.214 123.291 122.648 123.02C123.087 122.745 123.434 122.353 123.691 121.844L124.419 122.166C124.116 122.819 123.677 123.323 123.103 123.678C122.529 124.033 121.873 124.21 121.136 124.21ZM118.154 120.451V119.723H124.125V120.451H118.154ZM128.921 124.196C128.049 124.196 127.328 124.012 126.758 123.643C126.194 123.274 125.844 122.761 125.708 122.103L126.534 121.963C126.651 122.411 126.926 122.768 127.36 123.034C127.794 123.3 128.326 123.433 128.956 123.433C129.582 123.433 130.079 123.3 130.447 123.034C130.816 122.768 131 122.404 131 121.942C131 121.69 130.942 121.485 130.825 121.326C130.713 121.163 130.489 121.013 130.153 120.878C129.817 120.743 129.318 120.584 128.655 120.402C127.955 120.215 127.407 120.029 127.01 119.842C126.618 119.655 126.341 119.443 126.177 119.205C126.019 118.967 125.939 118.675 125.939 118.33C125.939 117.915 126.058 117.551 126.296 117.238C126.534 116.921 126.866 116.673 127.29 116.496C127.72 116.319 128.214 116.23 128.774 116.23C129.334 116.23 129.838 116.323 130.286 116.51C130.734 116.692 131.096 116.949 131.371 117.28C131.647 117.607 131.805 117.987 131.847 118.421L131.021 118.575C130.942 118.09 130.697 117.707 130.286 117.427C129.876 117.142 129.362 116.998 128.746 116.993C128.163 116.984 127.687 117.1 127.318 117.343C126.95 117.581 126.765 117.896 126.765 118.288C126.765 118.512 126.828 118.703 126.954 118.862C127.085 119.016 127.314 119.158 127.64 119.289C127.967 119.42 128.429 119.56 129.026 119.709C129.754 119.896 130.321 120.087 130.727 120.283C131.138 120.479 131.427 120.71 131.595 120.976C131.763 121.237 131.847 121.562 131.847 121.949C131.847 122.649 131.586 123.2 131.063 123.601C130.545 123.998 129.831 124.196 128.921 124.196ZM137.413 124C137.012 124.089 136.615 124.121 136.223 124.098C135.831 124.079 135.481 123.993 135.173 123.839C134.87 123.68 134.641 123.438 134.487 123.111C134.361 122.845 134.291 122.577 134.277 122.306C134.263 122.035 134.256 121.725 134.256 121.375V114.34H135.068V121.361C135.068 121.678 135.07 121.942 135.075 122.152C135.084 122.357 135.133 122.546 135.222 122.719C135.39 123.041 135.656 123.237 136.02 123.307C136.384 123.372 136.848 123.361 137.413 123.272V124ZM132.562 117.175V116.44H137.413V117.175H132.562ZM141.65 124.196C140.777 124.196 140.056 124.012 139.487 123.643C138.922 123.274 138.572 122.761 138.437 122.103L139.263 121.963C139.38 122.411 139.655 122.768 140.089 123.034C140.523 123.3 141.055 123.433 141.685 123.433C142.31 123.433 142.807 123.3 143.176 123.034C143.545 122.768 143.729 122.404 143.729 121.942C143.729 121.69 143.671 121.485 143.554 121.326C143.442 121.163 143.218 121.013 142.882 120.878C142.546 120.743 142.047 120.584 141.384 120.402C140.684 120.215 140.136 120.029 139.739 119.842C139.347 119.655 139.069 119.443 138.906 119.205C138.747 118.967 138.668 118.675 138.668 118.33C138.668 117.915 138.787 117.551 139.025 117.238C139.263 116.921 139.594 116.673 140.019 116.496C140.448 116.319 140.943 116.23 141.503 116.23C142.063 116.23 142.567 116.323 143.015 116.51C143.463 116.692 143.825 116.949 144.1 117.28C144.375 117.607 144.534 117.987 144.576 118.421L143.75 118.575C143.671 118.09 143.426 117.707 143.015 117.427C142.604 117.142 142.091 116.998 141.475 116.993C140.892 116.984 140.416 117.1 140.047 117.343C139.678 117.581 139.494 117.896 139.494 118.288C139.494 118.512 139.557 118.703 139.683 118.862C139.814 119.016 140.042 119.158 140.369 119.289C140.696 119.42 141.158 119.56 141.755 119.709C142.483 119.896 143.05 120.087 143.456 120.283C143.867 120.479 144.156 120.71 144.324 120.976C144.492 121.237 144.576 121.562 144.576 121.949C144.576 122.649 144.315 123.2 143.792 123.601C143.274 123.998 142.56 124.196 141.65 124.196Z" fill="#414141"/>
<path d="M155.727 53.5649L142.602 49.0999C142.212 48.9649 141.787 48.9649 141.397 49.0999L128.272 53.5649C127.901 53.6901 127.578 53.9288 127.35 54.2473C127.121 54.5658 126.999 54.948 127 55.3399V65.3849C127 77.6449 140.685 83.6049 141.267 83.8524C141.499 83.9502 141.748 84.0006 142 84.0006C142.251 84.0006 142.5 83.9502 142.732 83.8524C143.315 83.6024 157 77.6449 157 65.3849V55.3399C157 54.948 156.878 54.5658 156.649 54.2473C156.421 53.9288 156.098 53.6901 155.727 53.5649ZM150.215 63.0449L143.34 71.7949C143.131 72.0602 142.871 72.2806 142.576 72.4428C142.28 72.6051 141.955 72.7058 141.619 72.7389C141.283 72.7721 140.945 72.737 140.623 72.6358C140.301 72.5346 140.003 72.3693 139.747 72.1499L135.372 68.3999C135.112 68.1896 134.898 67.9294 134.74 67.6346C134.583 67.3398 134.486 67.0165 134.456 66.6837C134.426 66.351 134.462 66.0155 134.564 65.6972C134.666 65.3789 134.83 65.0841 135.047 64.8304C135.265 64.5767 135.531 64.3692 135.83 64.2201C136.129 64.0709 136.455 63.9833 136.788 63.9623C137.122 63.9412 137.456 63.9873 137.772 64.0977C138.087 64.208 138.377 64.3805 138.625 64.6049L141.02 66.6574L146.282 59.9599C146.485 59.7014 146.736 59.4853 147.022 59.3242C147.309 59.1631 147.624 59.0601 147.95 59.021C148.276 58.982 148.607 59.0078 148.923 59.0968C149.239 59.1859 149.534 59.3364 149.792 59.5399C150.051 59.7418 150.267 59.9928 150.428 60.2785C150.589 60.5642 150.693 60.8789 150.732 61.2046C150.771 61.5303 150.746 61.8606 150.657 62.1764C150.568 62.4922 150.418 62.7874 150.215 63.0449ZM113.875 47.7499H110.125C109.86 47.7495 109.598 47.6932 109.356 47.5846C109.114 47.4761 108.898 47.3177 108.722 47.1199L103.722 41.4949C103.559 41.3108 103.433 41.0962 103.352 40.8635C103.272 40.6307 103.238 40.3844 103.252 40.1385C103.267 39.8927 103.33 39.6521 103.437 39.4306C103.545 39.209 103.695 39.0109 103.88 38.8474H120.12C120.304 39.0109 120.454 39.209 120.562 39.4306C120.669 39.6521 120.732 39.8927 120.747 40.1385C120.761 40.3844 120.727 40.6307 120.647 40.8635C120.566 41.0962 120.441 41.3108 120.277 41.4949L115.277 47.1199C115.101 47.3177 114.885 47.4761 114.643 47.5846C114.401 47.6932 114.139 47.7495 113.875 47.7499Z" fill="#FFAD00"/>
<path d="M112 59C111.503 59 111.026 58.8025 110.674 58.4508C110.323 58.0992 110.125 57.6223 110.125 57.125V45.875C110.125 45.3777 110.323 44.9008 110.674 44.5492C111.026 44.1975 111.503 44 112 44C112.497 44 112.974 44.1975 113.326 44.5492C113.677 44.9008 113.875 45.3777 113.875 45.875V57.125C113.875 57.6223 113.677 58.0992 113.326 58.4508C112.974 58.8025 112.497 59 112 59Z" fill="#1A1A1A"/>
<path d="M119.402 64.0325L116.902 56.5325C116.778 56.1593 116.539 55.8346 116.22 55.6045C115.901 55.3743 115.518 55.2503 115.125 55.25H108.875C108.481 55.2503 108.098 55.3743 107.779 55.6045C107.46 55.8346 107.221 56.1593 107.097 56.5325L104.597 64.0325C104.503 64.3142 104.477 64.6144 104.521 64.9082C104.566 65.2019 104.679 65.4809 104.853 65.722C105.027 65.9631 105.255 66.1594 105.52 66.2947C105.784 66.4299 106.077 66.5003 106.375 66.5H117.625C117.922 66.5003 118.215 66.4299 118.479 66.2947C118.744 66.1594 118.972 65.9631 119.146 65.722C119.32 65.4809 119.433 65.2019 119.478 64.9082C119.522 64.6144 119.496 64.3142 119.402 64.0325Z" fill="#1A1A1A"/>
<path d="M112 74C111.503 74 111.026 73.8025 110.674 73.4508C110.323 73.0992 110.125 72.6223 110.125 72.125V64.625C110.125 64.1277 110.323 63.6508 110.674 63.2992C111.026 62.9475 111.503 62.75 112 62.75C112.497 62.75 112.974 62.9475 113.326 63.2992C113.677 63.6508 113.875 64.1277 113.875 64.625V72.125C113.875 72.6223 113.677 73.0992 113.326 73.4508C112.974 73.8025 112.497 74 112 74Z" fill="#1A1A1A"/>
<path d="M112 84C110.177 83.9987 108.429 83.2739 107.14 81.9849C105.851 80.6959 105.126 78.948 105.125 77.125C105.125 76.6277 105.323 76.1508 105.674 75.7992C106.026 75.4475 106.503 75.25 107 75.25C107.497 75.25 107.974 75.4475 108.326 75.7992C108.677 76.1508 108.875 76.6277 108.875 77.125C108.875 78.8475 110.278 80.25 112 80.25C113.722 80.25 115.125 78.8475 115.125 77.125C115.125 75.4025 113.722 74 112 74C111.503 74 111.026 73.8025 110.674 73.4508C110.323 73.0992 110.125 72.6223 110.125 72.125C110.125 71.6277 110.323 71.1508 110.674 70.7992C111.026 70.4475 111.503 70.25 112 70.25C115.792 70.25 118.875 73.3325 118.875 77.125C118.875 80.9175 115.792 84 112 84ZM148.25 24H98.875C98.3777 24 97.9008 24.1975 97.5492 24.5492C97.1975 24.9008 97 25.3777 97 25.875V39.625C97 40.66 97.84 41.5 98.875 41.5H148.25C153.075 41.5 157 37.575 157 32.75C157 27.925 153.075 24 148.25 24ZM135.125 34.625H106.375C105.878 34.625 105.401 34.4275 105.049 34.0758C104.698 33.7242 104.5 33.2473 104.5 32.75C104.5 32.2527 104.698 31.7758 105.049 31.4242C105.401 31.0725 105.878 30.875 106.375 30.875H135.125C135.622 30.875 136.099 31.0725 136.451 31.4242C136.802 31.7758 137 32.2527 137 32.75C137 33.2473 136.802 33.7242 136.451 34.0758C136.099 34.4275 135.622 34.625 135.125 34.625ZM145.75 35.25C145.087 35.25 144.451 34.9866 143.982 34.5178C143.513 34.0489 143.25 33.413 143.25 32.75C143.25 32.087 143.513 31.4511 143.982 30.9822C144.451 30.5134 145.087 30.25 145.75 30.25C146.413 30.25 147.049 30.5134 147.518 30.9822C147.987 31.4511 148.25 32.087 148.25 32.75C148.25 33.413 147.987 34.0489 147.518 34.5178C147.049 34.9866 146.413 35.25 145.75 35.25Z" fill="#1A1A1A"/>
</svg>
