<svg width="24" height="24" viewBox="0 0 24 24" fill="none" xmlns="http://www.w3.org/2000/svg">
<path d="M6.4387 2.43918C6.15749 2.72047 5.99952 3.10193 5.99952 3.49968C5.99952 3.89743 6.15749 4.27889 6.4387 4.56018L13.8637 11.9852L6.4387 19.4102C6.16546 19.6931 6.01427 20.072 6.01768 20.4653C6.0211 20.8586 6.17886 21.2348 6.45697 21.5129C6.73508 21.791 7.1113 21.9488 7.50459 21.9522C7.89789 21.9556 8.27679 21.8044 8.55969 21.5312L17.0452 13.0457C17.3264 12.7644 17.4844 12.3829 17.4844 11.9852C17.4844 11.5874 17.3264 11.206 17.0452 10.9247L8.5597 2.43918C8.2784 2.15797 7.89694 2 7.4992 2C7.10145 2 6.71999 2.15797 6.4387 2.43918Z" fill="#FFAD00"/>
</svg>
