<svg width="62" height="52" viewBox="0 0 62 52" fill="none" xmlns="http://www.w3.org/2000/svg">
<g clip-path="url(#clip0_1532_1442)">
<path d="M46.5695 24.1401C46.3022 24.1401 46.0458 24.2463 45.8568 24.4354C45.6677 24.6244 45.5615 24.8808 45.5615 25.1481V26.7293C45.5615 26.9966 45.6677 27.253 45.8568 27.442C46.0458 27.6311 46.3022 27.7373 46.5695 27.7373C46.8369 27.7373 47.0932 27.6311 47.2823 27.442C47.4713 27.253 47.5775 26.9966 47.5775 26.7293V25.1481C47.5775 24.8808 47.4713 24.6244 47.2823 24.4354C47.0932 24.2463 46.8369 24.1401 46.5695 24.1401Z" fill="#1A1A1A"/>
<path d="M60.6788 42.9629H47.5773V31.4732C47.5773 31.2058 47.4711 30.9495 47.2821 30.7604C47.093 30.5714 46.8366 30.4652 46.5693 30.4652C46.302 30.4652 46.0456 30.5714 45.8565 30.7604C45.6675 30.9495 45.5613 31.2058 45.5613 31.4732V49.7137H36.3871V44.5515H38.7847C39.052 44.5515 39.3084 44.4454 39.4974 44.2563C39.6865 44.0673 39.7927 43.8109 39.7927 43.5435C39.7927 43.2762 39.6865 43.0198 39.4974 42.8308C39.3084 42.6417 39.052 42.5355 38.7847 42.5355H36.3871V37.4608H38.7847C39.052 37.4608 39.3084 37.3546 39.4974 37.1656C39.6865 36.9766 39.7927 36.7202 39.7927 36.4528C39.7927 36.1855 39.6865 35.9291 39.4974 35.7401C39.3084 35.551 39.052 35.4448 38.7847 35.4448H36.3871V30.3699H38.7847C39.052 30.3699 39.3084 30.2637 39.4974 30.0746C39.6865 29.8856 39.7927 29.6292 39.7927 29.3619C39.7927 29.0945 39.6865 28.8381 39.4974 28.6491C39.3084 28.4601 39.052 28.3539 38.7847 28.3539H36.3871V23.2789H38.7847C39.052 23.2789 39.3084 23.1727 39.4974 22.9836C39.6865 22.7946 39.7927 22.5382 39.7927 22.2709C39.7927 22.0035 39.6865 21.7471 39.4974 21.5581C39.3084 21.3691 39.052 21.2629 38.7847 21.2629H36.3871V16.188H38.7847C39.052 16.188 39.3084 16.0818 39.4974 15.8928C39.6865 15.7037 39.7927 15.4473 39.7927 15.18C39.7927 14.9127 39.6865 14.6563 39.4974 14.4672C39.3084 14.2782 39.052 14.172 38.7847 14.172H36.3871V9.09688H38.7847C39.052 9.09688 39.3084 8.99068 39.4974 8.80164C39.6865 8.6126 39.7927 8.35621 39.7927 8.08888C39.7927 7.82154 39.6865 7.56515 39.4974 7.37611C39.3084 7.18707 39.052 7.08088 38.7847 7.08088H36.3871V2.28568H45.5613V32.6097C45.5613 32.877 45.6675 33.1334 45.8565 33.3224C46.0456 33.5115 46.302 33.6177 46.5693 33.6177C46.8366 33.6177 47.093 33.5115 47.2821 33.3224C47.4711 33.1334 47.5773 32.877 47.5773 32.6097V1.27753C47.5773 1.01019 47.4711 0.753805 47.2821 0.564768C47.093 0.375731 46.8366 0.269531 46.5693 0.269531H35.3791C35.1117 0.269531 34.8553 0.375731 34.6663 0.564768C34.4773 0.753805 34.3711 1.01019 34.3711 1.27753V26.8305C31.6247 27.0694 29.4414 28.215 28.5445 28.7571L25.5501 27.8003L32.6068 18.8801C33.5988 17.6263 33.3872 15.7971 32.1355 14.8024C30.8838 13.8077 29.0541 14.0153 28.0569 15.2651L20.0804 25.2612L14.5256 15.3007C14.205 14.7264 13.737 14.248 13.1699 13.915C12.6028 13.5819 11.9571 13.4061 11.2994 13.4058H1.32162C1.05428 13.4058 0.797894 13.512 0.608857 13.701C0.419821 13.8901 0.31362 14.1465 0.31362 14.4138C0.31362 14.6811 0.419821 14.9375 0.608857 15.1266C0.797894 15.3156 1.05428 15.4218 1.32162 15.4218H11.2994C11.9071 15.4218 12.4687 15.7515 12.7647 16.2825L19.0512 27.5547C19.0541 27.5597 19.0574 27.5642 19.0603 27.5691C19.066 27.5791 19.0725 27.5889 19.0787 27.5989C19.1139 27.655 19.1545 27.7075 19.1999 27.7557C19.206 27.762 19.2115 27.7686 19.2178 27.775C19.2436 27.8009 19.2706 27.8254 19.2992 27.8484C19.3056 27.8535 19.3125 27.8581 19.319 27.8631C19.3418 27.8804 19.3651 27.8969 19.3892 27.9123C19.3994 27.919 19.4099 27.925 19.4203 27.9312C19.4429 27.9446 19.4659 27.9568 19.4894 27.9684C19.4999 27.9735 19.5101 27.9787 19.5208 27.9835C19.554 27.9985 19.588 28.012 19.623 28.0232L19.6247 28.0239L23.549 29.2776L28.3825 30.8216C28.5313 30.8691 28.6891 30.8815 28.8434 30.8576C28.9978 30.8337 29.1445 30.7742 29.2719 30.6839C29.2958 30.6669 31.4568 29.159 34.3709 28.8547V39.5216L30.8314 41.7464H21.7329C21.2302 37.2706 17.424 33.7795 12.816 33.7795C8.20799 33.7795 4.40178 37.2706 3.89908 41.7466H1.32148C1.05414 41.7466 0.79775 41.8528 0.608713 42.0418C0.419677 42.2308 0.313477 42.4872 0.313477 42.7546C0.313477 43.0219 0.419677 43.2783 0.608713 43.4673C0.79775 43.6564 1.05414 43.7626 1.32148 43.7626H3.89908C4.40164 48.2384 8.20799 51.7295 12.816 51.7295C17.424 51.7295 21.2301 48.2384 21.7328 43.7626H31.1218C31.3116 43.7626 31.4977 43.709 31.6582 43.6081L34.3709 41.9028V50.7215C34.3709 50.9889 34.4771 51.2452 34.6661 51.4343C34.8552 51.6233 35.1116 51.7295 35.3789 51.7295H60.6788C60.9462 51.7295 61.2026 51.6233 61.3916 51.4343C61.5806 51.2452 61.6868 50.9889 61.6868 50.7215V43.9708C61.6868 43.7035 61.5806 43.4471 61.3916 43.258C61.2026 43.069 60.9462 42.9629 60.6788 42.9629ZM12.816 49.7137C8.97867 49.7137 5.8569 46.5919 5.8569 42.7547C5.8569 38.9175 8.97882 35.7956 12.816 35.7956C16.6532 35.7956 19.7749 38.9175 19.7749 42.7547C19.7749 46.5919 16.653 49.7137 12.816 49.7137Z" fill="#1A1A1A"/>
<path d="M18.3502 10.1918H21.6772L19.0074 16.3226C18.9034 16.5672 18.9002 16.843 18.9985 17.09C19.0969 17.337 19.2888 17.5351 19.5325 17.6412C19.7762 17.7474 20.052 17.7529 20.2998 17.6567C20.5476 17.5605 20.7474 17.3703 20.8557 17.1275L24.1397 9.58626C24.2065 9.43287 24.2341 9.26526 24.2199 9.09855C24.2058 8.93184 24.1504 8.77128 24.0587 8.63134C23.967 8.49139 23.8419 8.37647 23.6947 8.29694C23.5475 8.21742 23.3828 8.17578 23.2155 8.17578H19.9257L22.9146 1.7001C23.0266 1.45736 23.0377 1.18004 22.9452 0.929166C22.8528 0.678287 22.6645 0.474393 22.4218 0.36234C22.1791 0.250287 21.9017 0.239253 21.6509 0.331665C21.4 0.424077 21.1961 0.612366 21.084 0.855109L17.4351 8.76129C17.3642 8.91487 17.3331 9.08382 17.3446 9.25258C17.3562 9.42134 17.41 9.58449 17.5011 9.72698C17.5923 9.86947 17.7179 9.98673 17.8662 10.068C18.0146 10.1492 18.181 10.1918 18.3502 10.1918ZM12.8158 38.9525C10.7193 38.9525 9.01367 40.6582 9.01367 42.7548C9.01367 44.8514 10.7193 46.557 12.816 46.557C14.9125 46.557 16.618 44.8513 16.618 42.7548C16.618 40.6583 14.9123 38.9525 12.8158 38.9525ZM8.1272 28.3152H13.3065C14.2003 28.3152 15.0565 27.8849 15.5366 27.1309C16.0298 26.3562 16.0737 25.4011 15.6565 24.5863L12.5006 18.4251C11.8591 17.1722 10.6062 16.3808 9.20778 16.3302L9.20605 16.3278H9.13981C9.11519 16.3273 9.09085 16.3253 9.06608 16.3253H1.32148C1.30448 16.3253 1.28792 16.3269 1.27122 16.3278H1.05752C0.959809 16.3277 0.863048 16.347 0.772768 16.3844C0.682487 16.4218 0.600456 16.4766 0.531361 16.5457C0.462266 16.6147 0.407461 16.6968 0.370075 16.7871C0.33269 16.8773 0.313458 16.9741 0.313477 17.0718V27.5713C0.313477 27.669 0.332723 27.7657 0.370117 27.856C0.40751 27.9463 0.462319 28.0283 0.531412 28.0974C0.600506 28.1664 0.682529 28.2212 0.772801 28.2586C0.863072 28.296 0.959822 28.3152 1.05752 28.3152H1.32148H8.1272Z" fill="#FFAD00"/>
</g>
<defs>
<clipPath id="clip0_1532_1442">
<rect width="62" height="52" fill="white"/>
</clipPath>
</defs>
</svg>
