<svg width="241" height="24" viewBox="0 0 241 24" fill="none" xmlns="http://www.w3.org/2000/svg">
<path d="M17.0457 2.43918C17.3269 2.72047 17.4849 3.10193 17.4849 3.49968C17.4849 3.89743 17.3269 4.27889 17.0457 4.56018L9.62068 11.9852L17.0457 19.4102C17.3189 19.6931 17.4701 20.072 17.4667 20.4653C17.4633 20.8586 17.3055 21.2348 17.0274 21.5129C16.7493 21.791 16.3731 21.9488 15.9798 21.9522C15.5865 21.9556 15.2076 21.8044 14.9247 21.5312L6.43918 13.0457C6.15797 12.7644 6 12.3829 6 11.9852C6 11.5874 6.15797 11.206 6.43918 10.9247L14.9247 2.43918C15.206 2.15797 15.5874 2 15.9852 2C16.3829 2 16.7644 2.15797 17.0457 2.43918Z" fill="#B8B8B8"/>
<path d="M39.5156 12.5391H36.4766V11.3125H39.5156C40.1042 11.3125 40.5807 11.2188 40.9453 11.0312C41.3099 10.8438 41.5755 10.5833 41.7422 10.25C41.9141 9.91667 42 9.53646 42 9.10938C42 8.71875 41.9141 8.35156 41.7422 8.00781C41.5755 7.66406 41.3099 7.38802 40.9453 7.17969C40.5807 6.96615 40.1042 6.85938 39.5156 6.85938H36.8281V17H35.3203V5.625H39.5156C40.375 5.625 41.1016 5.77344 41.6953 6.07031C42.2891 6.36719 42.7396 6.77865 43.0469 7.30469C43.3542 7.82552 43.5078 8.42188 43.5078 9.09375C43.5078 9.82292 43.3542 10.4453 43.0469 10.9609C42.7396 11.4766 42.2891 11.8698 41.6953 12.1406C41.1016 12.4062 40.375 12.5391 39.5156 12.5391ZM46.6406 9.875V17H45.1953V8.54688H46.6016L46.6406 9.875ZM49.2812 8.5L49.2734 9.84375C49.1536 9.81771 49.0391 9.80208 48.9297 9.79688C48.8255 9.78646 48.7057 9.78125 48.5703 9.78125C48.237 9.78125 47.9427 9.83333 47.6875 9.9375C47.4323 10.0417 47.2161 10.1875 47.0391 10.375C46.862 10.5625 46.7214 10.7865 46.6172 11.0469C46.5182 11.3021 46.4531 11.5833 46.4219 11.8906L46.0156 12.125C46.0156 11.6146 46.0651 11.1354 46.1641 10.6875C46.2682 10.2396 46.4271 9.84375 46.6406 9.5C46.8542 9.15104 47.125 8.88021 47.4531 8.6875C47.7865 8.48958 48.1823 8.39062 48.6406 8.39062C48.7448 8.39062 48.8646 8.40365 49 8.42969C49.1354 8.45052 49.2292 8.47396 49.2812 8.5ZM53.9688 17.1562C53.3802 17.1562 52.8464 17.0573 52.3672 16.8594C51.8932 16.6562 51.4844 16.3724 51.1406 16.0078C50.8021 15.6432 50.5417 15.2109 50.3594 14.7109C50.1771 14.2109 50.0859 13.6641 50.0859 13.0703V12.7422C50.0859 12.0547 50.1875 11.4427 50.3906 10.9062C50.5938 10.3646 50.8698 9.90625 51.2188 9.53125C51.5677 9.15625 51.9635 8.8724 52.4062 8.67969C52.849 8.48698 53.3073 8.39062 53.7812 8.39062C54.3854 8.39062 54.9062 8.49479 55.3438 8.70312C55.7865 8.91146 56.1484 9.20312 56.4297 9.57812C56.7109 9.94792 56.9193 10.3854 57.0547 10.8906C57.1901 11.3906 57.2578 11.9375 57.2578 12.5312V13.1797H50.9453V12H55.8125V11.8906C55.7917 11.5156 55.7135 11.151 55.5781 10.7969C55.4479 10.4427 55.2396 10.151 54.9531 9.92188C54.6667 9.69271 54.276 9.57812 53.7812 9.57812C53.4531 9.57812 53.151 9.64844 52.875 9.78906C52.599 9.92448 52.362 10.1276 52.1641 10.3984C51.9661 10.6693 51.8125 11 51.7031 11.3906C51.5938 11.7812 51.5391 12.2318 51.5391 12.7422V13.0703C51.5391 13.4714 51.5938 13.849 51.7031 14.2031C51.8177 14.5521 51.9818 14.8594 52.1953 15.125C52.4141 15.3906 52.6771 15.599 52.9844 15.75C53.2969 15.901 53.651 15.9766 54.0469 15.9766C54.5573 15.9766 54.9896 15.8724 55.3438 15.6641C55.6979 15.4557 56.0078 15.1771 56.2734 14.8281L57.1484 15.5234C56.9661 15.7995 56.7344 16.0625 56.4531 16.3125C56.1719 16.5625 55.8255 16.7656 55.4141 16.9219C55.0078 17.0781 54.526 17.1562 53.9688 17.1562ZM61.4062 15.6953L63.7188 8.54688H65.1953L62.1562 17H61.1875L61.4062 15.6953ZM59.4766 8.54688L61.8594 15.7344L62.0234 17H61.0547L57.9922 8.54688H59.4766ZM68.1562 8.54688V17H66.7031V8.54688H68.1562ZM66.5938 6.30469C66.5938 6.07031 66.6641 5.8724 66.8047 5.71094C66.9505 5.54948 67.1641 5.46875 67.4453 5.46875C67.7214 5.46875 67.9323 5.54948 68.0781 5.71094C68.2292 5.8724 68.3047 6.07031 68.3047 6.30469C68.3047 6.52865 68.2292 6.72135 68.0781 6.88281C67.9323 7.03906 67.7214 7.11719 67.4453 7.11719C67.1641 7.11719 66.9505 7.03906 66.8047 6.88281C66.6641 6.72135 66.5938 6.52865 66.5938 6.30469ZM70.0938 12.8672V12.6875C70.0938 12.0781 70.1823 11.513 70.3594 10.9922C70.5365 10.4661 70.7917 10.0104 71.125 9.625C71.4583 9.23438 71.862 8.93229 72.3359 8.71875C72.8099 8.5 73.3411 8.39062 73.9297 8.39062C74.5234 8.39062 75.0573 8.5 75.5312 8.71875C76.0104 8.93229 76.4167 9.23438 76.75 9.625C77.0885 10.0104 77.3464 10.4661 77.5234 10.9922C77.7005 11.513 77.7891 12.0781 77.7891 12.6875V12.8672C77.7891 13.4766 77.7005 14.0417 77.5234 14.5625C77.3464 15.0833 77.0885 15.5391 76.75 15.9297C76.4167 16.3151 76.013 16.6172 75.5391 16.8359C75.0703 17.0495 74.5391 17.1562 73.9453 17.1562C73.3516 17.1562 72.8177 17.0495 72.3438 16.8359C71.8698 16.6172 71.4635 16.3151 71.125 15.9297C70.7917 15.5391 70.5365 15.0833 70.3594 14.5625C70.1823 14.0417 70.0938 13.4766 70.0938 12.8672ZM71.5391 12.6875V12.8672C71.5391 13.2891 71.5885 13.6875 71.6875 14.0625C71.7865 14.4323 71.9349 14.7604 72.1328 15.0469C72.3359 15.3333 72.5885 15.5599 72.8906 15.7266C73.1927 15.888 73.5443 15.9688 73.9453 15.9688C74.3411 15.9688 74.6875 15.888 74.9844 15.7266C75.2865 15.5599 75.5365 15.3333 75.7344 15.0469C75.9323 14.7604 76.0807 14.4323 76.1797 14.0625C76.2839 13.6875 76.3359 13.2891 76.3359 12.8672V12.6875C76.3359 12.2708 76.2839 11.8776 76.1797 11.5078C76.0807 11.1328 75.9297 10.8021 75.7266 10.5156C75.5286 10.224 75.2786 9.99479 74.9766 9.82812C74.6797 9.66146 74.3307 9.57812 73.9297 9.57812C73.5339 9.57812 73.1849 9.66146 72.8828 9.82812C72.5859 9.99479 72.3359 10.224 72.1328 10.5156C71.9349 10.8021 71.7865 11.1328 71.6875 11.5078C71.5885 11.8776 71.5391 12.2708 71.5391 12.6875ZM84.7734 15.0469V8.54688H86.2266V17H84.8438L84.7734 15.0469ZM85.0469 13.2656L85.6484 13.25C85.6484 13.8125 85.5885 14.3333 85.4688 14.8125C85.3542 15.2865 85.1667 15.6979 84.9062 16.0469C84.6458 16.3958 84.3047 16.6693 83.8828 16.8672C83.4609 17.0599 82.9479 17.1562 82.3438 17.1562C81.9323 17.1562 81.5547 17.0964 81.2109 16.9766C80.8724 16.8568 80.5807 16.6719 80.3359 16.4219C80.0911 16.1719 79.901 15.8464 79.7656 15.4453C79.6354 15.0443 79.5703 14.5625 79.5703 14V8.54688H81.0156V14.0156C81.0156 14.3958 81.0573 14.7109 81.1406 14.9609C81.2292 15.2057 81.3464 15.401 81.4922 15.5469C81.6432 15.6875 81.8099 15.7865 81.9922 15.8438C82.1797 15.901 82.3724 15.9297 82.5703 15.9297C83.1849 15.9297 83.6719 15.8125 84.0312 15.5781C84.3906 15.3385 84.6484 15.0182 84.8047 14.6172C84.9661 14.2109 85.0469 13.7604 85.0469 13.2656ZM93.3516 14.7578C93.3516 14.5495 93.3047 14.3568 93.2109 14.1797C93.1224 13.9974 92.9375 13.8333 92.6562 13.6875C92.3802 13.5365 91.9635 13.4062 91.4062 13.2969C90.9375 13.1979 90.513 13.0807 90.1328 12.9453C89.7578 12.8099 89.4375 12.6458 89.1719 12.4531C88.9115 12.2604 88.7109 12.0339 88.5703 11.7734C88.4297 11.513 88.3594 11.2083 88.3594 10.8594C88.3594 10.526 88.4323 10.2109 88.5781 9.91406C88.7292 9.61719 88.9401 9.35417 89.2109 9.125C89.487 8.89583 89.8177 8.71615 90.2031 8.58594C90.5885 8.45573 91.0182 8.39062 91.4922 8.39062C92.1693 8.39062 92.7474 8.51042 93.2266 8.75C93.7057 8.98958 94.0729 9.3099 94.3281 9.71094C94.5833 10.1068 94.7109 10.5469 94.7109 11.0312H93.2656C93.2656 10.7969 93.1953 10.5703 93.0547 10.3516C92.9193 10.1276 92.7188 9.94271 92.4531 9.79688C92.1927 9.65104 91.8724 9.57812 91.4922 9.57812C91.0911 9.57812 90.7656 9.64062 90.5156 9.76562C90.2708 9.88542 90.0911 10.0391 89.9766 10.2266C89.8672 10.4141 89.8125 10.612 89.8125 10.8203C89.8125 10.9766 89.8385 11.1172 89.8906 11.2422C89.9479 11.362 90.0469 11.474 90.1875 11.5781C90.3281 11.6771 90.526 11.7708 90.7812 11.8594C91.0365 11.9479 91.362 12.0365 91.7578 12.125C92.4505 12.2812 93.0208 12.4688 93.4688 12.6875C93.9167 12.9062 94.25 13.1745 94.4688 13.4922C94.6875 13.8099 94.7969 14.1953 94.7969 14.6484C94.7969 15.0182 94.7188 15.3568 94.5625 15.6641C94.4115 15.9714 94.1901 16.237 93.8984 16.4609C93.612 16.6797 93.2682 16.8516 92.8672 16.9766C92.4714 17.0964 92.026 17.1562 91.5312 17.1562C90.7865 17.1562 90.1562 17.0234 89.6406 16.7578C89.125 16.4922 88.7344 16.1484 88.4688 15.7266C88.2031 15.3047 88.0703 14.8594 88.0703 14.3906H89.5234C89.5443 14.7865 89.6589 15.1016 89.8672 15.3359C90.0755 15.5651 90.3307 15.7292 90.6328 15.8281C90.9349 15.9219 91.2344 15.9688 91.5312 15.9688C91.9271 15.9688 92.2578 15.9167 92.5234 15.8125C92.7943 15.7083 93 15.5651 93.1406 15.3828C93.2812 15.2005 93.3516 14.9922 93.3516 14.7578Z" fill="#B8B8B8"/>
<path d="M183.07 5.625V17H181.555L175.828 8.22656V17H174.32V5.625H175.828L181.578 14.4219V5.625H183.07ZM189.031 17.1562C188.443 17.1562 187.909 17.0573 187.43 16.8594C186.956 16.6562 186.547 16.3724 186.203 16.0078C185.865 15.6432 185.604 15.2109 185.422 14.7109C185.24 14.2109 185.148 13.6641 185.148 13.0703V12.7422C185.148 12.0547 185.25 11.4427 185.453 10.9062C185.656 10.3646 185.932 9.90625 186.281 9.53125C186.63 9.15625 187.026 8.8724 187.469 8.67969C187.911 8.48698 188.37 8.39062 188.844 8.39062C189.448 8.39062 189.969 8.49479 190.406 8.70312C190.849 8.91146 191.211 9.20312 191.492 9.57812C191.773 9.94792 191.982 10.3854 192.117 10.8906C192.253 11.3906 192.32 11.9375 192.32 12.5312V13.1797H186.008V12H190.875V11.8906C190.854 11.5156 190.776 11.151 190.641 10.7969C190.51 10.4427 190.302 10.151 190.016 9.92188C189.729 9.69271 189.339 9.57812 188.844 9.57812C188.516 9.57812 188.214 9.64844 187.938 9.78906C187.661 9.92448 187.424 10.1276 187.227 10.3984C187.029 10.6693 186.875 11 186.766 11.3906C186.656 11.7812 186.602 12.2318 186.602 12.7422V13.0703C186.602 13.4714 186.656 13.849 186.766 14.2031C186.88 14.5521 187.044 14.8594 187.258 15.125C187.477 15.3906 187.74 15.599 188.047 15.75C188.359 15.901 188.714 15.9766 189.109 15.9766C189.62 15.9766 190.052 15.8724 190.406 15.6641C190.76 15.4557 191.07 15.1771 191.336 14.8281L192.211 15.5234C192.029 15.7995 191.797 16.0625 191.516 16.3125C191.234 16.5625 190.888 16.7656 190.477 16.9219C190.07 17.0781 189.589 17.1562 189.031 17.1562ZM194.984 8.54688L196.836 11.625L198.711 8.54688H200.406L197.641 12.7188L200.492 17H198.82L196.867 13.8281L194.914 17H193.234L196.078 12.7188L193.32 8.54688H194.984ZM205.484 8.54688V9.65625H200.914V8.54688H205.484ZM202.461 6.49219H203.906V14.9062C203.906 15.1927 203.951 15.4089 204.039 15.5547C204.128 15.7005 204.242 15.7969 204.383 15.8438C204.523 15.8906 204.674 15.9141 204.836 15.9141C204.956 15.9141 205.081 15.9036 205.211 15.8828C205.346 15.8568 205.448 15.8359 205.516 15.8203L205.523 17C205.409 17.0365 205.258 17.0703 205.07 17.1016C204.888 17.138 204.667 17.1562 204.406 17.1562C204.052 17.1562 203.727 17.0859 203.43 16.9453C203.133 16.8047 202.896 16.5703 202.719 16.2422C202.547 15.9089 202.461 15.4609 202.461 14.8984V6.49219Z" fill="#FFAD00"/>
<path d="M223.439 2.43918C223.157 2.72047 223 3.10193 223 3.49968C223 3.89743 223.157 4.27889 223.439 4.56018L230.864 11.9852L223.439 19.4102C223.165 19.6931 223.014 20.072 223.018 20.4653C223.021 20.8586 223.179 21.2348 223.457 21.5129C223.735 21.791 224.111 21.9488 224.505 21.9522C224.898 21.9556 225.277 21.8044 225.56 21.5312L234.045 13.0457C234.326 12.7644 234.484 12.3829 234.484 11.9852C234.484 11.5874 234.326 11.206 234.045 10.9247L225.56 2.43918C225.278 2.15797 224.897 2 224.499 2C224.101 2 223.72 2.15797 223.439 2.43918Z" fill="#FFAD00"/>
</svg>
