<svg width="25" height="24" viewBox="0 0 25 24" fill="none" xmlns="http://www.w3.org/2000/svg">
<path d="M12.4004 6V9L16.4004 5L12.4004 1V4C7.98039 4 4.40039 7.58 4.40039 12C4.40039 13.57 4.86039 15.03 5.64039 16.26L7.10039 14.8C6.65039 13.97 6.40039 13.01 6.40039 12C6.40039 8.69 9.09039 6 12.4004 6ZM19.1604 7.74L17.7004 9.2C18.1404 10.04 18.4004 10.99 18.4004 12C18.4004 15.31 15.7104 18 12.4004 18V15L8.40039 19L12.4004 23V20C16.8204 20 20.4004 16.42 20.4004 12C20.4004 10.43 19.9404 8.97 19.1604 7.74Z" fill="#FFAD00"/>
</svg>
