<svg width="16" height="15" viewBox="0 0 16 15" fill="none" xmlns="http://www.w3.org/2000/svg">
<g clip-path="url(#clip0_672_5206)">
<path d="M13.9175 4.15893C13.4993 4.33536 13.0558 4.45118 12.6016 4.50251C13.0747 4.23247 13.4379 3.80484 13.609 3.29532C13.1592 3.54949 12.6672 3.72857 12.1541 3.82482C11.7361 3.40076 11.1407 3.13574 10.4817 3.13574C9.21637 3.13574 8.19049 4.11273 8.19049 5.31772C8.19049 5.48877 8.21078 5.65528 8.24982 5.81503C6.34567 5.724 4.65746 4.85532 3.52741 3.53516C3.33023 3.85743 3.21725 4.2323 3.21725 4.63214C3.21725 5.38918 3.62176 6.05703 4.2365 6.44835C3.87266 6.4375 3.51683 6.34391 3.19871 6.17539C3.19858 6.18453 3.19858 6.19367 3.19858 6.20286C3.19858 7.26007 3.98833 8.142 5.03641 8.34246C4.69903 8.42985 4.34513 8.44264 4.00176 8.37985C4.2933 9.24674 5.13945 9.87757 6.142 9.89523C5.35787 10.4804 4.36994 10.8293 3.29655 10.8293C3.11159 10.8293 2.92925 10.819 2.75 10.7988C3.76393 11.4179 4.96823 11.7792 6.26209 11.7792C10.4764 11.7792 12.7809 8.45422 12.7809 5.57078C12.7809 5.47614 12.7787 5.38204 12.7742 5.28848C13.2228 4.97966 13.6099 4.59716 13.9175 4.15893Z" fill="#B8B8B8"/>
</g>
<defs>
<clipPath id="clip0_672_5206">
<rect width="11.1675" height="8.68306" fill="white" transform="translate(2.75 3.10156)"/>
</clipPath>
</defs>
</svg>
