<svg width="24" height="24" viewBox="0 0 24 24" fill="none" xmlns="http://www.w3.org/2000/svg">
<path d="M7.35643 3.34605C8.17481 2.72728 9.17387 2.39355 10.2005 2.39601C10.4885 2.39601 10.7177 2.54576 10.8509 2.64879C10.9997 2.7662 11.1389 2.91596 11.2637 3.06571C11.3522 3.17301 11.4005 3.30769 11.4005 3.44669V7.78716H10.0985C9.95691 7.38749 9.67841 7.05064 9.31216 6.83614C8.94591 6.62165 8.5155 6.54332 8.097 6.61501C7.6785 6.68669 7.29885 6.90378 7.02517 7.22789C6.75148 7.55199 6.60137 7.96226 6.60137 8.38618C6.60137 8.8101 6.75148 9.22037 7.02517 9.54448C7.29885 9.86859 7.6785 10.0857 8.097 10.1574C8.5155 10.229 8.94591 10.1507 9.31216 9.93622C9.67841 9.72172 9.95691 9.38487 10.0985 8.9852H11.4005V20.2647C11.4005 20.3534 11.3809 20.441 11.3429 20.5212C11.3049 20.6013 11.2496 20.6721 11.1809 20.7283C10.6265 21.1812 9.88485 21.5646 9.00044 21.5646C7.57723 21.5646 6.51762 20.8481 5.83242 19.9915C5.34013 19.3812 5.00294 18.6611 4.84961 17.8926C4.38338 17.7685 3.9511 17.5412 3.5848 17.2277C2.92239 16.661 2.40039 15.7421 2.40039 14.3764C2.40039 13.709 2.44479 13.1064 2.54439 12.5793H6.30042C7.06363 12.5793 7.69243 13.1484 7.78843 13.884C7.38937 14.0281 7.05416 14.3085 6.84201 14.6754C6.62986 15.0424 6.5544 15.4724 6.62896 15.8895C6.70352 16.3066 6.92331 16.684 7.24951 16.955C7.57571 17.2261 7.98734 17.3733 8.41173 17.3708C8.83612 17.3682 9.24597 17.2161 9.5689 16.9412C9.89183 16.6663 10.1071 16.2863 10.1766 15.8683C10.2462 15.4503 10.1656 15.0213 9.94908 14.6569C9.73255 14.2925 9.39401 14.0162 8.99324 13.8768C8.94267 13.1983 8.637 12.5641 8.13756 12.1012C7.63813 11.6384 6.98186 11.3812 6.30042 11.3813H2.92959C3.1132 11.0243 3.3592 10.7223 3.6796 10.5079C3.76065 10.4543 3.8457 10.4071 3.934 10.3665C3.5932 9.36977 3.682 8.20288 4.0108 7.28639C4.22081 6.69695 4.55441 6.13987 5.01281 5.76848C5.31521 5.52288 5.67522 5.36114 6.06882 5.33C6.24162 4.51174 6.72643 3.83485 7.35643 3.34605ZM12.6005 17.3714H13.5005C14.2166 17.3714 14.9033 17.0874 15.4097 16.5819C15.916 16.0764 16.2005 15.3908 16.2005 14.6759V12.4775C16.6008 12.3362 16.9382 12.0581 17.1531 11.6925C17.3679 11.3268 17.4464 10.8971 17.3746 10.4793C17.3028 10.0615 17.0853 9.68248 16.7607 9.40924C16.4361 9.136 16.0251 8.98614 15.6005 8.98614C15.1759 8.98614 14.7649 9.136 14.4403 9.40924C14.1156 9.68248 13.8982 10.0615 13.8264 10.4793C13.7546 10.8971 13.8331 11.3268 14.0479 11.6925C14.2628 12.0581 14.6002 12.3362 15.0005 12.4775V14.6759C15.0005 15.5025 14.3285 16.1734 13.5005 16.1734H12.6005V3.44669C12.6004 3.30769 12.6488 3.17301 12.7373 3.06571C12.8609 2.91596 13.0013 2.7662 13.1501 2.64879C13.2821 2.54576 13.5113 2.39601 13.8005 2.39601C14.8271 2.39355 15.8261 2.72728 16.6445 3.34605C17.2745 3.83485 17.7605 4.51174 17.9321 5.33C18.3257 5.35995 18.6857 5.52288 18.9881 5.76848C19.4465 6.13987 19.7801 6.69695 19.9901 7.28639C20.3189 8.20288 20.4077 9.37097 20.0669 10.3653C20.1533 10.4061 20.2385 10.454 20.3213 10.5091C20.6513 10.7283 20.9021 11.0422 21.0869 11.4124C21.4505 12.1372 21.6005 13.1484 21.6005 14.3764C21.6005 15.7433 21.0785 16.661 20.4161 17.2277C20.0498 17.5412 19.6176 17.7685 19.1513 17.8926C19.0313 18.5611 18.6953 19.335 18.1685 19.9915C17.4845 20.8481 16.4237 21.5646 15.0005 21.5646C14.1173 21.5646 13.3745 21.1812 12.8213 20.7283C12.7524 20.6722 12.6968 20.6015 12.6586 20.5213C12.6204 20.4411 12.6006 20.3535 12.6005 20.2647V17.3714ZM8.40044 7.78716C8.24131 7.78716 8.0887 7.85027 7.97617 7.96261C7.86365 8.07495 7.80044 8.22731 7.80044 8.38618C7.80044 8.54505 7.86365 8.69741 7.97617 8.80975C8.0887 8.92209 8.24131 8.9852 8.40044 8.9852C8.55957 8.9852 8.71218 8.92209 8.82471 8.80975C8.93723 8.69741 9.00044 8.54505 9.00044 8.38618C9.00044 8.22731 8.93723 8.07495 8.82471 7.96261C8.71218 7.85027 8.55957 7.78716 8.40044 7.78716ZM8.40044 14.9754C8.24131 14.9754 8.0887 15.0385 7.97617 15.1508C7.86365 15.2632 7.80044 15.4155 7.80044 15.5744C7.80044 15.7333 7.86365 15.8856 7.97617 15.998C8.0887 16.1103 8.24131 16.1734 8.40044 16.1734C8.55957 16.1734 8.71218 16.1103 8.82471 15.998C8.93723 15.8856 9.00044 15.7333 9.00044 15.5744C9.00044 15.4155 8.93723 15.2632 8.82471 15.1508C8.71218 15.0385 8.55957 14.9754 8.40044 14.9754ZM15.6005 11.3813C15.7596 11.3813 15.9122 11.3182 16.0248 11.2058C16.1373 11.0935 16.2005 10.9411 16.2005 10.7822C16.2005 10.6234 16.1373 10.471 16.0248 10.3587C15.9122 10.2463 15.7596 10.1832 15.6005 10.1832C15.4414 10.1832 15.2888 10.2463 15.1762 10.3587C15.0637 10.471 15.0005 10.6234 15.0005 10.7822C15.0005 10.9411 15.0637 11.0935 15.1762 11.2058C15.2888 11.3182 15.4414 11.3813 15.6005 11.3813Z" fill="#1A1A1A"/>
</svg>
