<svg width="60" height="60" viewBox="0 0 60 60" fill="none" xmlns="http://www.w3.org/2000/svg">
<path d="M58.7271 29.5649L45.6021 25.0999C45.2117 24.9649 44.7874 24.9649 44.3971 25.0999L31.2721 29.5649C30.9007 29.6901 30.5781 29.9288 30.3498 30.2473C30.1214 30.5658 29.9989 30.948 29.9996 31.3399V41.3849C29.9996 53.6449 43.6846 59.6049 44.2671 59.8524C44.4989 59.9502 44.748 60.0006 44.9996 60.0006C45.2512 60.0006 45.5002 59.9502 45.7321 59.8524C46.3146 59.6024 59.9996 53.6449 59.9996 41.3849V31.3399C60.0002 30.948 59.8777 30.5658 59.6494 30.2473C59.421 29.9288 59.0984 29.6901 58.7271 29.5649ZM53.2146 39.0449L46.3396 47.7949C46.1313 48.0602 45.8715 48.2806 45.5758 48.4428C45.2801 48.6051 44.9547 48.7058 44.6191 48.7389C44.2834 48.7721 43.9446 48.737 43.6228 48.6358C43.3011 48.5346 43.0032 48.3693 42.7471 48.1499L38.3721 44.3999C38.1124 44.1896 37.8976 43.9294 37.7402 43.6346C37.5829 43.3398 37.4862 43.0165 37.4559 42.6837C37.4257 42.351 37.4624 42.0155 37.564 41.6972C37.6656 41.3789 37.83 41.0841 38.0474 40.8304C38.2649 40.5767 38.531 40.3692 38.83 40.2201C39.129 40.0709 39.4549 39.9833 39.7884 39.9623C40.1219 39.9412 40.4562 39.9873 40.7715 40.0977C41.0869 40.208 41.377 40.3805 41.6246 40.6049L44.0196 42.6574L49.2821 35.9599C49.4846 35.7014 49.7361 35.4853 50.0223 35.3242C50.3085 35.1631 50.6237 35.0601 50.9498 35.021C51.2759 34.982 51.6065 35.0078 51.9227 35.0968C52.2388 35.1859 52.5343 35.3364 52.7921 35.5399C53.0506 35.7418 53.2668 35.9928 53.4281 36.2785C53.5893 36.5642 53.6926 36.8789 53.7318 37.2046C53.7711 37.5303 53.7456 37.8606 53.6568 38.1764C53.5681 38.4922 53.4178 38.7874 53.2146 39.0449ZM16.8746 23.7499H13.1246C12.8596 23.7495 12.5977 23.6932 12.3561 23.5846C12.1144 23.4761 11.8983 23.3177 11.7221 23.1199L6.72205 17.4949C6.55851 17.3108 6.43285 17.0962 6.35226 16.8635C6.27166 16.6307 6.23771 16.3844 6.25233 16.1385C6.26696 15.8927 6.32988 15.6521 6.4375 15.4306C6.54512 15.209 6.69533 15.0109 6.87955 14.8474H23.1196C23.3038 15.0109 23.454 15.209 23.5616 15.4306C23.6692 15.6521 23.7321 15.8927 23.7468 16.1385C23.7614 16.3844 23.7274 16.6307 23.6469 16.8635C23.5663 17.0962 23.4406 17.3108 23.2771 17.4949L18.2771 23.1199C18.1008 23.3177 17.8847 23.4761 17.6431 23.5846C17.4014 23.6932 17.1395 23.7495 16.8746 23.7499Z" fill="#FFAD00"/>
<path d="M15 35C14.5027 35 14.0258 34.8025 13.6742 34.4508C13.3225 34.0992 13.125 33.6223 13.125 33.125V21.875C13.125 21.3777 13.3225 20.9008 13.6742 20.5492C14.0258 20.1975 14.5027 20 15 20C15.4973 20 15.9742 20.1975 16.3258 20.5492C16.6775 20.9008 16.875 21.3777 16.875 21.875V33.125C16.875 33.6223 16.6775 34.0992 16.3258 34.4508C15.9742 34.8025 15.4973 35 15 35Z" fill="#1A1A1A"/>
<path d="M22.402 40.0325L19.902 32.5325C19.7777 32.1593 19.5392 31.8346 19.2202 31.6045C18.9012 31.3743 18.5179 31.2503 18.1245 31.25H11.8745C11.4812 31.2503 11.0979 31.3743 10.7789 31.6045C10.4599 31.8346 10.2214 32.1593 10.097 32.5325L7.59705 40.0325C7.50263 40.3142 7.47662 40.6144 7.52115 40.9082C7.56569 41.2019 7.67949 41.4809 7.85317 41.722C8.02684 41.9631 8.25539 42.1594 8.51993 42.2947C8.78448 42.4299 9.07742 42.5003 9.37455 42.5H20.6245C20.9217 42.5003 21.2146 42.4299 21.4792 42.2947C21.7437 42.1594 21.9723 41.9631 22.1459 41.722C22.3196 41.4809 22.4334 41.2019 22.4779 40.9082C22.5225 40.6144 22.4965 40.3142 22.402 40.0325Z" fill="#1A1A1A"/>
<path d="M15 50C14.5027 50 14.0258 49.8025 13.6742 49.4508C13.3225 49.0992 13.125 48.6223 13.125 48.125V40.625C13.125 40.1277 13.3225 39.6508 13.6742 39.2992C14.0258 38.9475 14.5027 38.75 15 38.75C15.4973 38.75 15.9742 38.9475 16.3258 39.2992C16.6775 39.6508 16.875 40.1277 16.875 40.625V48.125C16.875 48.6223 16.6775 49.0992 16.3258 49.4508C15.9742 49.8025 15.4973 50 15 50Z" fill="#1A1A1A"/>
<path d="M15 60C13.177 59.9987 11.4291 59.2739 10.1401 57.9849C8.85108 56.6959 8.12632 54.948 8.125 53.125C8.125 52.6277 8.32254 52.1508 8.67417 51.7992C9.02581 51.4475 9.50272 51.25 10 51.25C10.4973 51.25 10.9742 51.4475 11.3258 51.7992C11.6775 52.1508 11.875 52.6277 11.875 53.125C11.875 54.8475 13.2775 56.25 15 56.25C16.7225 56.25 18.125 54.8475 18.125 53.125C18.125 51.4025 16.7225 50 15 50C14.5027 50 14.0258 49.8025 13.6742 49.4508C13.3225 49.0992 13.125 48.6223 13.125 48.125C13.125 47.6277 13.3225 47.1508 13.6742 46.7992C14.0258 46.4475 14.5027 46.25 15 46.25C18.7925 46.25 21.875 49.3325 21.875 53.125C21.875 56.9175 18.7925 60 15 60ZM51.25 0H1.875C1.37772 0 0.900805 0.197544 0.549175 0.549175C0.197544 0.900805 0 1.37772 0 1.875L0 15.625C0 16.66 0.84 17.5 1.875 17.5H51.25C56.075 17.5 60 13.575 60 8.75C60 3.925 56.075 0 51.25 0ZM38.125 10.625H9.375C8.87772 10.625 8.40081 10.4275 8.04917 10.0758C7.69754 9.72419 7.5 9.24728 7.5 8.75C7.5 8.25272 7.69754 7.77581 8.04917 7.42417C8.40081 7.07254 8.87772 6.875 9.375 6.875H38.125C38.6223 6.875 39.0992 7.07254 39.4508 7.42417C39.8025 7.77581 40 8.25272 40 8.75C40 9.24728 39.8025 9.72419 39.4508 10.0758C39.0992 10.4275 38.6223 10.625 38.125 10.625ZM48.75 11.25C48.087 11.25 47.4511 10.9866 46.9822 10.5178C46.5134 10.0489 46.25 9.41304 46.25 8.75C46.25 8.08696 46.5134 7.45107 46.9822 6.98223C47.4511 6.51339 48.087 6.25 48.75 6.25C49.413 6.25 50.0489 6.51339 50.5178 6.98223C50.9866 7.45107 51.25 8.08696 51.25 8.75C51.25 9.41304 50.9866 10.0489 50.5178 10.5178C50.0489 10.9866 49.413 11.25 48.75 11.25Z" fill="#1A1A1A"/>
</svg>
