<svg width="63" height="62" viewBox="0 0 63 62" fill="none" xmlns="http://www.w3.org/2000/svg">
<path fill-rule="evenodd" clip-rule="evenodd" d="M34.8607 19.6457C35.3283 19.6059 35.764 19.3921 36.0816 19.0465C36.3992 18.701 36.5755 18.2488 36.5757 17.7795C36.5775 14.6207 36.5775 7.97445 36.5775 4.7207C36.5775 4.22342 36.7751 3.74651 37.1267 3.39488C37.4784 3.04325 37.9553 2.8457 38.4525 2.8457H58.6138C59.1111 2.8457 59.588 3.04325 59.9396 3.39488C60.2913 3.74651 60.4888 4.22342 60.4888 4.7207V56.917C60.4888 57.4142 60.2913 57.8911 59.9396 58.2428C59.588 58.5944 59.1111 58.792 58.6138 58.792H38.4525C37.9553 58.792 37.4784 58.5944 37.1267 58.2428C36.7751 57.8911 36.5775 57.4142 36.5775 56.917V45.2495C36.5782 45.0448 36.5285 44.843 36.4327 44.6621C36.337 44.4812 36.1982 44.3266 36.0286 44.212C35.859 44.0974 35.6638 44.0262 35.4603 44.0048C35.2567 43.9835 35.051 44.0125 34.8613 44.0895C31.9575 45.4138 27.6419 49.2901 27.075 57.0526C27.0408 57.5223 26.83 57.9617 26.4851 58.2824C26.1402 58.603 25.6866 58.7813 25.2157 58.7813C20.8 58.792 9.45254 58.792 4.91004 58.792C4.65704 58.7921 4.40663 58.741 4.17391 58.6418C3.94118 58.5425 3.73097 58.3972 3.55594 58.2145C3.3809 58.0318 3.24468 57.8156 3.15548 57.5788C3.06628 57.3421 3.02595 57.0897 3.03692 56.837C3.56754 44.6801 7.51567 35.5751 14.0707 29.5451C18.8319 25.1645 25.1257 21.0145 33.2888 19.8126C33.6263 19.7626 34.2469 19.7001 34.8607 19.6457Z" fill="white"/>
<path fill-rule="evenodd" clip-rule="evenodd" d="M47.5952 47.7383V53.3633C47.5952 53.6119 47.694 53.8504 47.8698 54.0262C48.0456 54.202 48.2841 54.3008 48.5327 54.3008C48.7814 54.3008 49.0198 54.202 49.1956 54.0262C49.3714 53.8504 49.4702 53.6119 49.4702 53.3633V47.7383C49.4702 47.4896 49.3714 47.2512 49.1956 47.0754C49.0198 46.8996 48.7814 46.8008 48.5327 46.8008C48.2841 46.8008 48.0456 46.8996 47.8698 47.0754C47.694 47.2512 47.5952 47.4896 47.5952 47.7383ZM47.5952 34.6133V40.2383C47.5952 40.4869 47.694 40.7254 47.8698 40.9012C48.0456 41.077 48.2841 41.1758 48.5327 41.1758C48.7814 41.1758 49.0198 41.077 49.1956 40.9012C49.3714 40.7254 49.4702 40.4869 49.4702 40.2383V34.6133C49.4702 34.3646 49.3714 34.1262 49.1956 33.9504C49.0198 33.7746 48.7814 33.6758 48.5327 33.6758C48.2841 33.6758 48.0456 33.7746 47.8698 33.9504C47.694 34.1262 47.5952 34.3646 47.5952 34.6133ZM47.5952 21.4883V27.1133C47.5952 27.3619 47.694 27.6004 47.8698 27.7762C48.0456 27.952 48.2841 28.0508 48.5327 28.0508C48.7814 28.0508 49.0198 27.952 49.1956 27.7762C49.3714 27.6004 49.4702 27.3619 49.4702 27.1133V21.4883C49.4702 21.2396 49.3714 21.0012 49.1956 20.8254C49.0198 20.6496 48.7814 20.5508 48.5327 20.5508C48.2841 20.5508 48.0456 20.6496 47.8698 20.8254C47.694 21.0012 47.5952 21.2396 47.5952 21.4883ZM47.5952 8.36328V13.9883C47.5952 14.2369 47.694 14.4754 47.8698 14.6512C48.0456 14.827 48.2841 14.9258 48.5327 14.9258C48.7814 14.9258 49.0198 14.827 49.1956 14.6512C49.3714 14.4754 49.4702 14.2369 49.4702 13.9883V8.36328C49.4702 8.11464 49.3714 7.87618 49.1956 7.70037C49.0198 7.52455 48.7814 7.42578 48.5327 7.42578C48.2841 7.42578 48.0456 7.52455 47.8698 7.70037C47.694 7.87618 47.5952 8.11464 47.5952 8.36328ZM16.3515 46.2783C15.6827 48.0919 15.18 49.9625 14.8496 51.867C14.8109 52.1099 14.8691 52.3583 15.0119 52.5586C15.1546 52.759 15.3703 52.8952 15.6126 52.9379C15.8548 52.9806 16.1041 52.9264 16.3067 52.787C16.5094 52.6476 16.6491 52.4341 16.6958 52.1927C17.007 50.3998 17.48 48.6389 18.109 46.9314C18.1932 46.6989 18.1821 46.4425 18.0781 46.2182C17.9742 45.9938 17.7858 45.8196 17.5541 45.7334C17.3223 45.6473 17.0658 45.6562 16.8406 45.7583C16.6153 45.8603 16.4395 46.0472 16.3515 46.2783ZM24.0658 35.2489C22.5612 36.4914 21.2094 37.9082 20.039 39.4695C19.8991 39.6689 19.8423 39.9148 19.8805 40.1553C19.9187 40.3958 20.0489 40.612 20.2436 40.7583C20.4383 40.9045 20.6822 40.9693 20.9239 40.939C21.1655 40.9087 21.3858 40.7856 21.5383 40.5958C22.6196 39.1529 23.8685 37.8437 25.259 36.6958C25.4508 36.5376 25.572 36.3096 25.5958 36.0621C25.6196 35.8145 25.5441 35.5676 25.3858 35.3758C25.2276 35.1839 24.9997 35.0628 24.7521 35.039C24.5046 35.0152 24.2577 35.0907 24.0658 35.2489ZM36.5008 30.0158C34.704 30.1627 32.7552 30.5908 30.7827 31.3383C30.5501 31.4264 30.3621 31.6033 30.26 31.83C30.1578 32.0567 30.1499 32.3148 30.238 32.5473C30.3261 32.7799 30.503 32.9679 30.7297 33.0701C30.9565 33.1722 31.2145 33.1801 31.4471 33.092C33.2433 32.4114 35.0171 32.0183 36.6533 31.8845C36.7766 31.8753 36.8968 31.8417 37.0071 31.7858C37.1173 31.7299 37.2154 31.6527 37.2957 31.5587C37.376 31.4648 37.437 31.3558 37.475 31.2382C37.5131 31.1206 37.5275 30.9966 37.5174 30.8734C37.5074 30.7502 37.473 30.6302 37.4164 30.5203C37.3598 30.4104 37.282 30.3128 37.1876 30.2331C37.0931 30.1534 36.9838 30.0932 36.8659 30.0559C36.748 30.0186 36.624 30.0049 36.5008 30.0158Z" fill="#FFAD00"/>
</svg>
