<svg width="60" height="60" viewBox="0 0 60 60" fill="none" xmlns="http://www.w3.org/2000/svg">
<path d="M37.8828 3.51562H35.8246C35.0984 1.46941 33.1433 0 30.8516 0C28.5598 0 26.6047 1.46941 25.8785 3.51562H23.8203C20.9124 3.51562 18.5469 5.88117 18.5469 8.78906C18.5469 9.76066 19.3331 10.5469 20.3047 10.5469H41.3984C42.37 10.5469 43.1562 9.76066 43.1562 8.78906C43.1562 5.88117 40.7907 3.51562 37.8828 3.51562Z" fill="white"/>
<path d="M48.4297 7.03125H46.494C46.6122 7.60972 46.6718 8.19864 46.6719 8.78906C46.6719 11.697 44.3063 14.0625 41.3984 14.0625H20.3047C17.3968 14.0625 15.0312 11.697 15.0312 8.78906C15.0312 8.18719 15.0932 7.59949 15.2091 7.03125H13.2734C10.3655 7.03125 8 9.3968 8 12.3047V54.7266C8 57.6345 10.3655 60 13.2734 60H48.4297C51.3376 60 53.7031 57.6345 53.7031 54.7266V12.3047C53.7031 9.3968 51.3376 7.03125 48.4297 7.03125ZM25.5781 49.2188H18.5469C17.5753 49.2188 16.7891 48.4325 16.7891 47.4609C16.7891 46.4893 17.5753 45.7031 18.5469 45.7031H25.5781C26.5497 45.7031 27.3359 46.4893 27.3359 47.4609C27.3359 48.4325 26.5497 49.2188 25.5781 49.2188ZM25.5781 36.9141H18.5469C17.5753 36.9141 16.7891 36.1279 16.7891 35.1562C16.7891 34.1846 17.5753 33.3984 18.5469 33.3984H25.5781C26.5497 33.3984 27.3359 34.1846 27.3359 35.1562C27.3359 36.1279 26.5497 36.9141 25.5781 36.9141ZM25.5781 24.6094H18.5469C17.5753 24.6094 16.7891 23.8232 16.7891 22.8516C16.7891 21.88 17.5753 21.0938 18.5469 21.0938H25.5781C26.5497 21.0938 27.3359 21.88 27.3359 22.8516C27.3359 23.8232 26.5497 24.6094 25.5781 24.6094ZM42.6412 49.7338C43.3278 50.4204 43.3278 51.5328 42.6412 52.2195C42.4782 52.3829 42.2845 52.5126 42.0712 52.601C41.8579 52.6894 41.6293 52.7348 41.3984 52.7345C41.1676 52.7348 40.9389 52.6894 40.7256 52.601C40.5124 52.5126 40.3187 52.3829 40.1557 52.2195L37.8828 49.9466L35.61 52.2195C35.447 52.3829 35.2532 52.5126 35.04 52.601C34.8267 52.6894 34.5981 52.7348 34.3672 52.7345C34.1363 52.7348 33.9077 52.6894 33.6944 52.601C33.4811 52.5126 33.2874 52.3829 33.1244 52.2195C32.4378 51.5328 32.4378 50.4204 33.1244 49.7338L35.3971 47.4609L33.1243 45.1881C32.4377 44.5015 32.4377 43.389 33.1243 42.7024C33.8109 42.0158 34.9234 42.0158 35.61 42.7024L37.8828 44.9753L40.1557 42.7024C40.8423 42.0158 41.9547 42.0158 42.6413 42.7024C43.3279 43.389 43.3279 44.5015 42.6413 45.1881L40.3685 47.4609L42.6412 49.7338ZM44.399 32.8834L39.1256 38.1568C38.9626 38.3203 38.7689 38.45 38.5556 38.5384C38.3423 38.6268 38.1137 38.6721 37.8828 38.6719C37.6519 38.6721 37.4233 38.6268 37.21 38.5384C36.9967 38.45 36.803 38.3203 36.64 38.1568L33.1244 34.6412C32.4378 33.9546 32.4378 32.8421 33.1244 32.1555C33.811 31.4689 34.9235 31.4689 35.6101 32.1555L37.8828 34.4284L41.9135 30.3977C42.6001 29.7111 43.7125 29.7111 44.3991 30.3977C45.0857 31.0843 45.0857 32.1968 44.399 32.8834ZM44.399 22.3365L39.1256 27.61C38.9626 27.7734 38.7689 27.9031 38.5556 27.9915C38.3423 28.0799 38.1137 28.1253 37.8828 28.125C37.6519 28.1253 37.4233 28.0799 37.21 27.9915C36.9967 27.9031 36.803 27.7735 36.64 27.61L33.1244 24.0943C32.4378 23.4077 32.4378 22.2953 33.1244 21.6087C33.811 20.9221 34.9235 20.9221 35.6101 21.6087L37.8828 23.8815L41.9135 19.8509C42.6001 19.1643 43.7125 19.1643 44.3991 19.8509C45.0857 20.5375 45.0857 21.6499 44.399 22.3365Z" fill="white"/>
</svg>
