<svg width="60" height="60" viewBox="0 0 60 60" fill="none" xmlns="http://www.w3.org/2000/svg">
<circle cx="29" cy="22" r="19" fill="#FFAD00"/>
<path d="M55.1835 31.9688C53.9882 30.5977 52.4764 28.4766 51.1874 25.2306C51.1288 25.0899 51.1757 24.9141 51.2929 24.8087C52.3593 23.7306 53.3436 22.7696 53.496 21.3985C53.5194 20.754 53.2499 20.2618 53.1327 20.0274C52.2421 18.3399 52.453 17.4727 51.3046 14.6485C49.9218 11.2501 48.4569 7.65243 45.1757 5.0743C44.4491 4.50008 42.9257 3.42196 40.078 2.51962C35.0975 0.97274 21.5741 -3.28117 11.4491 5.46102C5.5077 10.5938 1.81629 19.2774 3.38661 26.7657C4.76942 33.3634 9.32801 34.5938 10.9452 41.4727C12.539 48.2696 9.90223 54.7266 7.39442 59.1563C8.61317 59.1915 9.83192 59.2266 11.0389 59.2618C11.0389 59.1563 11.0624 59.0509 11.121 58.9454L14.953 52.3243V46.0899C12.4569 45.3282 12.9725 41.6368 15.6093 41.6016C18.246 41.6368 18.7616 45.3282 16.2655 46.0899V52.5001C16.2655 52.6173 16.2304 52.7345 16.1718 52.8282L12.4335 59.297C13.4413 59.3204 14.4491 59.3556 15.4452 59.379C15.4218 59.2384 15.4335 59.086 15.5155 58.9454L19.2069 52.5704C17.6366 51.2579 18.6561 48.5157 20.7304 48.5626C23.9764 48.6915 23.6366 53.4845 20.414 53.1212L16.7694 59.4141C18.2694 59.461 19.7811 59.4962 21.2811 59.5431C21.1991 59.3556 21.1874 59.1329 21.3046 58.9454L28.1483 47.1329C26.5194 45.8438 27.5155 43.0431 29.6249 43.0899C32.8241 43.2071 32.5546 47.9298 29.3671 47.6602L22.4647 59.5782L27.5038 59.7188C27.5038 59.6251 27.5272 59.5313 27.5741 59.4376L32.8007 49.2188C32.8827 49.0665 33.0233 48.9493 33.1874 48.8907L37.1483 47.6485C37.3007 44.672 41.66 44.7306 41.7304 47.7188C41.7421 50.0157 38.6483 50.8712 37.4882 48.9259L33.8319 50.0743L28.8749 59.7657C30.3514 59.8126 31.8397 59.8477 33.3163 59.8946C33.6796 58.4649 34.453 56.2735 36.246 54.1993C37.0194 53.4493 37.6757 52.2891 38.8475 52.6056L46.5468 54.9259C48.1288 55.2423 49.1014 54.7618 49.453 54.5743C51.3514 53.5079 52.2186 50.5665 51.1874 47.461C52.8514 46.9454 54.0116 45.4923 53.039 43.9102C54.3046 43.2891 54.7616 42.1407 53.9647 40.7696C53.7889 40.4298 53.6015 40.2071 53.4022 39.6681C53.2616 39.2931 53.1913 39.1056 53.2265 38.9415C53.3319 38.3907 54.1874 38.297 55.0077 37.8399C56.0155 37.2657 56.8007 36.211 56.953 35.3438C57.1639 34.0431 56.0389 32.9532 55.1835 31.9688ZM42.1054 23.0626C42.1054 23.3438 41.8827 23.5665 41.6014 23.5665H39.328C38.9882 25.1837 38.3554 26.6954 37.4764 28.0313L39.0819 29.6368C39.2811 29.836 39.2811 30.1524 39.0819 30.3516L36.0936 33.3516C35.8944 33.5509 35.5663 33.5509 35.3788 33.3516L33.7733 31.7462C32.4374 32.6251 30.9257 33.2696 29.3085 33.5977V35.8595C29.3085 36.1407 29.0858 36.3634 28.8046 36.3634H24.5858C24.3046 36.3634 24.0702 36.129 24.0702 35.8477V33.5743C22.453 33.2462 20.9413 32.6016 19.6054 31.7227L17.9999 33.3282C17.8124 33.5274 17.4843 33.5274 17.285 33.3282L14.2968 30.3634C14.0975 30.1641 14.0975 29.836 14.2968 29.6485L15.9022 28.0431C15.0233 26.7071 14.3905 25.1954 14.0507 23.5782H11.7772C11.496 23.5782 11.2733 23.3556 11.2733 23.0743V18.8556C11.2733 18.5743 11.496 18.3516 11.7772 18.3516H14.0507C14.3788 16.7579 15.0233 15.2227 15.9022 13.8868L14.2968 12.2696C14.0975 12.0704 14.0975 11.7423 14.2968 11.5548L17.2733 8.57821C17.4725 8.37899 17.8007 8.37899 17.9882 8.57821L19.5936 10.1837C20.9296 9.30477 22.4647 8.66024 24.0585 8.33212V6.04696C24.0585 5.76571 24.2811 5.54305 24.5624 5.54305H28.7811C29.0624 5.54305 29.285 5.77743 29.285 6.04696V8.3204C30.9022 8.66024 32.4139 9.29305 33.7499 10.172L35.3554 8.56649C35.5546 8.36727 35.871 8.36727 36.0702 8.56649L39.0468 11.5431C39.246 11.7423 39.246 12.0587 39.0468 12.2579L37.4413 13.8634C38.3202 15.1993 38.953 16.711 39.2929 18.3282H41.5663C41.8475 18.3282 42.0819 18.5626 42.0819 18.8438V23.0626H42.1054ZM38.4491 47.7071C38.4725 46.4181 40.3944 46.4181 40.4179 47.7071C40.3827 49.0079 38.4725 49.0079 38.4491 47.7071ZM34.5936 19.6876C35.8358 29.9766 21.5272 32.6134 18.8905 22.7696C17.5077 17.2149 22.7225 11.8595 28.3241 13.1251C31.5468 13.7696 34.0897 16.4298 34.5936 19.6876ZM29.3788 46.3009C28.2538 46.0665 28.4765 44.4024 29.6132 44.4024C30.1522 44.4024 30.5975 44.8477 30.5975 45.3868C30.6093 45.9845 29.9413 46.5587 29.3788 46.3009ZM19.7577 50.8595C19.7811 49.5704 21.703 49.5704 21.7264 50.8595C21.6913 52.1485 19.7694 52.1485 19.7577 50.8595ZM14.6249 43.8985C14.6483 42.6095 16.5702 42.6095 16.5936 43.8985C16.5702 45.1876 14.6483 45.1876 14.6249 43.8985Z" fill="white"/>
</svg>
