<svg width="60" height="60" viewBox="0 0 60 60" fill="none" xmlns="http://www.w3.org/2000/svg">
<g clip-path="url(#clip0_1532_262)">
<path d="M50.4994 27.4086V31.2768C54.2856 33.1686 56.4856 35.5104 56.4856 37.8335C56.4856 43.1578 45.7734 47.3405 35.1754 48.2221C34.2077 48.3018 33.4884 49.151 33.5693 50.1175C33.6452 51.047 34.4467 51.7975 35.4647 51.7247C44.69 50.9652 60 46.9843 60 37.8335C60 32.8357 55.1099 29.3975 50.4994 27.4086ZM19.4322 42.2537C18.4561 41.2605 16.7598 41.7459 16.4619 43.1103L15.6853 46.6665C4.05188 43.5354 -1.53351 36.8009 9.52149 31.2768V27.4086C-4.98468 33.6664 -2.70831 45.4202 14.9344 50.1048L14.2361 53.3021C13.9367 54.673 15.2952 55.8326 16.6055 55.3085L25.3915 51.7941C26.5538 51.3293 26.8723 49.8267 25.9924 48.931L19.4322 42.2537ZM30.7818 4.79167C30.5155 4.64076 30.2144 4.56201 29.9084 4.56325C29.6023 4.56448 29.3019 4.64565 29.0368 4.79871L14.7926 13.0226L30.0083 21.8074L45.2292 12.9785L30.7818 4.79167Z" fill="white"/>
<path d="M13.0353 32.5138C13.0353 32.8222 13.1165 33.1253 13.2707 33.3924C13.4249 33.6595 13.6467 33.8814 13.9138 34.0356L28.253 42.3143V24.852L13.0352 16.0659L13.0353 32.5138ZM46.9852 32.5138V16.0225L31.7675 24.8496V42.3143L46.1066 34.0356C46.3738 33.8814 46.5956 33.6595 46.7498 33.3924C46.904 33.1253 46.9852 32.8222 46.9852 32.5138Z" fill="white"/>
</g>
<defs>
<clipPath id="clip0_1532_262">
<rect width="60" height="60" fill="white"/>
</clipPath>
</defs>
</svg>
