<svg width="63" height="62" viewBox="0 0 63 62" fill="none" xmlns="http://www.w3.org/2000/svg">
<g clip-path="url(#clip0_672_4314)">
<g clip-path="url(#clip1_672_4314)">
<path d="M47.2873 24.1403C47.02 24.1403 46.7636 24.2465 46.5745 24.4355C46.3855 24.6245 46.2793 24.8809 46.2793 25.1483V26.7294C46.2793 26.9967 46.3855 27.2531 46.5745 27.4421C46.7636 27.6312 47.02 27.7374 47.2873 27.7374C47.5546 27.7374 47.811 27.6312 48.0001 27.4421C48.1891 27.2531 48.2953 26.9967 48.2953 26.7294V25.1483C48.2953 24.8809 48.1891 24.6245 48.0001 24.4355C47.811 24.2465 47.5546 24.1403 47.2873 24.1403Z" fill="white"/>
<path d="M61.3966 42.9632H48.2951V31.4734C48.2951 31.2061 48.1889 30.9497 47.9998 30.7607C47.8108 30.5716 47.5544 30.4654 47.2871 30.4654C47.0197 30.4654 46.7633 30.5716 46.5743 30.7607C46.3853 30.9497 46.2791 31.2061 46.2791 31.4734V49.7139H37.1048V44.5518H39.5024C39.7698 44.5518 40.0262 44.4456 40.2152 44.2566C40.4042 44.0675 40.5104 43.8111 40.5104 43.5438C40.5104 43.2765 40.4042 43.0201 40.2152 42.831C40.0262 42.642 39.7698 42.5358 39.5024 42.5358H37.1048V37.4611H39.5024C39.7698 37.4611 40.0262 37.3549 40.2152 37.1659C40.4042 36.9768 40.5104 36.7204 40.5104 36.4531C40.5104 36.1858 40.4042 35.9294 40.2152 35.7403C40.0262 35.5513 39.7698 35.4451 39.5024 35.4451H37.1048V30.3701H39.5024C39.7698 30.3701 40.0262 30.2639 40.2152 30.0749C40.4042 29.8858 40.5104 29.6294 40.5104 29.3621C40.5104 29.0948 40.4042 28.8384 40.2152 28.6493C40.0262 28.4603 39.7698 28.3541 39.5024 28.3541H37.1048V23.2791H39.5024C39.7698 23.2791 40.0262 23.1729 40.2152 22.9839C40.4042 22.7948 40.5104 22.5384 40.5104 22.2711C40.5104 22.0038 40.4042 21.7474 40.2152 21.5583C40.0262 21.3693 39.7698 21.2631 39.5024 21.2631H37.1048V16.1883H39.5024C39.7698 16.1883 40.0262 16.0821 40.2152 15.893C40.4042 15.704 40.5104 15.4476 40.5104 15.1803C40.5104 14.9129 40.4042 14.6565 40.2152 14.4675C40.0262 14.2785 39.7698 14.1723 39.5024 14.1723H37.1048V9.09712H39.5024C39.7698 9.09712 40.0262 8.99092 40.2152 8.80188C40.4042 8.61285 40.5104 8.35646 40.5104 8.08912C40.5104 7.82178 40.4042 7.56539 40.2152 7.37636C40.0262 7.18732 39.7698 7.08112 39.5024 7.08112H37.1048V2.28592H46.2791V32.6099C46.2791 32.8773 46.3853 33.1336 46.5743 33.3227C46.7633 33.5117 47.0197 33.6179 47.2871 33.6179C47.5544 33.6179 47.8108 33.5117 47.9998 33.3227C48.1889 33.1336 48.2951 32.8773 48.2951 32.6099V1.27778C48.2951 1.01044 48.1889 0.754049 47.9998 0.565012C47.8108 0.375975 47.5544 0.269775 47.2871 0.269775H36.0968C35.8295 0.269775 35.5731 0.375975 35.3841 0.565012C35.195 0.754049 35.0888 1.01044 35.0888 1.27778V26.8307C32.3425 27.0696 30.1591 28.2153 29.2623 28.7573L26.2678 27.8006L33.3245 18.8803C34.3166 17.6265 34.105 15.7973 32.8532 14.8027C31.6016 13.8079 29.7719 14.0156 28.7747 15.2654L20.7981 25.2614L15.2433 15.3009C14.9228 14.7266 14.4548 14.2483 13.8877 13.9152C13.3206 13.5821 12.6748 13.4063 12.0172 13.406H2.03939C1.77206 13.406 1.51567 13.5122 1.32663 13.7013C1.13759 13.8903 1.03139 14.1467 1.03139 14.414C1.03139 14.6814 1.13759 14.9378 1.32663 15.1268C1.51567 15.3158 1.77206 15.422 2.03939 15.422H12.0172C12.6248 15.422 13.1864 15.7518 13.4825 16.2827L19.769 27.5549C19.7718 27.5599 19.7752 27.5644 19.778 27.5693C19.7838 27.5794 19.7903 27.5892 19.7965 27.5991C19.8317 27.6552 19.8723 27.7077 19.9177 27.7559C19.9238 27.7623 19.9292 27.7689 19.9356 27.7752C19.9613 27.8011 19.9884 27.8256 20.0169 27.8487C20.0234 27.8537 20.0303 27.8583 20.0368 27.8633C20.0596 27.8806 20.0829 27.8972 20.1069 27.9126C20.1172 27.9192 20.1277 27.9253 20.138 27.9315C20.1606 27.9448 20.1837 27.9571 20.2072 27.9686C20.2177 27.9738 20.2279 27.979 20.2385 27.9837C20.2718 27.9987 20.3058 28.0122 20.3408 28.0235L20.3425 28.0242L24.2668 29.2779L29.1003 30.8218C29.2491 30.8694 29.4069 30.8817 29.5612 30.8578C29.7155 30.8339 29.8622 30.7745 29.9896 30.6842C30.0136 30.6672 32.1746 29.1592 35.0887 28.8549V39.5219L31.5492 41.7467H22.4507C21.948 37.2709 18.1418 33.7797 13.5338 33.7797C8.92576 33.7797 5.11955 37.2709 4.61685 41.7468H2.03925C1.77191 41.7468 1.51552 41.853 1.32649 42.0421C1.13745 42.2311 1.03125 42.4875 1.03125 42.7548C1.03125 43.0222 1.13745 43.2785 1.32649 43.4676C1.51552 43.6566 1.77191 43.7628 2.03925 43.7628H4.61685C5.11941 48.2386 8.92576 51.7298 13.5338 51.7298C18.1418 51.7298 21.9478 48.2386 22.4505 43.7628H31.8396C32.0294 43.7628 32.2155 43.7093 32.376 43.6083L35.0887 41.9031V50.7218C35.0887 50.9891 35.1949 51.2455 35.3839 51.4345C35.573 51.6236 35.8293 51.7298 36.0967 51.7298H61.3966C61.664 51.7298 61.9203 51.6236 62.1094 51.4345C62.2984 51.2455 62.4046 50.9891 62.4046 50.7218V43.971C62.4046 43.7037 62.2984 43.4473 62.1094 43.2583C61.9203 43.0692 61.664 42.9632 61.3966 42.9632ZM13.5338 49.7139C9.69645 49.7139 6.57467 46.5921 6.57467 42.755C6.57467 38.9178 9.69659 35.7959 13.5338 35.7959C17.3709 35.7959 20.4927 38.9178 20.4927 42.755C20.4927 46.5921 17.3708 49.7139 13.5338 49.7139Z" fill="white"/>
<path d="M19.068 10.1919H22.3949L19.7252 16.3227C19.6212 16.5673 19.618 16.8431 19.7163 17.0901C19.8147 17.3371 20.0066 17.5352 20.2503 17.6413C20.494 17.7475 20.7698 17.7531 21.0176 17.6569C21.2654 17.5607 21.4652 17.3705 21.5734 17.1277L24.8575 9.58638C24.9243 9.43299 24.9519 9.26538 24.9377 9.09867C24.9236 8.93197 24.8682 8.7714 24.7765 8.63146C24.6848 8.49151 24.5597 8.3766 24.4125 8.29707C24.2653 8.21754 24.1006 8.1759 23.9333 8.1759H20.6435L23.6323 1.70022C23.7444 1.45748 23.7554 1.18017 23.663 0.929288C23.5706 0.678409 23.3823 0.474515 23.1396 0.362462C22.8968 0.25041 22.6195 0.239376 22.3686 0.331787C22.1178 0.424199 21.9139 0.612488 21.8018 0.855231L18.1529 8.76141C18.0819 8.91499 18.0508 9.08394 18.0624 9.2527C18.0739 9.42146 18.1278 9.58461 18.2189 9.7271C18.3101 9.8696 18.4356 9.98686 18.584 10.0681C18.7324 10.1493 18.8988 10.1919 19.068 10.1919ZM13.5336 38.9526C11.4371 38.9526 9.73144 40.6583 9.73144 42.7549C9.73144 44.8516 11.4371 46.5571 13.5338 46.5571C15.6303 46.5571 17.3358 44.8514 17.3358 42.7549C17.3358 40.6584 15.6301 38.9526 13.5336 38.9526ZM8.84498 28.3153H14.0242C14.918 28.3153 15.7743 27.885 16.2544 27.1311C16.7476 26.3563 16.7915 25.4012 16.3743 24.5864L13.2184 18.4252C12.5769 17.1723 11.3239 16.3809 9.92555 16.3303L9.92383 16.3279H9.85759C9.83296 16.3275 9.80863 16.3254 9.78386 16.3254H2.03925C2.02226 16.3254 2.0057 16.327 1.98899 16.3279H1.7753C1.67758 16.3279 1.58082 16.3471 1.49054 16.3845C1.40026 16.4219 1.31823 16.4767 1.24913 16.5458C1.18004 16.6149 1.12523 16.6969 1.08785 16.7872C1.05046 16.8775 1.03123 16.9742 1.03125 17.0719V27.5714C1.03125 27.6691 1.0505 27.7659 1.08789 27.8561C1.12528 27.9464 1.18009 28.0284 1.24919 28.0975C1.31828 28.1666 1.4003 28.2213 1.49057 28.2587C1.58085 28.2961 1.67759 28.3153 1.7753 28.3153H2.03925H8.84498Z" fill="white" fill-opacity="0.6"/>
</g>
</g>
<defs>
<clipPath id="clip0_672_4314">
<rect width="61.5652" height="61.6364" fill="white" transform="translate(0.717773)"/>
</clipPath>
<clipPath id="clip1_672_4314">
<rect width="62" height="52" fill="white" transform="translate(0.717773)"/>
</clipPath>
</defs>
</svg>
